<?xml version="1.0" encoding="utf-8"?>
<!-- Generator: Adobe Illustrator 19.0.0, SVG Export Plug-In . SVG Version: 6.00 Build 0)  -->
<svg version="1.1" id="Layer_1" xmlns="http://www.w3.org/2000/svg" xmlns:xlink="http://www.w3.org/1999/xlink" x="0px" y="0px"
	 viewBox="0 0 1077.1 1077.1" style="enable-background:new 0 0 1077.1 1077.1;" xml:space="preserve">
<style type="text/css">
	.st0{opacity:0.8;}
	.st1{fill:#FFFFFF;}
</style>
<g id="XMLID_760_" class="st0">
	<g id="XMLID_65_">
		<polygon id="XMLID_69_" class="st1" points="453.3,566.7 539,566.7 539,566.7 539,566.7 624.7,566.7 539,360.5 		"/>
		<path id="XMLID_66_" class="st1" d="M539,35.3L539,35.3L539,35.3L69.6,202.7l71.6,620.6L539,1043.7l0,0l0,0l397.8-220.3
			l71.6-620.6L539,35.3z M831.9,804.7H722.5l0,0l-59-147.2H539l0,0l0,0H414.5l-59,147.2l0,0H246.1l0,0L539,146.8l0,0l0,0l0,0l0,0
			L831.9,804.7L831.9,804.7z"/>
	</g>
</g>
</svg>
