<?xml version="1.0" encoding="utf-8"?>
<!-- Generator: Adobe Illustrator 23.0.1, SVG Export Plug-In . SVG Version: 6.00 Build 0)  -->
<svg version="1.1" id="Layer_1" xmlns="http://www.w3.org/2000/svg" xmlns:xlink="http://www.w3.org/1999/xlink" x="0px" y="0px"
	 viewBox="0 0 387 95" enable-background="new 0 0 387 95" xml:space="preserve">
<g opacity="0.8">
	<path fill="#FFFFFF" d="M46.98,54.9c9.8,2.42,19.23,5.75,27.73,11.35c2.37,1.56,4.55,3.36,6.19,5.73c1.73,2.49,1.91,5.16,0.36,7.07
		c-1.17,1.45-2.62,2.63-4.11,3.79c0.22-0.43,0.47-0.84,0.65-1.29c0.73-1.86,0.25-3.56-0.76-5.15c-1.58-2.5-3.85-4.28-6.29-5.86
		c-5.01-3.24-10.5-5.43-16.16-7.23c-0.33-0.11-0.66-0.23-0.98-0.35c-1.93-1.55-3.25-3.64-4.86-5.48c-0.57-0.65-1.04-1.41-1.85-1.83
		c-0.24-0.12-0.42-0.36-0.35-0.65C46.61,54.79,46.81,54.82,46.98,54.9z"/>
	<path fill="#FFFFFF" d="M56.59,30.34c-3.5-0.83-6.88-2.01-10.23-3.29c-5.81-2.24-11.41-4.89-16.55-8.43
		c-1.85-1.28-3.59-2.7-5.08-4.4c-0.52-0.59-0.97-1.23-1.35-1.93c-1.32-2.47-0.8-4.61,1.59-6.09C26.4,5.3,28,4.76,29.66,4.24
		c-0.1,0.06-0.2,0.1-0.29,0.17c-2.19,1.55-2.11,3.49-0.65,5.53c1.62,2.28,3.83,3.92,6.12,5.44c5.15,3.41,10.54,6.36,16.56,7.99
		c0.11,0.03,0.2,0.1,0.31,0.16c0.97,1.15,1.91,2.3,2.86,3.46c0.59,0.72,1.11,1.49,1.74,2.17C56.57,29.46,56.88,29.86,56.59,30.34z"
		/>
	<path fill="#FFFFFF" d="M34.15,58.22c-5.88-1.58-11.53-3.76-16.91-6.61c-3.89-2.06-7.54-4.46-10.59-7.67
		c-2.08-2.19-3.77-4.61-4.3-7.67c-0.19-1.11-0.23-2.23,0.09-3.3c0.58-1.98,1.42-3.87,2.32-5.88c0.19,0.53-0.02,0.87-0.08,1.21
		c-0.63,3.73,0.62,6.91,2.91,9.75c2.97,3.7,6.91,6.15,11.06,8.27c2.68,1.37,5.47,2.49,8.3,3.49c0.3,0.11,0.59,0.25,0.88,0.37
		c2.6,1.82,4.04,4.67,6.14,6.93C34.27,57.43,34.43,57.8,34.15,58.22z"/>
	<path fill="#FFFFFF" d="M46.39,94.2c2.17-0.67,2.38-1.39,0.78-2.99c-2.37-2.37-5.24-3.99-8.24-5.4c-5.34-2.52-11.01-4-16.74-5.3
		c-4.62-1.05-8.89-2.85-12.41-6.13c-3.12-2.91-5.26-6.43-6.65-10.45c0.19-0.13,0.21,0.04,0.27,0.11c0.06,0.06,0.08,0.16,0.12,0.23
		C7.17,70.84,12.68,74.89,20,76.49c4.73,1.03,9.52,1.8,14.08,3.51c6.03,2.25,11.67,5.21,16.88,8.98c0.85,0.62,1.64,1.33,2.23,2.21
		c0.74,1.11,0.5,1.94-0.74,2.43c-1.61,0.64-3.33,0.5-5.02,0.58C47.09,94.21,46.74,94.2,46.39,94.2z"/>
	<path fill="#FFFFFF" d="M230.68,30.85c-1.28,1.91-2.55,3.82-3.82,5.74c-0.53,0.8-1.06,1.61-1.59,2.42
		c-0.53,0.82-0.66,0.83-1.2,0.03c-1.67-2.5-3.34-5.01-5.01-7.51c-0.16-0.24-0.33-0.46-0.54-0.74c-0.31,0.34-0.22,0.7-0.22,1.02
		c-0.06,3.1-0.14,6.19-0.16,9.29c0,0.72-0.29,0.87-0.94,0.87c-2.3,0-2.27,0.02-2.17-2.28c0.21-5.02,0.39-10.04,0.59-15.06
		c0.02-0.5,0.05-0.99,0.1-1.49c0.02-0.22-0.05-0.5,0.25-0.59c0.3-0.09,0.4,0.18,0.53,0.36c0.53,0.77,1.06,1.54,1.58,2.32
		c2.02,3.01,4.03,6.02,6.04,9.03c0.62,0.93,0.62,0.93,1.21,0.03c2.42-3.69,4.83-7.38,7.25-11.07c0.13-0.2,0.24-0.41,0.41-0.57
		c0.25-0.24,0.49-0.17,0.6,0.15c0.06,0.16,0.05,0.35,0.06,0.52c0.24,5.81,0.48,11.61,0.72,17.42c0.05,1.2,0.04,1.2-1.15,1.2
		c-1.94,0-1.97,0-2.05-1.93c-0.11-2.89-0.17-5.78-0.26-8.67c0-0.14-0.03-0.29-0.04-0.43C230.8,30.9,230.74,30.88,230.68,30.85z"/>
	<path fill="#FFFFFF" d="M33.97,40.33c-6.74-2.56-13.19-5.65-18.71-10.39c-2.09-1.79-3.94-3.83-4.85-6.52
		c-0.9-2.68-0.34-5.05,1.58-7.11c0.99-1.07,1.92-2.19,3.23-3.19c-0.4,0.96-0.89,1.7-1.07,2.58c-0.49,2.5,0.46,4.59,1.9,6.5
		c2.35,3.15,5.52,5.33,8.85,7.3c0.22,0.13,0.44,0.28,0.66,0.42c0.11,0.21,0.27,0.42,0.46,0.51c2.24,1.07,3.39,3.2,4.87,5
		c1,1.21,2.04,2.38,2.96,3.65C34.14,39.48,34.4,39.87,33.97,40.33z"/>
	<path fill="#FFFFFF" d="M192.79,36.17c0,1.14-0.01,2.28,0,3.42c0,0.37-0.06,0.67-0.41,0.89c-4.06,2.52-10.32,2.73-14.12-1.14
		c-2.85-2.9-3.49-6.43-2.23-10.21c1.22-3.67,3.96-5.76,7.72-6.46c2.77-0.52,5.39,0,7.88,1.3c0.58,0.31,0.88,0.59,0.4,1.24
		c-0.39,0.54-0.57,1.38-1.07,1.65c-0.52,0.28-1.09-0.47-1.68-0.69c-2.72-1-5.37-1.14-7.82,0.71c-2.25,1.7-3.14,5.33-2.06,8.13
		c1.12,2.89,3.84,4.6,6.89,4.36c0.97-0.08,1.91-0.2,2.81-0.6c0.4-0.18,0.59-0.41,0.57-0.86c-0.03-0.82-0.03-1.64,0-2.45
		c0.02-0.53-0.17-0.73-0.7-0.71c-1.05,0.03-2.1-0.01-3.15,0.01c-0.49,0.01-0.65-0.18-0.68-0.66c-0.13-2.17-0.14-2.17,1.98-2.17
		c1.58,0,3.15,0.03,4.73-0.01c0.7-0.02,1,0.17,0.96,0.93C192.75,33.95,192.79,35.06,192.79,36.17z"/>
	<path fill="#FFFFFF" d="M64.48,42.13c3.97,1.27,7.89,2.67,11.62,4.54c3.67,1.83,7.18,3.9,10.18,6.73c2.02,1.9,3.74,4.02,4.38,6.82
		c0.34,1.49,0.29,2.94-0.33,4.37c-0.6,1.38-1.1,2.8-1.96,4.08c0.09-1.1,0.24-2.18,0.05-3.28c-0.51-2.91-2.2-5.11-4.27-7.06
		c-2.81-2.65-6.13-4.54-9.6-6.18c-1.24-0.58-2.51-1.09-3.77-1.63c-2.41-2.18-4.21-4.87-6.24-7.36
		C64.31,42.84,64.14,42.49,64.48,42.13z"/>
	<path fill="#FFFFFF" d="M32.22,72.11c-5.04-1.13-10.01-2.51-14.8-4.48c-3.91-1.61-7.58-3.63-10.79-6.4
		c-3.37-2.91-5.82-6.38-6.41-10.91c-0.24-1.88-0.07-3.78-0.04-5.92c0.38,0.58,0.3,1.03,0.37,1.43c0.85,4.93,3.58,8.67,7.43,11.69
		c4.12,3.23,8.85,5.28,13.79,6.87c1.83,0.59,3.7,1.08,5.54,1.62c0.03,0.05,0.06,0.11,0.11,0.13c2.34,0.98,3.29,3.3,4.82,5.05
		C32.48,71.46,32.54,71.81,32.22,72.11z"/>
	<path fill="#FFFFFF" d="M196.1,29.74c0-2.02,0.02-4.03-0.01-6.05c-0.01-0.63,0.16-0.87,0.84-0.87c2.38-0.02,2.38-0.04,2.38,2.36
		c0,3.04,0,6.08,0.01,9.12c0,0.46,0.03,0.94,0.11,1.39c0.57,3.1,3.56,4.59,6.4,3.18c1.76-0.87,2.22-2.48,2.24-4.25
		c0.04-3.59,0.04-7.19,0-10.78c-0.01-0.8,0.21-1.04,1.02-1.03c2.21,0.04,2.21,0.01,2.21,2.22c0,3.33,0.03,6.66-0.01,9.99
		c-0.04,3.06-1.25,5.42-4.2,6.67c-2.97,1.26-7.09,0.59-9.1-1.47c-1.15-1.18-1.74-2.65-1.8-4.26c-0.08-2.07-0.02-4.15-0.02-6.22
		C196.13,29.74,196.11,29.74,196.1,29.74z"/>
	<path fill="#FFFFFF" d="M64.48,42.13c0.56,1.23,1.49,2.2,2.31,3.24c1.2,1.54,2.49,3,3.73,4.5c0.14,0.17,0.19,0.42,0.28,0.63
		c-6.4-2.46-13.03-4.01-19.76-5.23c-0.2-0.04-0.39-0.12-0.58-0.17c-1.33-0.44-2.04-1.59-2.83-2.6c-1-1.28-1.99-2.56-3.04-3.8
		c-0.21-0.25-0.49-0.41-0.72-0.63c-0.28-0.29-0.6-0.59-0.25-1.04c6.68,1.64,13.5,2.66,20.06,4.78C63.95,41.9,64.26,41.9,64.48,42.13
		z"/>
	<path fill="#FFFFFF" d="M115.47,42.3c-6.16,0-10.42-4.25-10.31-10.26c0.09-4.69,3.47-8.56,8.16-9.37c2.66-0.46,5.16-0.05,7.57,1.15
		c0.55,0.27,0.77,0.53,0.45,1.13c-0.31,0.59-0.39,1.45-0.86,1.77c-0.54,0.37-1.19-0.36-1.81-0.56c-2.59-0.85-5.1-0.99-7.46,0.65
		c-2.13,1.48-3.07,4.68-2.29,7.68c0.69,2.63,2.78,4.38,5.5,4.68c1.99,0.22,3.83-0.22,5.58-1.1c0.58-0.29,0.85-0.21,0.97,0.42
		c0.03,0.14,0.09,0.28,0.14,0.41c0.61,1.75,0.62,1.77-1.13,2.48C118.54,41.97,117.04,42.31,115.47,42.3z"/>
	<path fill="#FFFFFF" d="M34.15,58.22c-0.19-0.67-0.68-1.14-1.09-1.65c-1.43-1.78-3-3.46-4.27-5.36c-0.27-0.4-0.99-0.35-0.95-1.02
		c6.11,2.11,12.49,3.08,18.75,4.56c0.14,0.03,0.26,0.1,0.39,0.16c-0.25,0.08-0.28,0.25-0.05,0.34c1.16,0.46,1.72,1.53,2.46,2.4
		c1.32,1.55,2.6,3.13,3.89,4.7c0.14,0.17,0.21,0.41,0.32,0.61c-3.04-0.77-6.05-1.64-9.13-2.28C41.01,59.98,37.54,59.27,34.15,58.22z
		"/>
	<path fill="#FFFFFF" d="M49.06,72.24c5.45,2.12,10.69,4.65,15.43,8.11c1.39,1.02,2.68,2.16,3.7,3.57c1.78,2.46,1.21,4.63-1.56,5.86
		c-1.29,0.57-2.57,1.18-3.98,1.58c0.07-0.32,0.3-0.36,0.45-0.49c1.09-0.93,1.33-2.01,0.69-3.28c-0.88-1.76-2.39-2.92-3.89-4.07
		c-1.97-1.51-4.14-2.72-6.29-3.95c-1.41-1.19-2.59-2.58-3.71-4.04c-0.51-0.67-0.99-1.37-1.58-1.98c-0.28-0.29-0.35-0.67-0.18-1.06
		C48.35,72.06,48.72,72.18,49.06,72.24z"/>
	<path fill="#FFFFFF" d="M70.15,27.89c7.38,2.07,14.02,5.54,19.66,10.77c2.98,2.76,4.11,6.28,3.71,10.31
		c-0.09,0.9-0.11,1.81-0.17,2.88c-0.11-0.23-0.18-0.32-0.19-0.42c-0.66-5.05-3.69-8.5-7.65-11.32c-3.06-2.18-6.47-3.7-9.98-4.98
		c-0.24-0.09-0.48-0.19-0.72-0.29c-1.98-1.6-3.34-3.74-4.93-5.69C69.42,28.59,69.56,28.16,70.15,27.89z"/>
	<path fill="#FFFFFF" d="M43.62,37.03c0.21,0.88,1.08,1.18,1.6,1.79c1.48,1.72,2.73,3.63,4.28,5.29c0.32,0.34,0.64,0.67,0.96,1
		c-2.48-0.37-4.88-1.07-7.28-1.74c-3.12-0.86-6.19-1.85-9.19-3.04c-0.12-1.04-0.95-1.64-1.53-2.38c-1.45-1.89-2.96-3.73-4.48-5.56
		c-0.48-0.58-1.01-1.13-1.68-1.51c-0.37-0.21-0.63-0.51-0.73-0.93c5.36,3.01,11.12,5.03,16.99,6.74
		C42.92,36.77,43.31,36.79,43.62,37.03z"/>
	<path fill="#FFFFFF" d="M49.06,72.24c-0.85,0.31-0.9,0.57-0.28,1.27c1.6,1.79,2.9,3.83,4.62,5.52c0.13,0.13,0.15,0.37,0.21,0.55
		c-6.48-3.58-13.54-5.46-20.65-7.25c-0.25-0.06-0.5-0.15-0.75-0.23c-0.18-0.9-0.83-1.52-1.39-2.14c-1.11-1.24-1.86-2.81-3.38-3.67
		c-0.08-0.04-0.09-0.2-0.14-0.31c4.72,1.02,9.46,1.93,14.05,3.46C43.96,70.31,46.57,71.12,49.06,72.24z"/>
	<path fill="#FFFFFF" d="M70.15,27.89c-0.4,0.44-0.14,0.82,0.14,1.17c1.3,1.61,2.61,3.21,3.9,4.82c0.23,0.29,0.41,0.63,0.61,0.95
		c-3.28-1.02-6.58-1.96-9.95-2.64c-2.77-0.56-5.55-1.04-8.26-1.85c-1.45-2.1-3.13-4.02-4.71-6.01c-0.17-0.21-0.71-0.41-0.18-0.8
		c3.55,1.1,7.24,1.6,10.85,2.45C65.09,26.57,67.67,27.03,70.15,27.89z"/>
	<path fill="#FFFFFF" d="M56.42,16.14c-5.46-2.17-10.69-4.75-15.25-8.53c-0.93-0.77-1.75-1.63-2.37-2.67
		c-0.97-1.6-0.52-2.87,1.25-3.51c2.04-0.73,4.18-0.57,6.3-0.63c-0.54,0.13-1.07,0.24-1.58,0.43c-1.44,0.53-1.74,1.45-0.84,2.7
		c0.85,1.17,2.01,2.02,3.14,2.9c2.15,1.66,4.54,2.94,6.89,4.26c-0.01,0.86,0.57,1.41,1.07,2c0.5,0.59,1.01,1.19,1.44,1.84
		C56.74,15.32,56.89,15.75,56.42,16.14z"/>
	<path fill="#FFFFFF" d="M149.52,47.95c-14.61,0-29.22,0-43.82,0c-0.26,0-0.53,0-0.79-0.01c-0.3-0.01-0.29-0.23-0.28-0.44
		c0.01-0.22-0.08-0.5,0.28-0.52c0.23-0.02,0.47-0.01,0.7-0.01c29.27,0,58.55,0,87.82,0.02c0.34,0,0.94-0.36,0.99,0.43
		c0.02,0.34-0.05,0.57-0.47,0.53c-0.23-0.02-0.47,0-0.7,0C178.68,47.95,164.1,47.95,149.52,47.95z"/>
	<path fill="#FFFFFF" d="M350.44,32.44c0.64-0.47,1.15-0.95,1.78-1.27c0.88-0.45,1.79-0.68,2.78-0.61c1.83,0.14,3.11,1.45,3.14,3.35
		c0.05,2.45,0,4.9,0.02,7.35c0.01,0.55-0.21,0.68-0.72,0.7c-2.27,0.07-2.27,0.08-2.27-2.21c0-1.61,0.01-3.21-0.01-4.82
		c-0.02-1.56-0.93-2.23-2.42-1.83c-0.78,0.21-1.42,0.65-2.02,1.19c-0.31,0.27-0.29,0.61-0.29,0.96c0,1.96-0.02,3.91,0.01,5.87
		c0.01,0.66-0.2,0.84-0.85,0.84c-2.14,0-2.14,0.03-2.14-2.07c0-2.77,0.02-5.54-0.01-8.32c-0.01-0.66,0.2-0.92,0.85-0.83
		c0.03,0,0.06,0,0.09,0C350.12,30.72,350.12,30.72,350.44,32.44z"/>
	<path fill="#FFFFFF" d="M253.31,32.43c0.64-0.47,1.15-0.95,1.78-1.27c0.8-0.4,1.61-0.65,2.52-0.62c1.99,0.06,3.37,1.35,3.41,3.36
		c0.05,2.45,0,4.9,0.02,7.35c0,0.54-0.2,0.68-0.72,0.7c-2.27,0.07-2.27,0.08-2.27-2.2c0-1.61,0.01-3.21-0.01-4.82
		c-0.02-1.56-0.93-2.23-2.42-1.83c-0.78,0.21-1.42,0.65-2.02,1.19c-0.31,0.27-0.29,0.61-0.29,0.96c0,1.96-0.02,3.91,0.01,5.87
		c0.01,0.66-0.2,0.84-0.85,0.84c-2.15,0-2.15,0.03-2.15-2.16c0-2.74,0.02-5.49-0.01-8.23c-0.01-0.66,0.2-0.93,0.85-0.83
		c0.03,0,0.06,0,0.09,0C252.99,30.72,252.99,30.72,253.31,32.43z"/>
	<path fill="#FFFFFF" d="M296.62,32.44c0.63-0.48,1.15-0.95,1.77-1.28c0.88-0.45,1.79-0.68,2.78-0.61c1.76,0.14,3.07,1.37,3.12,3.18
		c0.08,2.54,0.02,5.08,0.03,7.62c0,0.47-0.21,0.58-0.63,0.6c-2.35,0.14-2.35,0.15-2.35-2.21c0-1.61,0.01-3.21-0.01-4.82
		c-0.02-1.55-0.93-2.23-2.43-1.82c-0.78,0.21-1.42,0.66-2.01,1.19c-0.31,0.27-0.28,0.62-0.28,0.97c0,1.96-0.03,3.91,0.01,5.87
		c0.01,0.67-0.22,0.83-0.86,0.83c-2.14,0-2.14,0.02-2.14-2.08c0-2.74,0.02-5.49-0.02-8.23c-0.01-0.74,0.23-0.94,0.95-0.93
		C296.29,30.76,296.29,30.72,296.62,32.44z"/>
	<path fill="#FFFFFF" d="M67.48,15.81c2.46,0.53,4.94,0.99,7.38,1.59c6.92,1.7,12.03,5.68,15.13,12.15c0.64,1.34,1.1,2.74,1.37,4.22
		c-0.26-0.52-0.5-1.04-0.77-1.55c-2.55-4.68-6.53-7.65-11.39-9.58c-2.83-1.13-5.79-1.73-8.76-2.32c-1.32-1.08-2.3-2.46-3.34-3.78
		C66.77,16.14,66.93,15.91,67.48,15.81z"/>
	<path fill="#FFFFFF" d="M247.35,32.48c0,2.86-0.02,5.73,0.01,8.59c0.01,0.68-0.19,0.9-0.89,0.9c-2.34-0.01-2.34,0.02-2.34-2.34
		c0-5.23,0.02-10.46-0.02-15.69c-0.01-0.89,0.25-1.14,1.13-1.12c2.1,0.06,2.1,0.01,2.1,2.13C247.35,27.46,247.35,29.97,247.35,32.48
		z"/>
	<path fill="#FFFFFF" d="M60.67,2.89c-0.41,0.16-0.86-0.05-0.98,0.41c-0.13,0.48,0.23,0.75,0.55,1.01c3.4,2.77,7.26,4.6,11.53,5.55
		c1.42,0.32,2.81,0.71,4.2,1.14c0.88,0.27,1.62,0.78,2.3,1.39c0.99,0.89,1.77,1.97,2.6,3c-2.59-2.39-5.92-2.69-9.13-3.45
		c-5.36-1.27-10.4-3.35-14.79-6.78c-0.81-0.63-1.55-1.34-2.21-2.12c-0.44-0.52-0.26-1.11,0.38-1.17
		C57.02,1.67,58.86,1.97,60.67,2.89z"/>
	<path fill="#FFFFFF" d="M322.74,27.04c0,1.03,0.04,1.87-0.01,2.7c-0.05,0.74,0.15,1.09,0.96,0.99c0.52-0.06,1.05,0.01,1.57-0.01
		c0.46-0.02,0.59,0.19,0.62,0.63c0.12,1.8,0.13,1.8-1.64,1.81c-1.72,0.01-1.48-0.18-1.5,1.49c-0.01,1.2-0.02,2.39,0,3.59
		c0.02,1.07,0.46,1.46,1.53,1.43c0.83-0.03,1.04,0.28,1.2,1.66c0.09,0.75-0.51,0.54-0.87,0.66c-0.11,0.04-0.23,0.05-0.34,0.07
		c-2.85,0.47-4.37-0.76-4.47-3.65c-0.04-1.37-0.06-2.74,0.01-4.11c0.04-0.85-0.17-1.29-1.1-1.13c-0.14,0.02-0.29,0.01-0.44,0
		c-0.2-0.01-0.44,0.04-0.53-0.2c-0.08-0.23,0.12-0.37,0.26-0.52c0.28-0.29,0.55-0.61,0.87-0.86c0.67-0.55,1.08-1.19,0.94-2.11
		c-0.04-0.25-0.05-0.54,0.22-0.71C320.86,28.21,321.72,27.68,322.74,27.04z"/>
	<path fill="#FFFFFF" d="M267.51,27.05c0,1.11,0.02,2.01-0.01,2.91c-0.02,0.55,0.14,0.82,0.74,0.77c0.43-0.04,0.88,0.04,1.31-0.02
		c0.91-0.13,1.16,0.25,1.11,1.12c-0.07,1.31-0.02,1.32-1.35,1.32c-1.8,0-1.8,0-1.8,1.8c0,1.11-0.02,2.22,0.01,3.33
		c0.02,0.99,0.45,1.47,1.4,1.36c0.77-0.09,1,0.17,1.14,0.87c0.27,1.32,0.31,1.31-0.99,1.53c-0.58,0.1-1.16,0.13-1.74,0.04
		c-1.54-0.22-2.36-1.02-2.63-2.61c-0.3-1.71-0.1-3.44-0.14-5.15c-0.03-1.16-0.01-1.15-1.13-1.18c-0.31-0.01-0.73,0.16-0.89-0.17
		c-0.19-0.4,0.29-0.57,0.5-0.82c0.24-0.29,0.51-0.57,0.8-0.8c0.54-0.44,0.82-0.97,0.71-1.67c-0.1-0.6,0.17-0.97,0.69-1.26
		C265.96,28.04,266.64,27.59,267.51,27.05z"/>
	<path fill="#FFFFFF" d="M375.84,32.38c0,2.89-0.02,5.78,0.01,8.67c0.01,0.66-0.15,0.92-0.87,0.92c-2.09-0.02-2.09,0.02-2.09-2.04
		c0-5.34,0.02-10.68-0.02-16.02c-0.01-0.81,0.16-1.12,1.05-1.09c1.93,0.06,1.93,0.01,1.93,1.95
		C375.84,27.31,375.84,29.85,375.84,32.38z"/>
	<path fill="#FFFFFF" d="M67.48,15.81c-0.51,0.22-0.16,0.44,0.01,0.65c0.71,0.84,1.43,1.68,2.16,2.51c0.35,0.4,0.59,0.87,0.79,1.35
		c-4.26-0.73-8.36-2.03-12.4-3.53c-0.54-0.2-1.08-0.44-1.62-0.66c0.03-1.23-1.02-1.81-1.6-2.68c-0.3-0.46-0.7-0.85-1.05-1.27
		c-0.37-0.44-0.37-0.83,0.19-1.11c4.15,2.09,8.47,3.7,13.04,4.56C67.18,15.67,67.36,15.66,67.48,15.81z"/>
	<path fill="#FFFFFF" d="M287.97,32.42c0.88-0.9,1.73-1.58,2.87-1.79c0.92-0.17,1.05-0.11,1.04,0.79c-0.01,0.64,0.25,1.42-0.11,1.87
		c-0.35,0.43-1.15,0.11-1.73,0.23c-1.36,0.28-2.13,0.6-2.03,2.25c0.11,1.8,0.01,3.62,0.03,5.42c0.01,0.57-0.19,0.74-0.76,0.75
		c-2.24,0.05-2.23,0.06-2.23-2.15c0-2.74,0.02-5.48-0.01-8.22c-0.01-0.64,0.18-0.93,0.84-0.84c0.14,0.02,0.29,0,0.44,0
		C287.82,30.74,287.82,30.74,287.97,32.42z"/>
	<path fill="#FFFFFF" d="M254.16,59.65c2.2-1.6,3.92-1.7,5.03,0.1c0.85-0.82,1.85-1.31,3.05-1.31c1.44-0.01,2.36,0.75,2.43,2.19
		c0.08,1.75,0.02,3.5,0.04,5.26c0.01,0.69-0.49,0.39-0.8,0.44c-0.39,0.06-0.65,0-0.64-0.53c0.03-1.4,0.02-2.8,0.01-4.21
		c-0.01-1.39-0.44-1.93-1.47-1.92c-1.26,0.01-2.35,0.96-2.35,2.03c0,1.29-0.03,2.57,0.01,3.85c0.02,0.59-0.11,0.8-0.75,0.8
		c-0.61-0.01-0.72-0.22-0.7-0.76c0.03-1.31,0.02-2.63,0.01-3.94c-0.02-1.47-0.43-2-1.5-1.98c-1.25,0.03-2.29,0.98-2.29,2.1
		c0,1.31-0.04,2.63,0.01,3.94c0.02,0.63-0.3,0.61-0.74,0.62c-0.48,0.01-0.73-0.04-0.72-0.64c0.04-2.04,0-4.09,0.03-6.13
		c0-0.37-0.33-0.95,0.54-0.98C254.12,58.55,254.3,58.86,254.16,59.65z"/>
	<path fill="#FFFFFF" d="M150.24,52.64c0.89,0.01,1.71,0.25,2.52,0.63c0.53,0.25,0.4,0.52,0.18,0.88c-0.2,0.33-0.28,0.79-0.86,0.4
		c-0.7-0.47-1.51-0.58-2.35-0.51c-1.04,0.09-1.8,0.69-2.07,1.61c-0.24,0.85,0.07,1.64,0.92,2.27c0.9,0.66,1.98,0.98,2.93,1.56
		c0.86,0.53,1.63,1.13,1.88,2.19c0.55,2.3-0.96,4.46-3.4,4.78c-1.47,0.19-2.82-0.22-4.1-0.96c-0.64-0.37-0.12-0.67,0.01-0.98
		c0.13-0.34,0.28-0.61,0.76-0.29c0.89,0.59,1.87,0.95,2.96,0.89c1.16-0.06,1.93-0.6,2.24-1.61c0.33-1.06,0.02-2.04-0.98-2.65
		c-0.94-0.58-1.96-1.02-2.92-1.58c-1-0.58-1.73-1.38-1.8-2.62C146.03,54.35,147.77,52.63,150.24,52.64z"/>
	<path fill="#FFFFFF" d="M218.3,66.5c-1.17-0.02-2.22-0.4-3.24-0.94c-0.65-0.34-0.29-0.66-0.1-1.03c0.19-0.38,0.35-0.6,0.84-0.27
		c0.91,0.61,1.93,0.95,3.06,0.86c1.08-0.09,1.83-0.68,2.11-1.67c0.28-1-0.04-1.91-0.9-2.54c-0.92-0.68-2.04-0.99-3.01-1.6
		c-1-0.64-1.76-1.43-1.82-2.71c-0.11-2.5,2.06-4.29,4.75-3.91c0.52,0.07,1.01,0.25,1.51,0.43c0.72,0.26,0.87,0.6,0.42,1.26
		c-0.24,0.36-0.4,0.39-0.74,0.18c-0.78-0.47-1.63-0.62-2.53-0.49c-0.94,0.14-1.62,0.63-1.9,1.58c-0.27,0.94,0.09,1.65,0.82,2.22
		c0.74,0.58,1.64,0.88,2.46,1.32c1.06,0.57,2.1,1.18,2.43,2.48C223.11,64.25,221.16,66.52,218.3,66.5z"/>
	<path fill="#FFFFFF" d="M18.74,83.8c3.6,0.35,6.95,1.58,10.2,3.11c2.62,1.23,5.15,2.61,7.38,4.47c0.39,0.33,1.13,0.66,0.84,1.25
		c-0.28,0.58-1,0.24-1.53,0.16c-1.16-0.18-2.26-0.54-3.36-0.94c-0.11-0.04-0.75-0.01-0.18-0.46c0.23-0.18-0.15-0.38-0.29-0.52
		c-0.86-0.84-1.88-1.46-2.93-2.04c-2.74-1.51-5.56-2.83-8.65-3.43c-0.79-0.16-1.49-0.38-2.12-0.86c-0.18-0.14-0.45-0.29-0.4-0.53
		c0.08-0.34,0.43-0.19,0.67-0.22C18.48,83.79,18.6,83.8,18.74,83.8z"/>
	<path fill="#FFFFFF" d="M104.95,59.57c0-2.01,0.02-4.03-0.01-6.04c-0.01-0.59,0.18-0.73,0.74-0.72c2.16,0.03,4.32,0.02,6.48,0
		c0.48,0,0.74,0.05,0.72,0.65c-0.02,0.54-0.17,0.7-0.7,0.7c-1.69-0.03-3.39,0.01-5.08-0.02c-0.58-0.01-0.75,0.16-0.73,0.73
		c0.04,1.17,0.04,2.34,0,3.5c-0.02,0.54,0.14,0.7,0.68,0.69c1.49-0.04,2.98,0.01,4.46-0.03c0.55-0.01,0.67,0.16,0.69,0.69
		c0.02,0.6-0.23,0.65-0.72,0.64c-1.43-0.03-2.86,0.02-4.29-0.02c-0.63-0.02-0.86,0.1-0.84,0.8c0.06,1.52-0.01,3.04,0.03,4.55
		c0.02,0.61-0.25,0.64-0.72,0.64c-0.46-0.01-0.75-0.01-0.74-0.63C104.98,63.66,104.95,61.61,104.95,59.57z"/>
	<path fill="#FFFFFF" d="M330.98,36.45c0,1.57-0.02,3.15,0.01,4.72c0.01,0.62-0.2,0.79-0.8,0.79C328,41.98,328,42,328,39.85
		c0-2.71,0.02-5.42-0.01-8.13c-0.01-0.66,0.21-0.84,0.85-0.84c2.14,0,2.14-0.03,2.14,2.07C330.98,34.12,330.98,35.28,330.98,36.45z"
		/>
	<path fill="#FFFFFF" d="M223.4,58.65c1.52-0.13,1.52-0.13,2.08,1.17c0.59,1.36,1.17,2.73,1.78,4.16c0.38-0.43,0.5-0.93,0.69-1.38
		c0.4-0.94,0.79-1.88,1.19-2.82c0.53-1.27,0.53-1.27,2.05-1.13c-0.95,2.05-1.89,4.08-2.83,6.11c-0.7,1.5-1.47,2.98-2.09,4.52
		c-0.37,0.92-0.86,1.32-1.93,0.96c0.61-1.26,1.18-2.55,1.86-3.79c0.33-0.61,0.32-1.09,0.02-1.7c-0.89-1.8-1.71-3.64-2.55-5.46
		C223.56,59.09,223.49,58.88,223.4,58.65z"/>
	<path fill="#FFFFFF" d="M192.99,59.85c-1.14,0-2.27-0.02-3.39,0.01c-0.48,0.01-0.66-0.12-0.65-0.63c0-0.48,0.12-0.65,0.63-0.64
		c1.69,0.03,3.39,0.01,5.08,0.02c0.22,0,0.51-0.13,0.64,0.12c0.13,0.25-0.13,0.42-0.26,0.6c-1.2,1.65-2.4,3.3-3.6,4.95
		c-0.15,0.21-0.29,0.42-0.55,0.79c1.31,0,2.49,0.02,3.66-0.01c0.51-0.01,0.78,0.04,0.78,0.68c0,0.68-0.39,0.57-0.79,0.57
		c-1.72,0-3.45,0-5.17,0c-0.22,0-0.53,0.11-0.65-0.1c-0.17-0.28,0.16-0.46,0.3-0.66c1.17-1.64,2.37-3.26,3.54-4.89
		C192.73,60.45,192.98,60.26,192.99,59.85z"/>
	<path fill="#FFFFFF" d="M234.78,58.43c0.54-0.01,1.06,0.1,1.51,0.36c0.25,0.14,0.89,0.06,0.57,0.7c-0.23,0.45-0.4,0.93-1.06,0.44
		c-0.43-0.33-0.99-0.34-1.52-0.25c-0.43,0.07-0.76,0.29-0.84,0.77c-0.07,0.45,0.16,0.73,0.52,0.91c0.55,0.27,1.12,0.49,1.67,0.76
		c1.17,0.58,1.57,1.26,1.4,2.34c-0.17,1.06-1,1.87-2.13,2.02c-1.02,0.14-1.96-0.15-2.83-0.68c-0.32-0.19-0.42-0.41-0.13-0.68
		c0.22-0.22,0.27-0.81,0.83-0.4c0.58,0.43,1.23,0.66,1.96,0.57c0.51-0.07,0.88-0.31,1-0.83c0.11-0.5-0.13-0.86-0.55-1.08
		c-0.46-0.24-0.95-0.45-1.42-0.66c-1.37-0.62-1.88-1.37-1.64-2.43C232.39,59.15,233.44,58.42,234.78,58.43z"/>
	<path fill="#FFFFFF" d="M268.44,66.49c-0.53-0.01-1.28-0.28-2-0.71c-0.32-0.2-0.4-0.41-0.13-0.69c0.22-0.22,0.28-0.8,0.83-0.39
		c0.57,0.43,1.23,0.66,1.96,0.57c0.51-0.07,0.88-0.31,1-0.83c0.11-0.5-0.14-0.86-0.56-1.08c-0.57-0.29-1.17-0.52-1.74-0.81
		c-1.02-0.5-1.43-1.14-1.35-2.03c0.08-0.93,0.74-1.66,1.74-1.97c0.98-0.3,1.89-0.06,2.79,0.36c0.35,0.16,0.45,0.35,0.19,0.65
		c-0.21,0.23-0.19,0.85-0.78,0.47c-0.45-0.29-0.95-0.43-1.49-0.4c-0.5,0.03-0.93,0.18-1.07,0.72c-0.15,0.57,0.2,0.86,0.66,1.07
		c0.45,0.21,0.91,0.39,1.35,0.61c1.35,0.65,1.8,1.41,1.52,2.59C271.11,65.76,270.07,66.5,268.44,66.49z"/>
	<path fill="#FFFFFF" d="M238.04,59.8c0.18-0.48,0.56-0.68,0.81-0.98c0.16-0.2,0.45-0.35,0.39-0.64c-0.22-1.1,0.48-1.57,1.36-1.99
		c0.17,0.61,0.08,1.24,0.07,1.85c-0.01,0.47,0.14,0.63,0.6,0.58c0.32-0.03,0.64,0,0.96-0.01c0.42-0.02,0.76-0.05,0.77,0.59
		c0.01,0.68-0.32,0.66-0.8,0.66c-1.51,0-1.51,0.01-1.51,1.48c0,0.87-0.01,1.75,0,2.62c0.01,0.95,0.27,1.25,1.25,1.26
		c0.45,0.01,0.66,0.08,0.71,0.59c0.05,0.58-0.27,0.61-0.67,0.66c-1.77,0.22-2.67-0.53-2.71-2.3c-0.02-1.05-0.01-2.1-0.01-3.15
		C239.25,59.9,239.25,59.9,238.04,59.8z"/>
	<path fill="#FFFFFF" d="M157.23,56.1c0,0.72,0.02,1.32-0.01,1.91c-0.02,0.44,0.1,0.65,0.58,0.6c0.32-0.04,0.64,0,0.96-0.01
		c0.4,0,0.78-0.1,0.78,0.58c0,0.65-0.28,0.68-0.78,0.68c-1.53-0.01-1.53,0.01-1.53,1.55c0,0.85,0,1.69,0,2.54
		c0.01,0.96,0.27,1.28,1.23,1.27c0.54-0.01,0.7,0.14,0.73,0.67c0.04,0.62-0.4,0.55-0.74,0.59c-1.77,0.19-2.61-0.56-2.65-2.37
		c-0.02-0.93,0-1.86-0.01-2.8c0-1.34,0-1.34-1.37-1.77c0.34-0.26,0.69-0.5,1.02-0.77c0.2-0.17,0.42-0.36,0.35-0.66
		C155.54,56.96,156.38,56.62,157.23,56.1z"/>
	<path fill="#FFFFFF" d="M182.1,59.57c0-2.01,0.02-4.03-0.01-6.04c-0.01-0.57,0.16-0.73,0.73-0.73c0.56,0,0.73,0.14,0.73,0.73
		c-0.03,4.03-0.02,8.06,0,12.08c0,0.57-0.15,0.74-0.72,0.73c-0.56-0.01-0.75-0.14-0.74-0.73C182.12,63.6,182.1,61.59,182.1,59.57z"
		/>
	<path fill="#FFFFFF" d="M206.88,59.72c0.62-0.58,1.18-1.04,1.91-1.17c0.28-0.05,0.77-0.41,0.79,0.22c0.01,0.39,0.41,1.06-0.48,1.12
		c-0.23,0.02-0.46,0.08-0.68,0.14c-1.19,0.33-1.54,0.81-1.54,2.05c0,1.22-0.04,2.45,0.02,3.67c0.03,0.69-0.38,0.55-0.78,0.58
		c-0.43,0.03-0.69-0.01-0.68-0.58c0.03-2.13,0.02-4.26,0.01-6.39c0-0.5,0.03-0.78,0.67-0.78c0.65,0,0.81,0.24,0.73,0.8
		C206.83,59.43,206.85,59.49,206.88,59.72z"/>
	<path fill="#FFFFFF" d="M179.85,62.44c0,1.11-0.03,2.22,0.01,3.33c0.03,0.6-0.31,0.57-0.71,0.55c-0.35-0.02-0.76,0.13-0.75-0.51
		c0.03-2.22,0.03-4.43,0-6.65c-0.01-0.7,0.42-0.52,0.8-0.56c0.47-0.05,0.68,0.08,0.66,0.6C179.82,60.28,179.85,61.36,179.85,62.44z"
		/>
	<path fill="#FFFFFF" d="M187.21,62.46c0,1.11-0.03,2.22,0.01,3.33c0.03,0.63-0.35,0.54-0.72,0.53c-0.37,0-0.74,0.09-0.73-0.53
		c0.03-2.22,0.03-4.43,0-6.65c-0.01-0.62,0.35-0.53,0.73-0.53c0.37,0,0.75-0.1,0.73,0.53C187.18,60.24,187.21,61.35,187.21,62.46z"
		/>
	<path fill="#FFFFFF" d="M327.8,27.05c0-0.98,0.71-1.74,1.66-1.76c0.98-0.01,1.75,0.77,1.74,1.78c-0.01,0.96-0.77,1.72-1.72,1.71
		C328.54,28.79,327.81,28.03,327.8,27.05z"/>
	<path fill="#FFFFFF" d="M186.46,54.92c0.56,0.08,0.92,0.38,0.91,0.96c0,0.58-0.38,0.93-0.94,0.92c-0.52-0.01-0.86-0.34-0.87-0.89
		C185.57,55.33,185.88,54.99,186.46,54.92z"/>
	<path fill="#FFFFFF" d="M178.2,55.86c0.05-0.56,0.33-0.94,0.92-0.92c0.57,0.02,0.9,0.39,0.89,0.97c-0.01,0.54-0.36,0.87-0.88,0.89
		C178.56,56.8,178.23,56.46,178.2,55.86z"/>
	<path fill="#FFFFFF" d="M156.16,41.31c-1.37-2.1-2.73-4.21-4.13-6.3c-0.34-0.5-0.31-0.77,0.26-1.05c0.77-0.38,1.39-0.95,1.9-1.65
		c2.74-3.79,0.5-8.69-4.31-9.47c-2.13-0.34-4.25-0.13-6.37-0.01c-0.78,0.04-1.02,0.33-1.02,1.12c0.03,5.23,0.02,10.45,0.02,15.68
		c0,2.44,0,2.43,2.5,2.33c0.53-0.02,0.72-0.2,0.72-0.72c-0.02-1.34-0.01-2.69,0-4.03c0-2.08,0-2.06,2.12-2.08
		c0.6-0.01,0.95,0.17,1.25,0.7c1.06,1.81,2.17,3.6,3.28,5.39c0.19,0.31,0.32,0.72,0.8,0.72c1.07,0,2.14,0,3.37,0
		C156.34,41.61,156.26,41.45,156.16,41.31z M149.33,32.27c-0.97,0.27-1.96,0.22-2.95,0.18c-0.47-0.02-0.68-0.23-0.67-0.7
		c0.02-0.9,0-1.81,0-2.71c0-0.85,0.02-1.69-0.01-2.53c-0.02-0.58,0.19-0.88,0.8-0.86c0.76,0.02,1.52-0.05,2.27,0.02
		c1.66,0.14,2.92,1.3,3.05,2.75C152.01,30.42,151.14,31.77,149.33,32.27z"/>
	<path fill="#FFFFFF" d="M140.03,40.91c-2.67-5.9-5.33-11.81-8.01-17.71c-0.12-0.27-0.13-0.7-0.57-0.67
		c-0.4,0.03-0.43,0.43-0.56,0.71c-1.67,3.67-3.33,7.33-4.99,11c-1.05,2.31-2.08,4.63-3.15,6.94c-0.3,0.64-0.16,0.82,0.52,0.78
		c0.64-0.04,1.29-0.03,1.93,0c0.45,0.02,0.68-0.16,0.84-0.57c0.42-1.06,0.9-2.09,1.32-3.15c0.18-0.46,0.41-0.69,0.95-0.68
		c2.07,0.03,4.15,0.02,6.22,0c0.48,0,0.75,0.14,0.92,0.6c0.28,0.77,0.61,1.51,0.94,2.26c0.83,1.87,0.32,1.48,2.31,1.53
		c0.2,0,0.41,0,0.61,0C140.5,41.94,140.5,41.94,140.03,40.91z M133.59,34.95c-1.43,0-2.86,0-4.29,0c-0.32,0-0.51-0.09-0.35-0.47
		c0.8-1.89,1.59-3.79,2.48-5.91c0.9,2.14,1.71,4.07,2.52,5.99C134.09,34.93,133.83,34.95,133.59,34.95z"/>
	<path fill="#FFFFFF" d="M174.39,40.9c-2.66-5.88-5.31-11.75-7.97-17.63c-0.13-0.29-0.13-0.78-0.61-0.74
		c-0.43,0.04-0.45,0.49-0.59,0.79c-1.08,2.36-2.15,4.73-3.22,7.09c-1.61,3.56-3.21,7.13-4.84,10.69c-0.27,0.59-0.34,0.91,0.49,0.85
		c0.64-0.05,1.29-0.03,1.93,0c0.46,0.02,0.67-0.17,0.84-0.58c0.43-1.08,0.92-2.15,1.35-3.23c0.16-0.4,0.37-0.59,0.83-0.59
		c2.13,0.02,4.26,0.02,6.4,0c0.41,0,0.64,0.14,0.79,0.53c0.31,0.79,0.64,1.57,0.98,2.34c0.82,1.86,0.31,1.47,2.32,1.52
		c0.2,0,0.41,0,0.61,0C174.86,41.94,174.86,41.94,174.39,40.9z M167.94,34.95c-1.4,0-2.8-0.01-4.2,0c-0.57,0-0.53-0.26-0.36-0.66
		c0.78-1.82,1.54-3.65,2.41-5.73c0.89,2.12,1.69,4.02,2.5,5.92C168.44,34.86,168.27,34.95,167.94,34.95z"/>
	<path fill="#FFFFFF" d="M279.86,30.92c-2.75-1.12-5.93,0.1-7.15,2.81c-1.38,3.06-0.53,7.65,4.31,8.33
		c1.56,0.22,3.08-0.06,4.59-0.44c0.37-0.09,0.48-0.28,0.43-0.62c-0.04-0.29-0.12-0.57-0.14-0.86c-0.04-0.67-0.28-0.91-1.01-0.71
		c-1.21,0.34-2.45,0.55-3.71,0.23c-0.94-0.24-1.62-0.75-1.96-1.69c-0.17-0.47-0.1-0.71,0.47-0.7c1.05,0.02,2.1,0.01,3.15,0.01
		c0,0,0,0,0,0c1.08,0,2.16,0,3.24,0c0.32,0,0.67,0.01,0.71-0.45C283,34.55,282.39,31.95,279.86,30.92z M279.46,35.47
		c-0.61-0.03-1.23-0.01-1.84-0.01c-0.58,0-1.17-0.03-1.75,0.01c-0.62,0.05-0.77-0.18-0.6-0.75c0.32-1.08,1.29-1.84,2.39-1.84
		c1.17,0,2.07,0.69,2.4,1.81C280.23,35.26,280.07,35.5,279.46,35.47z"/>
	<path fill="#FFFFFF" d="M339.46,30.55c-3.53-0.03-5.97,2.33-5.99,5.79c-0.02,3.29,2.43,5.75,5.74,5.78
		c3.45,0.03,5.9-2.35,5.95-5.75C345.2,33.07,342.76,30.58,339.46,30.55z M342.18,36.93c-0.21,1.94-1.52,3.11-3.24,2.9
		c-1.56-0.18-2.53-1.56-2.52-3.56c0.01-2.17,1.24-3.53,3.09-3.44c0.06,0,0.12,0,0.17,0.01C341.38,33.03,342.42,34.73,342.18,36.93z"
		/>
	<path fill="#FFFFFF" d="M316.22,34.86c-0.1-2.42-1.3-3.73-3.68-4.2c-1.19-0.23-2.38-0.12-3.56,0.12c-1.57,0.31-1.58,0.35-1.24,1.95
		c0.1,0.47,0.27,0.6,0.76,0.48c1.01-0.26,2.04-0.49,3.11-0.21c1.07,0.28,1.62,0.96,1.68,2.06c0.03,0.57-0.07,0.85-0.7,0.56
		c-1.02-0.47-2.11-0.43-3.19-0.31c-1.73,0.19-3.04,1.54-3.13,3.14c-0.1,1.76,0.94,3.12,2.73,3.55c1.57,0.38,3,0.05,4.54-1.12
		c-0.31,1.07,0.18,1.13,0.8,1.1c0.44-0.02,0.88-0.02,1.31,0c0.45,0.02,0.62-0.16,0.62-0.61C316.24,39.18,316.31,37.01,316.22,34.86z
		 M312.76,39.66c-0.68,0.48-1.43,0.63-2.24,0.48c-0.92-0.17-1.43-0.7-1.45-1.48c-0.02-0.79,0.54-1.41,1.45-1.58
		c0.2-0.04,0.4-0.04,0.61-0.05c0.51-0.01,0.98,0.14,1.43,0.34C313.54,37.8,313.64,39.03,312.76,39.66z"/>
	<path fill="#FFFFFF" d="M370.05,34.86c-0.1-2.42-1.3-3.73-3.68-4.2c-1.19-0.23-2.38-0.12-3.56,0.11c-1.57,0.31-1.58,0.36-1.24,1.95
		c0.1,0.47,0.27,0.61,0.76,0.48c1.01-0.27,2.04-0.49,3.11-0.21c1.12,0.29,1.7,1.08,1.69,2.23c0,0.54-0.21,0.6-0.63,0.41
		c-1.05-0.47-2.16-0.46-3.27-0.34c-1.73,0.19-3.04,1.54-3.13,3.14c-0.1,1.76,0.94,3.12,2.73,3.55c1.57,0.38,3,0.06,4.46-1.06
		c-0.13,0.89,0.22,1.11,0.88,1.04c0.43-0.04,0.88-0.03,1.31-0.01c0.45,0.02,0.62-0.16,0.62-0.61
		C370.07,39.18,370.14,37.01,370.05,34.86z M366.78,39.51c-0.45,0.41-1.15,0.67-1.84,0.68c-0.47,0.01-0.93-0.07-1.34-0.31
		c-0.52-0.31-0.76-0.8-0.7-1.4c0.06-0.6,0.39-1.03,0.95-1.25c1.03-0.39,2.01-0.21,2.92,0.35C367.3,37.91,367.28,39.06,366.78,39.51z
		"/>
	<path fill="#FFFFFF" d="M139.69,65.65c0.01-4.06,0-8.12,0.02-12.18c0-0.56-0.18-0.68-0.69-0.67c-0.51,0.01-0.78,0.05-0.77,0.69
		c0.05,1.83,0.02,3.67,0.02,5.59c-2.29-1-3.89-0.8-5.17,0.58c-1.36,1.47-1.5,3.86-0.31,5.41c1.14,1.49,3.19,1.84,5.06,0.88
		c0.12-0.06,0.34-0.52,0.47,0.03c0.17,0.69,0.72,0.27,1.08,0.31C139.88,66.35,139.69,65.89,139.69,65.65z M137.62,64.81
		c-0.84,0.48-1.7,0.62-2.6,0.26c-1.1-0.45-1.55-1.37-1.6-2.49c-0.06-1.23,0.57-2.34,1.55-2.72c1.07-0.42,2.06-0.2,2.94,0.52
		c0.24,0.2,0.37,0.43,0.35,0.75c-0.02,0.47-0.01,0.93-0.01,1.49C138.15,63.32,138.61,64.25,137.62,64.81z"/>
	<path fill="#FFFFFF" d="M173.78,58.56c-1.23-0.34-2.35,0.01-3.55,0.63c0-1.98-0.02-3.82,0.01-5.66c0.01-0.58-0.17-0.72-0.73-0.73
		c-0.57,0-0.73,0.15-0.72,0.73c0.02,4.02,0.01,8.05,0.02,12.07c0,0.23-0.16,0.6,0.17,0.68c0.36,0.08,1.06,0.09,1.08-0.01
		c0.24-0.96,0.68-0.24,0.96-0.12c2.06,0.91,4.41-0.09,5.22-2.25C177.1,61.61,175.98,59.17,173.78,58.56z M173.75,64.9
		c-1.03,0.61-2.42,0.44-3.23-0.37c-0.17-0.17-0.29-0.35-0.29-0.61c0.01-0.99,0.02-1.98-0.01-2.97c-0.01-0.39,0.23-0.57,0.49-0.75
		c0.54-0.37,1.15-0.55,1.81-0.54c1.23,0.01,2.13,0.73,2.44,1.96C175.3,62.95,174.81,64.27,173.75,64.9z"/>
	<path fill="#FFFFFF" d="M166.86,65.53c0.03-1.37,0.04-2.74,0.01-4.11c-0.04-1.7-0.85-2.67-2.42-2.93c-0.99-0.16-1.97,0-2.94,0.22
		c-0.62,0.14-0.35,0.51-0.31,0.86c0.05,0.46,0.25,0.47,0.64,0.35c0.64-0.19,1.31-0.3,1.99-0.2c1.06,0.15,1.57,0.72,1.62,1.73
		c0.02,0.44-0.08,0.6-0.54,0.41c-0.74-0.3-1.53-0.34-2.32-0.27c-1.29,0.12-2.26,1.02-2.36,2.18c-0.11,1.27,0.64,2.27,1.95,2.62
		c1.18,0.31,2.24,0.01,3.21-0.69c0.19,0.63,0.41,0.72,1.13,0.64C167.13,66.25,166.85,65.8,166.86,65.53z M165.15,64.61
		c-0.48,0.45-1.05,0.71-1.73,0.68c-0.38,0-0.75-0.02-1.1-0.2c-0.49-0.25-0.72-0.65-0.7-1.2c0.03-0.51,0.26-0.89,0.74-1.08
		c1-0.39,1.95-0.17,2.83,0.35C165.59,63.41,165.55,64.23,165.15,64.61z"/>
	<path fill="#FFFFFF" d="M248.73,58.59c-2.06-0.62-4.09,0.46-4.7,2.5c-0.7,2.36,0.4,4.63,2.51,5.21c1.13,0.31,2.24,0.16,3.37-0.06
		c0.59-0.12,0.66-0.39,0.55-0.91c-0.12-0.59-0.44-0.45-0.82-0.34c-0.62,0.17-1.25,0.29-1.9,0.23c-1.3-0.13-2.09-0.75-2.4-1.82
		c-0.12-0.41-0.08-0.59,0.4-0.57c0.79,0.03,1.57,0.01,2.36,0.01c0.79,0,1.57,0,2.36,0c0.26,0,0.49,0.02,0.56-0.36
		C251.34,60.93,250.25,59.05,248.73,58.59z M249.01,61.77c-0.49-0.04-0.99-0.01-1.49-0.01c-0.56,0-1.11-0.04-1.66,0.01
		c-0.56,0.05-0.55-0.22-0.43-0.62c0.28-0.9,1.06-1.48,2.04-1.5c0.99-0.02,1.69,0.46,2.04,1.34
		C249.71,61.52,249.71,61.83,249.01,61.77z"/>
	<path fill="#FFFFFF" d="M201.3,58.57c-2.24-0.62-4.27,0.69-4.73,3.04c-0.49,2.53,1.01,4.61,3.5,4.86c0.88,0.09,1.73-0.09,2.6-0.26
		c0.62-0.12,0.52-0.46,0.45-0.89c-0.08-0.52-0.37-0.48-0.74-0.36c-0.88,0.27-1.76,0.38-2.67,0.13c-0.89-0.25-1.44-0.81-1.71-1.7
		c-0.13-0.42-0.05-0.58,0.41-0.56c0.79,0.03,1.57,0.01,2.36,0.01c0.79,0,1.57,0,2.36,0c0.26,0,0.48,0.01,0.56-0.37
		C204,60.87,202.87,59.01,201.3,58.57z M201.77,61.77c-0.58-0.04-1.17-0.01-1.75-0.01c-0.41,0-0.82,0-1.23,0
		c-0.91,0-0.97-0.1-0.58-0.91c0.42-0.86,1.23-1.3,2.24-1.18c0.91,0.1,1.48,0.63,1.77,1.48C202.37,61.56,202.31,61.8,201.77,61.77z"
		/>
	<path fill="#FFFFFF" d="M126.59,58.43c-2.26,0.02-3.91,1.74-3.9,4.06c0.01,2.3,1.69,4.01,3.95,4.01c2.27,0,3.93-1.7,3.94-4.01
		C130.58,60.12,128.9,58.41,126.59,58.43z M126.7,65.28c-1.52,0.03-2.56-1.11-2.57-2.8c-0.01-1.71,1.01-2.85,2.53-2.84
		c1.47,0.01,2.47,1.13,2.48,2.8C129.15,64.11,128.16,65.26,126.7,65.28z"/>
	<path fill="#FFFFFF" d="M117.16,58.43c-2.26,0.01-3.94,1.71-3.94,4.02c-0.01,2.35,1.7,4.07,4,4.05c2.26-0.02,3.9-1.74,3.89-4.06
		C121.1,60.11,119.43,58.42,117.16,58.43z M117.2,65.29c-1.51,0.01-2.54-1.14-2.53-2.84c0.01-1.71,1.03-2.83,2.57-2.81
		c1.46,0.02,2.45,1.17,2.44,2.84C119.67,64.14,118.67,65.27,117.2,65.29z"/>
	<path fill="#FFFFFF" d="M382.44,22.49c-2.42,0.02-4.43,2.09-4.44,4.6c-0.01,2.45,1.98,4.37,4.5,4.36c2.53-0.01,4.43-1.92,4.41-4.43
		C386.89,24.49,384.9,22.47,382.44,22.49z M382.5,30.72c-1.99,0-3.63-1.61-3.65-3.59c-0.02-2.09,1.67-3.9,3.67-3.9
		c1.92,0,3.5,1.72,3.51,3.83C386.05,29.13,384.51,30.72,382.5,30.72z"/>
	<path fill="#FFFFFF" d="M384.06,28.48c-0.36-0.51-0.62-0.95-0.01-1.49c0.26-0.23,0.28-0.63,0.21-0.99
		c-0.17-0.92-1.16-1.35-2.67-1.23c-1.02,0.08-0.53,0.84-0.63,1.32c-0.06,0.31-0.01,0.64-0.01,0.96c0,0.55,0,1.11,0,1.66
		c0,0.32,0.04,0.59,0.46,0.58c0.34-0.01,0.43-0.2,0.47-0.5c0.05-0.34-0.17-0.87,0.35-0.96c0.51-0.08,0.56,0.5,0.8,0.8
		c0.07,0.09,0.12,0.2,0.18,0.3c0.25,0.46,0.72,0.51,1.05,0.28C384.57,29,384.2,28.69,384.06,28.48z M382.37,26.97
		c-0.47,0.05-0.49-0.31-0.49-0.64c-0.01-0.38,0.01-0.72,0.53-0.68c0.41,0.03,0.78,0.16,0.79,0.63
		C383.22,26.82,382.78,26.92,382.37,26.97z"/>
</g>
</svg>
