<?xml version="1.0" encoding="utf-8"?>
<!-- Generator: Adobe Illustrator 23.0.1, SVG Export Plug-In . SVG Version: 6.00 Build 0)  -->
<svg version="1.1" id="Layer_1" xmlns="http://www.w3.org/2000/svg" xmlns:xlink="http://www.w3.org/1999/xlink" x="0px" y="0px"
	 viewBox="0 0 412.39 100" enable-background="new 0 0 412.39 100" xml:space="preserve">
<g>
	<path fill="#31649E" d="M50.2,57.93c10.49,2.59,20.59,6.16,29.68,12.15c2.54,1.67,4.87,3.6,6.63,6.14
		c1.85,2.67,2.04,5.53,0.38,7.57c-1.25,1.55-2.8,2.82-4.4,4.06c0.23-0.46,0.51-0.9,0.69-1.38c0.78-1.99,0.27-3.81-0.81-5.52
		c-1.69-2.68-4.12-4.58-6.73-6.27c-5.36-3.47-11.24-5.81-17.3-7.74c-0.36-0.11-0.7-0.25-1.05-0.38c-2.06-1.66-3.48-3.9-5.2-5.86
		c-0.61-0.7-1.11-1.51-1.98-1.96c-0.26-0.13-0.45-0.39-0.37-0.7C49.81,57.8,50.02,57.84,50.2,57.93z"/>
	<path fill="#3075AD" d="M60.49,31.63c-3.74-0.89-7.37-2.15-10.95-3.53c-6.22-2.39-12.21-5.23-17.72-9.03
		c-1.98-1.37-3.84-2.89-5.44-4.71c-0.56-0.64-1.04-1.32-1.44-2.07c-1.42-2.65-0.86-4.93,1.7-6.52c1.53-0.95,3.25-1.54,5.02-2.09
		c-0.1,0.06-0.22,0.11-0.31,0.18c-2.35,1.66-2.26,3.73-0.69,5.93c1.74,2.44,4.1,4.2,6.55,5.82c5.52,3.65,11.28,6.81,17.72,8.56
		c0.12,0.03,0.22,0.11,0.33,0.17c1.03,1.23,2.05,2.47,3.07,3.71c0.63,0.77,1.19,1.59,1.86,2.33C60.47,30.69,60.8,31.11,60.49,31.63z
		"/>
	<path fill="#324081" d="M36.46,61.48c-6.29-1.69-12.34-4.02-18.1-7.08c-4.16-2.2-8.07-4.77-11.34-8.21
		c-2.23-2.34-4.04-4.93-4.6-8.21c-0.2-1.19-0.24-2.39,0.09-3.53c0.62-2.12,1.52-4.14,2.49-6.29c0.2,0.56-0.02,0.93-0.08,1.29
		c-0.67,3.99,0.67,7.39,3.11,10.44c3.18,3.96,7.39,6.58,11.84,8.86c2.87,1.47,5.85,2.67,8.89,3.74c0.32,0.11,0.63,0.26,0.94,0.4
		c2.78,1.95,4.33,5,6.58,7.42C36.6,60.63,36.77,61.03,36.46,61.48z"/>
	<path fill="#323479" d="M49.56,99.99c2.33-0.71,2.55-1.48,0.83-3.2c-2.54-2.53-5.61-4.27-8.82-5.78
		c-5.72-2.7-11.79-4.28-17.92-5.67c-4.95-1.12-9.52-3.05-13.29-6.56c-3.34-3.11-5.63-6.89-7.12-11.18c0.21-0.14,0.23,0.05,0.29,0.12
		c0.06,0.07,0.08,0.17,0.13,0.25c3.91,7.02,9.81,11.36,17.64,13.07c5.06,1.11,10.19,1.93,15.08,3.75
		c6.45,2.41,12.49,5.58,18.07,9.62c0.91,0.66,1.75,1.42,2.39,2.37c0.79,1.18,0.53,2.08-0.79,2.6c-1.73,0.68-3.57,0.54-5.37,0.62
		C50.31,100.01,49.94,99.99,49.56,99.99z"/>
	<path fill="#323278" d="M246.85,32.18c-1.37,2.05-2.73,4.09-4.09,6.14c-0.57,0.86-1.14,1.72-1.7,2.59
		c-0.57,0.88-0.71,0.89-1.28,0.03c-1.79-2.68-3.57-5.36-5.36-8.04c-0.17-0.25-0.36-0.5-0.58-0.79c-0.33,0.36-0.23,0.75-0.24,1.1
		c-0.07,3.31-0.15,6.63-0.17,9.94c-0.01,0.77-0.31,0.93-1,0.93c-2.46,0-2.43,0.02-2.33-2.44c0.23-5.37,0.42-10.75,0.63-16.12
		c0.02-0.53,0.06-1.06,0.11-1.59c0.02-0.23-0.05-0.54,0.27-0.64c0.32-0.1,0.43,0.19,0.56,0.39c0.57,0.82,1.13,1.65,1.69,2.48
		c2.16,3.22,4.31,6.44,6.47,9.67c0.66,0.99,0.67,0.99,1.3,0.03c2.59-3.95,5.17-7.9,7.76-11.85c0.14-0.21,0.26-0.44,0.44-0.61
		c0.27-0.26,0.52-0.18,0.64,0.17c0.06,0.17,0.05,0.37,0.06,0.56c0.26,6.22,0.52,12.43,0.77,18.65c0.05,1.29,0.04,1.29-1.23,1.29
		c-2.07,0-2.11,0-2.19-2.07c-0.12-3.09-0.19-6.19-0.28-9.28c0-0.15-0.03-0.31-0.05-0.46C246.98,32.23,246.92,32.2,246.85,32.18z"/>
	<path fill="#325793" d="M36.28,42.32c-7.21-2.74-14.12-6.05-20.03-11.12c-2.24-1.92-4.22-4.1-5.19-6.98
		c-0.97-2.87-0.36-5.4,1.69-7.61c1.06-1.14,2.06-2.35,3.46-3.41c-0.42,1.03-0.96,1.82-1.14,2.76c-0.52,2.68,0.5,4.91,2.03,6.96
		c2.52,3.37,5.91,5.7,9.47,7.81c0.24,0.14,0.47,0.3,0.71,0.45c0.12,0.22,0.29,0.45,0.49,0.54c2.4,1.15,3.63,3.43,5.22,5.35
		c1.07,1.29,2.19,2.54,3.17,3.91C36.45,41.41,36.73,41.83,36.28,42.32z"/>
	<path fill="#323278" d="M206.3,37.87c0,1.22-0.01,2.44,0,3.66c0,0.4-0.06,0.72-0.44,0.96c-4.34,2.69-11.05,2.92-15.11-1.22
		c-3.05-3.11-3.74-6.88-2.39-10.93c1.31-3.93,4.24-6.16,8.26-6.92c2.96-0.56,5.77,0,8.44,1.4c0.62,0.33,0.94,0.63,0.43,1.33
		c-0.42,0.57-0.61,1.47-1.15,1.77c-0.55,0.3-1.17-0.5-1.8-0.74c-2.92-1.08-5.75-1.22-8.37,0.76c-2.4,1.82-3.36,5.71-2.2,8.7
		c1.19,3.09,4.11,4.92,7.37,4.67c1.03-0.08,2.04-0.22,3-0.65c0.42-0.19,0.63-0.44,0.61-0.92c-0.03-0.87-0.03-1.75,0-2.63
		c0.02-0.56-0.18-0.78-0.75-0.76c-1.12,0.03-2.25-0.01-3.38,0.02c-0.53,0.01-0.69-0.19-0.72-0.71c-0.14-2.32-0.15-2.32,2.12-2.33
		c1.69,0,3.38,0.03,5.06-0.01c0.75-0.02,1.07,0.18,1.03,0.99C206.25,35.49,206.3,36.68,206.3,37.87z"/>
	<path fill="#2C8AC0" d="M68.93,44.25c4.25,1.36,8.44,2.86,12.44,4.86c3.92,1.96,7.69,4.18,10.9,7.2c2.16,2.03,4.01,4.3,4.69,7.3
		c0.36,1.59,0.31,3.15-0.35,4.67c-0.64,1.48-1.18,3-2.1,4.37c0.1-1.18,0.26-2.34,0.06-3.51c-0.54-3.11-2.35-5.47-4.57-7.56
		c-3.01-2.84-6.56-4.86-10.27-6.62c-1.32-0.63-2.69-1.17-4.03-1.75c-2.58-2.33-4.51-5.21-6.68-7.88
		C68.75,45.01,68.56,44.64,68.93,44.25z"/>
	<path fill="#323278" d="M34.39,76.35c-5.4-1.21-10.72-2.69-15.85-4.79c-4.18-1.72-8.12-3.88-11.56-6.85
		c-3.6-3.11-6.24-6.83-6.86-11.68C-0.12,51,0.06,48.97,0.1,46.68c0.41,0.63,0.32,1.11,0.39,1.53c0.91,5.28,3.84,9.28,7.95,12.51
		c4.41,3.46,9.47,5.66,14.77,7.35c1.96,0.63,3.96,1.16,5.94,1.73c0.04,0.05,0.06,0.12,0.12,0.14c2.51,1.05,3.52,3.53,5.16,5.41
		C34.68,75.65,34.74,76.02,34.39,76.35z"/>
	<path fill="#323278" d="M209.83,30.99c0-2.16,0.02-4.32-0.01-6.47c-0.01-0.67,0.17-0.93,0.9-0.94c2.55-0.02,2.55-0.05,2.55,2.53
		c0,3.25,0,6.51,0.01,9.76c0,0.5,0.03,1,0.12,1.49c0.61,3.32,3.81,4.91,6.85,3.41c1.88-0.93,2.38-2.65,2.4-4.55
		c0.04-3.85,0.04-7.69,0-11.54c-0.01-0.86,0.23-1.12,1.1-1.1c2.36,0.05,2.36,0.01,2.36,2.37c0,3.57,0.03,7.13-0.01,10.7
		c-0.04,3.28-1.34,5.81-4.5,7.14c-3.18,1.35-7.59,0.64-9.74-1.57c-1.23-1.27-1.86-2.83-1.93-4.56c-0.09-2.22-0.02-4.44-0.02-6.66
		C209.87,30.99,209.85,30.99,209.83,30.99z"/>
	<path fill="#3173AB" d="M68.93,44.25c0.6,1.31,1.6,2.35,2.47,3.47c1.28,1.64,2.66,3.21,3.99,4.82c0.15,0.18,0.2,0.45,0.3,0.68
		c-6.85-2.64-13.95-4.29-21.16-5.59c-0.21-0.04-0.41-0.12-0.62-0.19c-1.43-0.47-2.19-1.71-3.03-2.79c-1.07-1.37-2.13-2.74-3.26-4.07
		c-0.23-0.27-0.53-0.44-0.77-0.68c-0.3-0.31-0.65-0.63-0.27-1.12c7.15,1.76,14.45,2.85,21.47,5.12C68.36,44,68.69,44.01,68.93,44.25
		z"/>
	<path fill="#323278" d="M123.52,44.44c-6.59,0-11.16-4.55-11.04-10.99c0.09-5.02,3.71-9.16,8.73-10.03
		c2.84-0.49,5.53-0.06,8.1,1.23c0.58,0.29,0.82,0.57,0.48,1.21c-0.34,0.63-0.41,1.56-0.92,1.9c-0.58,0.39-1.27-0.38-1.93-0.6
		c-2.77-0.91-5.46-1.06-7.98,0.69c-2.29,1.59-3.29,5.01-2.45,8.22c0.73,2.82,2.97,4.69,5.89,5.01c2.13,0.23,4.1-0.23,5.98-1.17
		c0.62-0.31,0.91-0.22,1.03,0.44c0.03,0.15,0.1,0.3,0.15,0.44c0.66,1.88,0.66,1.89-1.21,2.66C126.81,44.08,125.2,44.44,123.52,44.44
		z"/>
	<path fill="#325692" d="M36.46,61.48c-0.2-0.71-0.73-1.22-1.17-1.77c-1.53-1.91-3.21-3.7-4.57-5.74c-0.29-0.43-1.06-0.37-1.01-1.09
		c6.54,2.26,13.37,3.3,20.08,4.88c0.15,0.03,0.28,0.11,0.42,0.17c-0.27,0.09-0.3,0.27-0.05,0.37c1.25,0.49,1.84,1.64,2.64,2.57
		c1.41,1.66,2.79,3.35,4.17,5.03c0.15,0.19,0.23,0.44,0.34,0.66c-3.26-0.82-6.48-1.76-9.77-2.44C43.81,63.36,40.09,62.6,36.46,61.48
		z"/>
	<path fill="#325792" d="M52.43,76.49c5.83,2.27,11.44,4.98,16.52,8.69c1.49,1.09,2.87,2.32,3.97,3.82c1.91,2.64,1.3,4.96-1.67,6.28
		c-1.38,0.61-2.76,1.26-4.26,1.69c0.07-0.34,0.32-0.39,0.48-0.52c1.16-0.99,1.42-2.15,0.74-3.51c-0.94-1.88-2.56-3.12-4.17-4.36
		c-2.11-1.62-4.43-2.91-6.73-4.23c-1.51-1.27-2.78-2.76-3.97-4.33c-0.55-0.72-1.06-1.47-1.69-2.12c-0.3-0.31-0.38-0.72-0.19-1.13
		C51.67,76.3,52.06,76.42,52.43,76.49z"/>
	<path fill="#249DD4" d="M75,29c7.9,2.22,15,5.94,21.04,11.52c3.19,2.95,4.4,6.72,3.97,11.04c-0.1,0.96-0.11,1.93-0.18,3.08
		c-0.11-0.25-0.19-0.35-0.2-0.45c-0.7-5.41-3.95-9.1-8.19-12.12c-3.28-2.34-6.92-3.97-10.69-5.33c-0.26-0.09-0.52-0.21-0.77-0.31
		c-2.12-1.72-3.58-4.01-5.28-6.09C74.22,29.75,74.37,29.3,75,29z"/>
	<path fill="#31629C" d="M46.6,38.79c0.22,0.94,1.15,1.27,1.71,1.92c1.59,1.84,2.92,3.89,4.58,5.66c0.34,0.36,0.68,0.72,1.02,1.07
		c-2.65-0.4-5.22-1.14-7.8-1.86c-3.33-0.92-6.63-1.98-9.84-3.26c-0.13-1.11-1.02-1.76-1.63-2.55c-1.55-2.02-3.17-3.99-4.79-5.96
		c-0.51-0.62-1.08-1.21-1.8-1.62c-0.4-0.23-0.67-0.55-0.78-1c5.74,3.23,11.9,5.38,18.19,7.21C45.85,38.51,46.26,38.53,46.6,38.79z"
		/>
	<path fill="#324685" d="M52.43,76.49c-0.91,0.33-0.96,0.61-0.3,1.35c1.71,1.91,3.1,4.1,4.94,5.91c0.14,0.14,0.16,0.39,0.23,0.59
		c-6.93-3.83-14.5-5.85-22.11-7.76c-0.27-0.07-0.54-0.16-0.8-0.24c-0.19-0.96-0.89-1.62-1.49-2.29c-1.18-1.32-1.99-3.01-3.62-3.93
		c-0.08-0.05-0.1-0.22-0.15-0.33c5.05,1.09,10.13,2.07,15.04,3.7C46.96,74.42,49.76,75.28,52.43,76.49z"/>
	<path fill="#2B8DC3" d="M75,29c-0.43,0.47-0.15,0.88,0.15,1.25c1.39,1.73,2.79,3.43,4.18,5.16c0.25,0.31,0.44,0.68,0.65,1.02
		c-3.51-1.09-7.04-2.1-10.65-2.82c-2.96-0.6-5.94-1.11-8.85-1.98c-1.55-2.25-3.35-4.3-5.04-6.43c-0.18-0.23-0.76-0.44-0.2-0.86
		c3.81,1.18,7.75,1.72,11.62,2.62C69.59,27.6,72.35,28.09,75,29z"/>
	<path fill="#2B8BC1" d="M60.3,16.43c-5.85-2.32-11.44-5.09-16.32-9.14c-0.99-0.82-1.87-1.75-2.54-2.86
		c-1.04-1.72-0.55-3.08,1.34-3.76c2.19-0.79,4.48-0.61,6.75-0.68c-0.58,0.13-1.14,0.26-1.69,0.46c-1.54,0.56-1.87,1.56-0.89,2.89
		c0.91,1.25,2.15,2.17,3.36,3.1c2.3,1.77,4.86,3.14,7.38,4.56c-0.01,0.92,0.61,1.51,1.14,2.14c0.54,0.64,1.08,1.27,1.54,1.97
		C60.65,15.56,60.81,16.01,60.3,16.43z"/>
	<path fill="#EB8463" d="M159.97,50.49c-15.64,0-31.28,0-46.91,0c-0.28,0-0.56,0-0.84-0.01c-0.32-0.01-0.31-0.24-0.3-0.47
		c0.01-0.23-0.08-0.54,0.3-0.56c0.25-0.02,0.5-0.01,0.75-0.01c31.34,0,62.68,0,94.02,0.02c0.36,0,1.01-0.38,1.06,0.46
		c0.02,0.37-0.06,0.61-0.5,0.57c-0.25-0.02-0.5,0-0.75,0C191.19,50.49,175.58,50.49,159.97,50.49z"/>
	<path fill="#323278" d="M375.07,33.87c0.68-0.51,1.23-1.02,1.9-1.36c0.94-0.48,1.92-0.73,2.98-0.65c1.96,0.15,3.33,1.55,3.37,3.59
		c0.05,2.62,0,5.25,0.03,7.87c0.01,0.58-0.22,0.73-0.77,0.75c-2.43,0.07-2.43,0.09-2.43-2.36c0-1.72,0.01-3.44-0.01-5.15
		c-0.02-1.67-0.99-2.39-2.59-1.96c-0.84,0.22-1.52,0.7-2.16,1.27c-0.33,0.29-0.31,0.66-0.31,1.03c0,2.09-0.03,4.19,0.01,6.28
		c0.01,0.71-0.22,0.9-0.91,0.9c-2.3,0-2.3,0.03-2.3-2.22c0-2.97,0.02-5.94-0.01-8.9c-0.01-0.7,0.22-0.99,0.91-0.89
		c0.03,0,0.06,0,0.09,0C374.73,32.04,374.73,32.04,375.07,33.87z"/>
	<path fill="#323278" d="M271.08,33.87c0.68-0.5,1.23-1.02,1.9-1.36c0.85-0.42,1.73-0.69,2.69-0.66c2.13,0.06,3.61,1.45,3.65,3.59
		c0.05,2.62,0,5.25,0.03,7.87c0.01,0.58-0.22,0.73-0.77,0.75c-2.43,0.07-2.43,0.09-2.43-2.36c0-1.72,0.01-3.44-0.01-5.15
		c-0.02-1.67-0.99-2.39-2.59-1.96c-0.84,0.22-1.52,0.7-2.16,1.27c-0.33,0.29-0.31,0.66-0.31,1.03c0,2.09-0.03,4.19,0.01,6.28
		c0.01,0.7-0.22,0.9-0.91,0.9c-2.3,0-2.3,0.03-2.3-2.31c0-2.94,0.02-5.87-0.01-8.81c-0.01-0.7,0.22-0.99,0.91-0.89
		c0.03,0,0.06,0,0.09,0C270.74,32.04,270.74,32.04,271.08,33.87z"/>
	<path fill="#323278" d="M317.45,33.88c0.67-0.52,1.23-1.02,1.9-1.37c0.94-0.48,1.92-0.73,2.98-0.65c1.89,0.14,3.28,1.46,3.34,3.41
		c0.08,2.72,0.02,5.44,0.04,8.15c0,0.5-0.22,0.62-0.68,0.64c-2.52,0.15-2.52,0.16-2.52-2.36c0-1.72,0.01-3.44-0.01-5.15
		c-0.02-1.66-1-2.38-2.6-1.95c-0.84,0.23-1.52,0.7-2.16,1.27c-0.33,0.29-0.3,0.66-0.3,1.03c0,2.09-0.03,4.19,0.01,6.28
		c0.01,0.72-0.23,0.89-0.92,0.89c-2.29,0-2.29,0.03-2.29-2.22c0-2.94,0.03-5.87-0.02-8.81c-0.01-0.79,0.25-1.01,1.01-0.99
		C317.09,32.08,317.09,32.04,317.45,33.88z"/>
	<path fill="#20A8E0" d="M72.14,16.08c2.64,0.56,5.29,1.06,7.9,1.71c7.41,1.82,12.88,6.08,16.19,13.01
		c0.68,1.43,1.17,2.94,1.47,4.52c-0.28-0.55-0.53-1.12-0.83-1.66c-2.73-5.01-6.99-8.18-12.2-10.26c-3.03-1.21-6.2-1.86-9.38-2.48
		c-1.41-1.16-2.46-2.63-3.58-4.04C71.38,16.42,71.55,16.18,72.14,16.08z"/>
	<path fill="#323278" d="M264.7,33.92c0,3.06-0.02,6.13,0.02,9.19c0.01,0.73-0.2,0.96-0.95,0.96c-2.5-0.01-2.5,0.02-2.5-2.51
		c0-5.6,0.02-11.2-0.02-16.79c-0.01-0.96,0.27-1.22,1.21-1.2c2.24,0.06,2.25,0.02,2.25,2.28C264.7,28.54,264.7,31.23,264.7,33.92z"
		/>
	<path fill="#F68A67" d="M64.86,2.24c-0.44,0.18-0.92-0.05-1.05,0.44c-0.14,0.52,0.25,0.8,0.59,1.08c3.64,2.97,7.77,4.92,12.34,5.94
		c1.52,0.34,3.01,0.77,4.5,1.22c0.94,0.29,1.74,0.83,2.46,1.49c1.06,0.96,1.89,2.11,2.78,3.21c-2.77-2.56-6.34-2.88-9.78-3.7
		c-5.74-1.36-11.14-3.58-15.83-7.26C60,3.98,59.2,3.22,58.5,2.38c-0.47-0.56-0.28-1.19,0.41-1.25C60.95,0.93,62.91,1.26,64.86,2.24z
		"/>
	<path fill="#323277" d="M345.41,28.1c0,1.1,0.05,2-0.01,2.89c-0.05,0.8,0.16,1.17,1.03,1.06c0.55-0.07,1.12,0.01,1.68-0.02
		c0.49-0.02,0.63,0.2,0.66,0.67c0.13,1.93,0.14,1.92-1.75,1.93c-1.84,0.01-1.58-0.19-1.6,1.59c-0.01,1.28-0.02,2.56,0,3.84
		c0.02,1.14,0.49,1.56,1.64,1.53c0.89-0.03,1.11,0.3,1.28,1.78c0.09,0.8-0.55,0.58-0.93,0.71c-0.12,0.04-0.24,0.05-0.37,0.07
		c-3.05,0.5-4.68-0.82-4.78-3.91c-0.05-1.47-0.06-2.94,0.01-4.4c0.04-0.91-0.19-1.38-1.18-1.21c-0.15,0.03-0.31,0.01-0.47,0
		c-0.21-0.01-0.48,0.04-0.57-0.22c-0.09-0.25,0.12-0.4,0.27-0.55c0.3-0.31,0.59-0.65,0.93-0.92c0.72-0.59,1.15-1.28,1-2.26
		c-0.04-0.27-0.06-0.58,0.23-0.76C343.4,29.35,344.32,28.78,345.41,28.1z"/>
	<path fill="#323277" d="M286.29,28.11c0,1.18,0.03,2.15-0.01,3.11c-0.02,0.59,0.15,0.88,0.79,0.82c0.47-0.04,0.94,0.05,1.4-0.02
		c0.97-0.14,1.24,0.26,1.19,1.2c-0.07,1.41-0.02,1.41-1.44,1.41c-1.93,0-1.93,0-1.93,1.92c0,1.19-0.02,2.37,0.01,3.56
		c0.02,1.05,0.49,1.57,1.5,1.45c0.82-0.09,1.07,0.19,1.23,0.94c0.29,1.41,0.33,1.4-1.06,1.64c-0.62,0.11-1.25,0.14-1.87,0.05
		c-1.65-0.23-2.53-1.1-2.82-2.79c-0.32-1.83-0.1-3.68-0.15-5.52c-0.03-1.24-0.01-1.23-1.21-1.26c-0.33-0.01-0.78,0.17-0.95-0.18
		c-0.2-0.43,0.31-0.61,0.54-0.88c0.26-0.31,0.55-0.61,0.86-0.86c0.58-0.47,0.88-1.03,0.76-1.79c-0.1-0.64,0.18-1.04,0.74-1.35
		C284.63,29.17,285.35,28.68,286.29,28.11z"/>
	<path fill="#323277" d="M402.25,33.82c0,3.09-0.02,6.18,0.01,9.28c0.01,0.7-0.16,0.99-0.93,0.98c-2.24-0.02-2.24,0.02-2.24-2.18
		c0-5.72,0.02-11.43-0.02-17.15c-0.01-0.87,0.18-1.2,1.12-1.17c2.06,0.07,2.06,0.01,2.06,2.09
		C402.25,28.38,402.25,31.1,402.25,33.82z"/>
	<path fill="#2797CD" d="M72.14,16.08c-0.55,0.24-0.18,0.47,0.01,0.69c0.77,0.9,1.53,1.8,2.31,2.69c0.37,0.43,0.63,0.93,0.85,1.44
		c-4.56-0.79-8.95-2.17-13.28-3.78c-0.58-0.22-1.15-0.47-1.73-0.7c0.03-1.31-1.1-1.94-1.71-2.87c-0.32-0.49-0.75-0.91-1.13-1.36
		c-0.4-0.48-0.4-0.88,0.21-1.19c4.44,2.24,9.06,3.96,13.96,4.88C71.82,15.93,72.01,15.91,72.14,16.08z"/>
	<path fill="#323278" d="M308.19,33.86c0.94-0.97,1.85-1.69,3.07-1.92c0.99-0.18,1.12-0.12,1.11,0.85
		c-0.01,0.68,0.27,1.52-0.12,2.01c-0.37,0.46-1.23,0.12-1.86,0.25c-1.45,0.3-2.28,0.64-2.17,2.41c0.12,1.93,0.01,3.87,0.04,5.81
		c0.01,0.61-0.2,0.79-0.81,0.81c-2.39,0.05-2.39,0.07-2.39-2.3c0-2.93,0.02-5.87-0.01-8.8c-0.01-0.69,0.19-1,0.9-0.9
		c0.15,0.02,0.31,0,0.47,0C308.02,32.06,308.02,32.06,308.19,33.86z"/>
	<path fill="#F68A67" d="M271.99,63c2.36-1.72,4.2-1.82,5.39,0.1c0.91-0.88,1.98-1.4,3.27-1.41c1.54-0.01,2.53,0.8,2.6,2.34
		c0.09,1.87,0.02,3.75,0.04,5.63c0.01,0.74-0.53,0.42-0.86,0.47c-0.42,0.07-0.7,0-0.69-0.56c0.03-1.5,0.02-3,0.01-4.5
		c-0.01-1.48-0.47-2.07-1.58-2.06c-1.35,0.01-2.52,1.02-2.52,2.18c0,1.38-0.03,2.75,0.01,4.13c0.02,0.63-0.12,0.86-0.81,0.85
		c-0.65-0.01-0.77-0.24-0.75-0.81c0.04-1.41,0.02-2.81,0.01-4.22c-0.02-1.58-0.46-2.15-1.61-2.12c-1.34,0.03-2.46,1.05-2.46,2.25
		c0,1.41-0.04,2.82,0.02,4.22c0.03,0.68-0.32,0.65-0.8,0.67c-0.52,0.01-0.78-0.05-0.77-0.69c0.04-2.19,0-4.38,0.03-6.57
		c0.01-0.4-0.35-1.02,0.58-1.05C271.95,61.83,272.14,62.16,271.99,63z"/>
	<path fill="#F58A67" d="M160.74,55.5c0.95,0.01,1.83,0.27,2.7,0.67c0.57,0.26,0.43,0.56,0.19,0.94c-0.22,0.36-0.3,0.84-0.92,0.43
		c-0.75-0.5-1.62-0.63-2.52-0.54c-1.11,0.1-1.93,0.74-2.21,1.73c-0.26,0.91,0.07,1.75,0.99,2.43c0.96,0.71,2.12,1.05,3.13,1.67
		c0.92,0.57,1.74,1.22,2.02,2.35c0.59,2.46-1.03,4.78-3.64,5.12c-1.58,0.21-3.02-0.23-4.39-1.03c-0.69-0.4-0.13-0.72,0.01-1.05
		c0.14-0.36,0.3-0.65,0.81-0.31c0.95,0.63,2,1.02,3.17,0.96c1.24-0.06,2.07-0.65,2.4-1.73c0.35-1.13,0.02-2.18-1.04-2.84
		c-1.01-0.62-2.1-1.09-3.12-1.69c-1.07-0.62-1.85-1.48-1.93-2.81C156.23,57.34,158.1,55.5,160.74,55.5z"/>
	<path fill="#F58A67" d="M233.61,70.34c-1.25-0.02-2.37-0.43-3.47-1c-0.69-0.36-0.31-0.71-0.11-1.11c0.21-0.41,0.38-0.64,0.9-0.29
		c0.98,0.65,2.07,1.02,3.28,0.92c1.15-0.09,1.96-0.72,2.26-1.79c0.3-1.07-0.04-2.04-0.96-2.72c-0.99-0.73-2.19-1.06-3.22-1.71
		c-1.07-0.68-1.89-1.53-1.95-2.9c-0.12-2.67,2.2-4.6,5.09-4.19c0.56,0.08,1.08,0.27,1.62,0.46c0.77,0.27,0.93,0.64,0.45,1.35
		c-0.26,0.38-0.43,0.42-0.8,0.19c-0.83-0.5-1.75-0.67-2.71-0.53c-1.01,0.15-1.74,0.67-2.03,1.69c-0.29,1,0.09,1.77,0.88,2.38
		c0.8,0.62,1.76,0.94,2.63,1.41c1.13,0.62,2.25,1.26,2.6,2.66C238.76,67.93,236.67,70.36,233.61,70.34z"/>
	<path fill="#F58A67" d="M19.97,88.86c3.85,0.37,7.44,1.69,10.92,3.33c2.8,1.31,5.51,2.79,7.9,4.79c0.42,0.35,1.21,0.7,0.9,1.34
		c-0.3,0.62-1.07,0.26-1.64,0.18c-1.24-0.19-2.42-0.57-3.6-1c-0.12-0.04-0.8-0.01-0.2-0.49c0.24-0.2-0.16-0.41-0.31-0.55
		c-0.92-0.9-2.02-1.57-3.14-2.18c-2.93-1.61-5.95-3.02-9.26-3.67c-0.85-0.17-1.6-0.41-2.27-0.92c-0.19-0.15-0.49-0.31-0.42-0.57
		c0.09-0.36,0.46-0.2,0.72-0.24C19.69,88.85,19.82,88.86,19.97,88.86z"/>
	<path fill="#F68A67" d="M112.26,62.92c0-2.16,0.02-4.31-0.01-6.47c-0.01-0.63,0.19-0.78,0.79-0.77c2.31,0.03,4.63,0.02,6.94,0
		c0.52,0,0.79,0.05,0.77,0.7c-0.02,0.58-0.18,0.75-0.75,0.74c-1.81-0.03-3.63,0.01-5.44-0.02c-0.62-0.01-0.8,0.17-0.78,0.79
		c0.04,1.25,0.04,2.5,0,3.75c-0.02,0.58,0.15,0.75,0.73,0.74c1.59-0.04,3.19,0.01,4.78-0.03c0.59-0.02,0.72,0.17,0.74,0.73
		c0.02,0.64-0.25,0.7-0.77,0.69c-1.53-0.03-3.06,0.02-4.59-0.03c-0.67-0.02-0.92,0.11-0.89,0.85c0.06,1.62-0.01,3.25,0.04,4.88
		c0.02,0.65-0.27,0.69-0.78,0.68c-0.49-0.01-0.8-0.01-0.79-0.67C112.29,67.3,112.26,65.11,112.26,62.92z"/>
	<path fill="#323278" d="M354.23,38.17c0,1.68-0.03,3.37,0.01,5.05c0.02,0.66-0.22,0.84-0.86,0.85c-2.34,0.02-2.34,0.04-2.34-2.26
		c0-2.9,0.02-5.8-0.01-8.7c-0.01-0.71,0.22-0.9,0.91-0.9c2.3,0,2.3-0.03,2.3,2.21C354.23,35.67,354.23,36.92,354.23,38.17z"/>
	<path fill="#F58A67" d="M239.06,61.94c1.63-0.14,1.63-0.14,2.23,1.26c0.63,1.46,1.25,2.92,1.91,4.46c0.41-0.46,0.53-0.99,0.74-1.48
		c0.43-1,0.85-2.01,1.27-3.02c0.56-1.36,0.56-1.36,2.2-1.21c-1.02,2.2-2.02,4.37-3.03,6.54c-0.75,1.61-1.58,3.19-2.24,4.84
		c-0.4,0.98-0.92,1.41-2.06,1.03c0.65-1.34,1.27-2.73,1.99-4.05c0.36-0.65,0.34-1.17,0.02-1.82c-0.95-1.93-1.83-3.89-2.73-5.85
		C239.23,62.41,239.15,62.18,239.06,61.94z"/>
	<path fill="#F68A67" d="M206.5,63.22c-1.22,0-2.43-0.02-3.63,0.01c-0.52,0.01-0.7-0.13-0.7-0.67c0-0.52,0.13-0.7,0.68-0.69
		c1.81,0.03,3.63,0.01,5.44,0.02c0.23,0,0.55-0.14,0.69,0.12c0.14,0.26-0.14,0.45-0.28,0.64c-1.28,1.77-2.57,3.54-3.86,5.3
		c-0.16,0.22-0.31,0.45-0.59,0.85c1.4,0,2.66,0.02,3.92-0.01c0.54-0.01,0.84,0.05,0.84,0.73c0,0.73-0.42,0.61-0.85,0.61
		c-1.84,0-3.69,0-5.53,0c-0.24,0-0.56,0.12-0.7-0.11c-0.18-0.31,0.17-0.5,0.32-0.7c1.25-1.75,2.53-3.49,3.79-5.23
		C206.22,63.86,206.49,63.66,206.5,63.22z"/>
	<path fill="#F58A67" d="M251.25,61.7c0.57-0.01,1.13,0.11,1.62,0.38c0.26,0.15,0.96,0.06,0.61,0.74c-0.24,0.48-0.43,1-1.13,0.47
		c-0.46-0.35-1.06-0.36-1.62-0.27c-0.46,0.08-0.81,0.31-0.9,0.82c-0.08,0.48,0.17,0.78,0.56,0.98c0.59,0.29,1.2,0.53,1.78,0.82
		c1.25,0.62,1.68,1.35,1.5,2.5c-0.18,1.13-1.07,2-2.28,2.16c-1.1,0.15-2.1-0.16-3.03-0.73c-0.34-0.21-0.44-0.44-0.14-0.73
		c0.24-0.24,0.29-0.87,0.89-0.42c0.62,0.46,1.31,0.71,2.1,0.61c0.55-0.07,0.95-0.33,1.07-0.89c0.12-0.53-0.14-0.92-0.59-1.16
		c-0.49-0.26-1.01-0.48-1.52-0.71c-1.46-0.66-2.01-1.47-1.75-2.6C248.69,62.47,249.81,61.69,251.25,61.7z"/>
	<path fill="#F58A67" d="M287.28,70.33c-0.56-0.01-1.37-0.3-2.14-0.76c-0.34-0.21-0.43-0.44-0.14-0.73c0.24-0.24,0.3-0.86,0.89-0.41
		c0.62,0.46,1.31,0.71,2.1,0.61c0.55-0.07,0.94-0.34,1.07-0.89c0.12-0.53-0.15-0.92-0.6-1.15c-0.61-0.31-1.25-0.56-1.86-0.86
		c-1.09-0.54-1.53-1.22-1.44-2.18c0.09-0.99,0.79-1.78,1.86-2.11c1.05-0.32,2.03-0.07,2.99,0.38c0.38,0.18,0.48,0.38,0.2,0.69
		c-0.22,0.25-0.2,0.91-0.83,0.51c-0.48-0.31-1.02-0.46-1.6-0.42c-0.54,0.03-1,0.19-1.15,0.77c-0.16,0.61,0.22,0.92,0.71,1.15
		c0.48,0.22,0.97,0.42,1.45,0.65c1.45,0.7,1.92,1.51,1.63,2.77C290.14,69.55,289.03,70.35,287.28,70.33z"/>
	<path fill="#F68A67" d="M254.73,63.17c0.19-0.52,0.6-0.73,0.87-1.05c0.17-0.21,0.48-0.37,0.42-0.69c-0.24-1.17,0.51-1.68,1.46-2.13
		c0.19,0.66,0.08,1.33,0.07,1.98c-0.01,0.5,0.15,0.67,0.64,0.62c0.34-0.03,0.69,0,1.03-0.01c0.45-0.02,0.81-0.05,0.82,0.64
		c0.01,0.72-0.34,0.71-0.85,0.71c-1.62,0-1.62,0.01-1.62,1.59c0,0.94-0.01,1.87,0,2.81c0.01,1.02,0.29,1.33,1.34,1.35
		c0.49,0.01,0.71,0.08,0.76,0.63c0.06,0.62-0.29,0.66-0.72,0.71c-1.89,0.23-2.86-0.57-2.91-2.46c-0.03-1.12-0.01-2.25-0.01-3.37
		C256.03,63.27,256.04,63.27,254.73,63.17z"/>
	<path fill="#F68A67" d="M168.22,59.21c0,0.77,0.03,1.41-0.01,2.05c-0.03,0.48,0.1,0.7,0.62,0.64c0.34-0.04,0.69-0.01,1.03-0.01
		c0.43,0,0.83-0.1,0.84,0.62c0,0.69-0.3,0.73-0.84,0.73c-1.64-0.01-1.64,0.01-1.64,1.66c0,0.9-0.01,1.81,0,2.71
		c0.01,1.03,0.29,1.37,1.32,1.36c0.57-0.01,0.75,0.15,0.78,0.72c0.04,0.67-0.42,0.59-0.8,0.63c-1.9,0.2-2.79-0.6-2.83-2.54
		c-0.02-1-0.01-2-0.01-2.99c0-1.43,0-1.43-1.47-1.9c0.36-0.27,0.74-0.54,1.09-0.83c0.21-0.18,0.45-0.39,0.38-0.71
		C166.42,60.13,167.31,59.76,168.22,59.21z"/>
	<path fill="#F68A68" d="M194.85,62.92c0-2.16,0.02-4.31-0.01-6.47c-0.01-0.62,0.17-0.79,0.78-0.78c0.6,0,0.79,0.15,0.78,0.78
		c-0.03,4.31-0.03,8.63,0,12.94c0,0.61-0.16,0.79-0.77,0.78c-0.6-0.01-0.8-0.15-0.79-0.78C194.87,67.24,194.85,65.08,194.85,62.92z"
		/>
	<path fill="#F68A67" d="M221.37,63.08c0.66-0.62,1.26-1.12,2.05-1.26c0.3-0.05,0.82-0.44,0.85,0.23c0.02,0.41,0.44,1.14-0.51,1.2
		c-0.25,0.02-0.49,0.09-0.73,0.15c-1.27,0.35-1.65,0.86-1.65,2.19c0,1.31-0.04,2.62,0.02,3.93c0.03,0.74-0.41,0.59-0.83,0.62
		c-0.46,0.03-0.74-0.01-0.73-0.62c0.04-2.28,0.03-4.56,0.01-6.84c0-0.53,0.03-0.84,0.72-0.83c0.69,0,0.87,0.25,0.78,0.86
		C221.33,62.78,221.35,62.84,221.37,63.08z"/>
	<path fill="#F68A68" d="M192.44,66c0,1.19-0.04,2.37,0.01,3.56c0.03,0.65-0.33,0.61-0.76,0.59c-0.38-0.02-0.81,0.14-0.8-0.55
		c0.03-2.37,0.04-4.75,0-7.12c-0.01-0.75,0.45-0.55,0.86-0.6c0.5-0.05,0.72,0.08,0.7,0.65C192.41,63.68,192.44,64.84,192.44,66z"/>
	<path fill="#F68A68" d="M200.32,66.02c0,1.19-0.03,2.37,0.01,3.56c0.03,0.67-0.37,0.57-0.78,0.57c-0.4,0-0.79,0.1-0.78-0.57
		c0.03-2.37,0.03-4.75,0-7.12c-0.01-0.67,0.38-0.57,0.78-0.57c0.4,0,0.8-0.1,0.78,0.57C200.28,63.64,200.32,64.83,200.32,66.02z"/>
	<path fill="#323277" d="M350.83,28.11c0-1.05,0.76-1.86,1.78-1.88c1.05-0.02,1.87,0.83,1.86,1.91c-0.02,1.03-0.82,1.84-1.84,1.83
		C351.61,29.97,350.83,29.16,350.83,28.11z"/>
	<path fill="#F08765" d="M199.52,57.94c0.59,0.08,0.98,0.41,0.98,1.02c0,0.62-0.4,0.99-1,0.98c-0.55-0.01-0.92-0.36-0.93-0.95
		C198.56,58.38,198.89,58.02,199.52,57.94z"/>
	<path fill="#F08765" d="M190.67,58.95c0.06-0.59,0.35-1.01,0.99-0.99c0.61,0.02,0.97,0.42,0.95,1.03
		c-0.01,0.58-0.39,0.94-0.94,0.95C191.06,59.96,190.71,59.59,190.67,58.95z"/>
	<path fill="#323278" d="M167.08,43.37c-1.47-2.25-2.93-4.51-4.42-6.74c-0.36-0.54-0.33-0.83,0.28-1.13
		c0.82-0.41,1.49-1.02,2.03-1.77c2.93-4.06,0.54-9.31-4.62-10.14c-2.28-0.37-4.55-0.14-6.82-0.01c-0.83,0.05-1.1,0.35-1.09,1.2
		c0.04,5.59,0.02,11.19,0.02,16.79c0,2.62,0,2.6,2.68,2.49c0.56-0.02,0.78-0.21,0.77-0.77c-0.02-1.44-0.01-2.88-0.01-4.31
		c0-2.23,0-2.21,2.27-2.23c0.64-0.01,1.01,0.19,1.34,0.75c1.13,1.94,2.32,3.85,3.51,5.77c0.2,0.33,0.34,0.77,0.85,0.77
		c1.15,0,2.29,0,3.6,0C167.27,43.69,167.18,43.53,167.08,43.37z M159.77,33.69c-1.04,0.29-2.1,0.24-3.16,0.2
		c-0.51-0.02-0.73-0.24-0.72-0.75c0.02-0.97,0-1.93,0-2.9c0-0.9,0.02-1.81-0.01-2.71c-0.02-0.62,0.2-0.94,0.85-0.92
		c0.81,0.02,1.63-0.05,2.43,0.02c1.77,0.15,3.12,1.39,3.26,2.94C162.63,31.72,161.7,33.16,159.77,33.69z"/>
	<path fill="#323278" d="M149.81,42.94c-2.86-6.32-5.71-12.64-8.57-18.96c-0.13-0.29-0.14-0.75-0.61-0.72
		c-0.43,0.03-0.46,0.46-0.6,0.76c-1.79,3.92-3.56,7.85-5.34,11.78c-1.12,2.48-2.22,4.96-3.37,7.42c-0.32,0.68-0.17,0.88,0.55,0.84
		c0.69-0.04,1.38-0.03,2.06,0c0.48,0.02,0.73-0.17,0.9-0.61c0.45-1.13,0.96-2.24,1.41-3.37c0.19-0.49,0.44-0.74,1.02-0.73
		c2.22,0.03,4.44,0.03,6.66,0c0.51-0.01,0.8,0.15,0.99,0.64c0.3,0.82,0.66,1.62,1.01,2.42c0.88,2,0.34,1.58,2.48,1.64
		c0.22,0,0.44,0,0.66,0C150.31,44.05,150.31,44.05,149.81,42.94z M142.91,36.57c-1.53,0-3.06,0-4.59,0c-0.34,0-0.55-0.1-0.38-0.51
		c0.86-2.03,1.7-4.06,2.65-6.32c0.96,2.29,1.83,4.35,2.69,6.42C143.45,36.54,143.18,36.56,142.91,36.57z"/>
	<path fill="#323278" d="M186.6,42.93c-2.84-6.29-5.68-12.58-8.53-18.87c-0.14-0.31-0.14-0.84-0.65-0.79
		c-0.46,0.04-0.48,0.52-0.63,0.85c-1.16,2.53-2.3,5.06-3.45,7.59c-1.72,3.81-3.44,7.63-5.18,11.44c-0.29,0.63-0.37,0.98,0.52,0.91
		c0.68-0.05,1.38-0.04,2.06,0c0.49,0.02,0.72-0.18,0.9-0.62c0.46-1.16,0.98-2.3,1.45-3.46c0.17-0.43,0.4-0.63,0.89-0.63
		c2.28,0.02,4.56,0.02,6.85,0c0.44,0,0.69,0.15,0.85,0.56c0.33,0.84,0.68,1.68,1.05,2.51c0.88,1.99,0.34,1.57,2.48,1.63
		c0.22,0,0.44,0,0.66,0C187.1,44.05,187.1,44.05,186.6,42.93z M179.69,36.57c-1.5,0-3-0.01-4.5,0.01c-0.61,0.01-0.57-0.28-0.39-0.71
		c0.83-1.95,1.65-3.91,2.58-6.13c0.96,2.27,1.81,4.3,2.67,6.33C180.23,36.47,180.04,36.57,179.69,36.57z"/>
	<path fill="#323278" d="M299.51,32.25c-2.95-1.2-6.34,0.11-7.65,3.01c-1.48,3.27-0.57,8.19,4.62,8.92
		c1.67,0.23,3.29-0.07,4.91-0.47c0.39-0.1,0.52-0.3,0.46-0.67c-0.05-0.31-0.13-0.61-0.15-0.92c-0.04-0.72-0.3-0.98-1.08-0.76
		c-1.29,0.36-2.62,0.59-3.97,0.25c-1-0.26-1.74-0.81-2.1-1.81c-0.18-0.5-0.11-0.76,0.5-0.75c1.12,0.02,2.25,0.01,3.37,0.01
		c0,0,0,0,0,0c1.16,0,2.31,0,3.47,0c0.35,0,0.72,0.01,0.76-0.48C302.86,36.14,302.21,33.35,299.51,32.25z M299.07,37.12
		c-0.65-0.03-1.31-0.01-1.97-0.01c-0.62,0-1.25-0.04-1.87,0.01c-0.66,0.05-0.83-0.2-0.65-0.81c0.34-1.16,1.38-1.97,2.56-1.97
		c1.25,0,2.22,0.74,2.57,1.94C299.9,36.89,299.73,37.15,299.07,37.12z"/>
	<path fill="#323278" d="M363.31,31.86c-3.78-0.03-6.4,2.5-6.42,6.2c-0.02,3.52,2.61,6.16,6.15,6.19c3.69,0.03,6.32-2.51,6.37-6.16
		C369.45,34.56,366.84,31.89,363.31,31.86z M366.22,38.68c-0.22,2.07-1.62,3.33-3.47,3.11c-1.67-0.2-2.71-1.67-2.7-3.81
		c0.02-2.33,1.32-3.78,3.31-3.68c0.06,0,0.13,0,0.19,0.01C365.36,34.51,366.48,36.33,366.22,38.68z"/>
	<path fill="#323278" d="M338.43,36.46c-0.11-2.6-1.39-3.99-3.94-4.49c-1.28-0.25-2.55-0.13-3.82,0.12
		c-1.68,0.33-1.7,0.38-1.33,2.08c0.11,0.51,0.29,0.65,0.82,0.51c1.09-0.28,2.19-0.52,3.33-0.22c1.15,0.3,1.73,1.03,1.8,2.2
		c0.04,0.61-0.07,0.91-0.75,0.6c-1.09-0.5-2.26-0.46-3.41-0.34c-1.85,0.2-3.26,1.65-3.35,3.36c-0.1,1.89,1.01,3.33,2.92,3.8
		c1.69,0.41,3.21,0.06,4.86-1.2c-0.34,1.15,0.2,1.21,0.85,1.18c0.47-0.03,0.94-0.02,1.41,0c0.48,0.02,0.66-0.18,0.66-0.66
		C338.45,41.09,338.52,38.77,338.43,36.46z M334.72,41.61c-0.72,0.52-1.53,0.67-2.39,0.51c-0.98-0.18-1.53-0.75-1.55-1.58
		c-0.02-0.84,0.58-1.51,1.55-1.7c0.21-0.04,0.43-0.04,0.65-0.06c0.54-0.01,1.05,0.15,1.53,0.36
		C335.56,39.62,335.67,40.93,334.72,41.61z"/>
	<path fill="#323278" d="M396.05,36.47c-0.11-2.6-1.39-3.99-3.94-4.49c-1.28-0.25-2.55-0.13-3.81,0.12
		c-1.68,0.33-1.7,0.38-1.33,2.08c0.11,0.51,0.28,0.65,0.81,0.51c1.09-0.28,2.19-0.52,3.33-0.23c1.2,0.31,1.82,1.15,1.81,2.39
		c0,0.58-0.23,0.64-0.67,0.44c-1.13-0.51-2.32-0.5-3.5-0.37c-1.85,0.2-3.26,1.65-3.35,3.36c-0.1,1.89,1.01,3.34,2.92,3.8
		c1.69,0.41,3.21,0.06,4.77-1.13c-0.14,0.95,0.24,1.18,0.94,1.11c0.46-0.05,0.94-0.03,1.4-0.01c0.48,0.02,0.66-0.17,0.66-0.66
		C396.07,41.09,396.15,38.77,396.05,36.47z M392.56,41.45c-0.48,0.44-1.23,0.72-1.97,0.73c-0.51,0.01-1-0.08-1.43-0.34
		c-0.56-0.33-0.81-0.86-0.75-1.5c0.07-0.64,0.42-1.11,1.02-1.34c1.1-0.42,2.15-0.23,3.12,0.38
		C393.11,39.73,393.09,40.96,392.56,41.45z"/>
	<path fill="#F68A67" d="M149.44,69.43c0.01-4.35,0-8.69,0.02-13.04c0-0.6-0.19-0.73-0.74-0.72c-0.55,0.01-0.84,0.06-0.82,0.74
		c0.05,1.96,0.02,3.93,0.02,5.98c-2.45-1.07-4.16-0.86-5.53,0.63c-1.46,1.57-1.6,4.13-0.34,5.79c1.22,1.6,3.41,1.97,5.42,0.94
		c0.13-0.07,0.36-0.55,0.5,0.03c0.18,0.74,0.77,0.28,1.16,0.33C149.65,70.18,149.44,69.68,149.44,69.43z M147.23,68.53
		c-0.9,0.51-1.82,0.67-2.78,0.28c-1.18-0.48-1.66-1.46-1.71-2.67c-0.06-1.31,0.61-2.5,1.65-2.91c1.15-0.45,2.2-0.21,3.15,0.56
		c0.26,0.21,0.39,0.46,0.38,0.81c-0.02,0.5-0.01,1-0.01,1.6C147.79,66.93,148.3,67.93,147.23,68.53z"/>
	<path fill="#F68A67" d="M185.94,61.84c-1.31-0.37-2.51,0.01-3.8,0.67c0-2.12-0.03-4.09,0.01-6.06c0.01-0.63-0.19-0.77-0.79-0.78
		c-0.61,0-0.78,0.17-0.78,0.78c0.03,4.31,0.01,8.62,0.02,12.93c0,0.25-0.17,0.65,0.18,0.73c0.38,0.09,1.13,0.09,1.16-0.01
		c0.25-1.03,0.73-0.26,1.03-0.13c2.2,0.98,4.72-0.09,5.59-2.4C189.5,65.11,188.29,62.5,185.94,61.84z M185.91,68.62
		c-1.1,0.65-2.59,0.47-3.46-0.4c-0.19-0.18-0.31-0.37-0.31-0.65c0.01-1.06,0.02-2.12-0.01-3.18c-0.01-0.42,0.24-0.61,0.53-0.8
		c0.58-0.4,1.23-0.59,1.93-0.58c1.31,0.01,2.28,0.78,2.61,2.1C187.57,66.54,187.04,67.95,185.91,68.62z"/>
	<path fill="#F58A67" d="M178.53,69.3c0.03-1.47,0.04-2.93,0.01-4.4c-0.04-1.83-0.91-2.86-2.59-3.14c-1.06-0.17-2.11,0-3.15,0.23
		c-0.67,0.15-0.38,0.55-0.33,0.92c0.06,0.49,0.26,0.5,0.69,0.37c0.68-0.2,1.4-0.32,2.13-0.21c1.13,0.16,1.68,0.77,1.73,1.85
		c0.02,0.47-0.08,0.64-0.58,0.44c-0.8-0.32-1.64-0.37-2.49-0.29c-1.38,0.13-2.42,1.1-2.53,2.34c-0.12,1.36,0.68,2.43,2.09,2.81
		c1.26,0.33,2.4,0.01,3.44-0.74c0.2,0.67,0.44,0.77,1.21,0.68C178.83,70.08,178.52,69.59,178.53,69.3z M176.7,68.32
		c-0.52,0.48-1.13,0.76-1.85,0.73c-0.4,0-0.81-0.02-1.18-0.22c-0.52-0.27-0.77-0.7-0.74-1.28c0.03-0.54,0.28-0.95,0.8-1.15
		c1.07-0.42,2.08-0.18,3.03,0.38C177.18,67.04,177.14,67.91,176.7,68.32z"/>
	<path fill="#F58A67" d="M266.18,61.87c-2.2-0.67-4.38,0.5-5.03,2.68c-0.75,2.53,0.43,4.95,2.69,5.58c1.21,0.34,2.4,0.18,3.61-0.07
		c0.63-0.13,0.7-0.42,0.59-0.97c-0.13-0.63-0.48-0.48-0.88-0.36c-0.66,0.19-1.34,0.31-2.03,0.25c-1.4-0.14-2.24-0.8-2.57-1.95
		c-0.12-0.44-0.08-0.63,0.43-0.61c0.84,0.03,1.68,0.01,2.53,0.01c0.84,0,1.69,0,2.53,0c0.28,0,0.52,0.02,0.6-0.39
		C268.97,64.38,267.8,62.36,266.18,61.87z M266.47,65.27c-0.53-0.05-1.06-0.01-1.59-0.01c-0.59,0-1.19-0.04-1.78,0.01
		c-0.6,0.05-0.59-0.23-0.46-0.66c0.3-0.96,1.14-1.58,2.18-1.6c1.06-0.02,1.81,0.49,2.19,1.44
		C267.23,65.01,267.23,65.34,266.47,65.27z"/>
	<path fill="#F58A67" d="M215.4,61.85c-2.4-0.66-4.57,0.73-5.06,3.26c-0.53,2.71,1.08,4.94,3.74,5.2c0.94,0.09,1.86-0.1,2.78-0.27
		c0.67-0.13,0.56-0.49,0.48-0.95c-0.09-0.55-0.39-0.51-0.79-0.38c-0.94,0.29-1.88,0.4-2.85,0.14c-0.96-0.26-1.54-0.87-1.83-1.82
		c-0.14-0.45-0.06-0.62,0.44-0.6c0.84,0.03,1.68,0.01,2.53,0.01s1.69,0,2.53,0c0.28,0,0.52,0.01,0.6-0.4
		C218.3,64.32,217.09,62.32,215.4,61.85z M215.91,65.27c-0.62-0.04-1.25-0.01-1.88-0.01c-0.44,0-0.88,0-1.31,0
		c-0.97,0-1.04-0.11-0.62-0.97c0.45-0.92,1.32-1.39,2.4-1.27c0.98,0.11,1.58,0.67,1.89,1.58C216.54,65.05,216.48,65.31,215.91,65.27
		z"/>
	<path fill="#F58A67" d="M135.42,61.7c-2.42,0.02-4.19,1.86-4.18,4.34c0.01,2.47,1.81,4.29,4.23,4.29c2.43,0,4.21-1.82,4.22-4.3
		C139.7,63.51,137.9,61.68,135.42,61.7z M135.54,69.04c-1.63,0.03-2.74-1.19-2.75-3c-0.01-1.83,1.08-3.05,2.71-3.04
		c1.57,0.01,2.64,1.21,2.65,3C138.16,67.78,137.1,69.01,135.54,69.04z"/>
	<path fill="#F58A67" d="M125.33,61.7c-2.42,0.01-4.21,1.83-4.22,4.3c-0.01,2.51,1.81,4.36,4.28,4.33c2.42-0.02,4.18-1.86,4.17-4.35
		C129.55,63.5,127.76,61.69,125.33,61.7z M125.37,69.04c-1.62,0.01-2.72-1.22-2.71-3.04c0.01-1.83,1.11-3.03,2.75-3.01
		c1.56,0.02,2.62,1.25,2.62,3.04C128.01,67.82,126.94,69.03,125.37,69.04z"/>
	<path fill="#313176" d="M409.32,23.22c-2.59,0.02-4.74,2.24-4.75,4.92c-0.01,2.62,2.12,4.68,4.82,4.67
		c2.71-0.01,4.74-2.06,4.72-4.74C414.08,25.36,411.95,23.2,409.32,23.22z M409.38,32.04c-2.13,0-3.88-1.73-3.91-3.85
		c-0.03-2.24,1.79-4.17,3.93-4.17c2.06,0,3.74,1.84,3.76,4.1C413.18,30.34,411.53,32.04,409.38,32.04z"/>
	<path fill="#313277" d="M411.05,29.64c-0.39-0.55-0.67-1.02-0.01-1.6c0.28-0.24,0.3-0.68,0.23-1.06c-0.18-0.98-1.24-1.45-2.86-1.32
		c-1.09,0.09-0.57,0.9-0.67,1.42c-0.06,0.33-0.01,0.68-0.01,1.03c0,0.59,0,1.19,0,1.78c0,0.34,0.04,0.63,0.49,0.62
		c0.37-0.01,0.46-0.21,0.5-0.54c0.05-0.37-0.18-0.93,0.37-1.03c0.54-0.09,0.6,0.54,0.86,0.86c0.08,0.1,0.13,0.21,0.19,0.32
		c0.27,0.49,0.77,0.54,1.12,0.3C411.6,30.2,411.21,29.86,411.05,29.64z M409.24,28.02c-0.5,0.05-0.52-0.33-0.52-0.69
		c-0.01-0.4,0.01-0.77,0.57-0.73c0.44,0.03,0.83,0.17,0.85,0.68C410.16,27.86,409.68,27.97,409.24,28.02z"/>
</g>
</svg>
