<?xml version="1.0" encoding="utf-8"?>
<!-- Generator: Adobe Illustrator 19.0.0, SVG Export Plug-In . SVG Version: 6.00 Build 0)  -->
<svg version="1.1" id="Layer_1" xmlns="http://www.w3.org/2000/svg" xmlns:xlink="http://www.w3.org/1999/xlink" x="0px" y="0px"
	 viewBox="0 0 1077.1 1077.1" style="enable-background:new 0 0 1077.1 1077.1;" xml:space="preserve">
<style type="text/css">
	.st0{opacity:0.8;fill:#FFFFFF;}
</style>
<path id="XMLID_646_" class="st0" d="M900.5,663.4l-3.3,2.9c-4.7,4.2-9.6,8.7-15.5,6.5c-1.6-0.6-2.8-2.7-3-4.4
	c-0.3-12.1,5.2-23.3,10.5-34.2l1.4-2.9c15.2-25.4,32.8-55.2,58.8-76c4.4-3.2,9.1-5.8,14.1-3.7c1.2,1.1,2.5,2.9,2.5,4.8
	c0,0.6-0.5,2.2-0.8,2.7c-7.2,11.7-14.1,24-20.8,35.8C931,618.2,917.4,642.3,900.5,663.4L900.5,663.4z M760,603.6
	c-1,0.7-18.5-5.2-21.9-21.4c-2.9-14,6.7-24.9,16-30.4c4-3.1,10-4.2,14.4-2.7c4.1,2.8,5.2,7.7,5.2,13c0,3.2-0.4,6.6-0.8,9.6
	c0,0-0.1,0.6-0.1,0.7C770,583.4,765.5,594.1,760,603.6L760,603.6z M693.1,669.6c-1.8-2.7-2.4-5.6-2.4-8.7
	c-0.3-19.3,20.4-53.8,35-72.6h0c6.1,13.4,20,22.1,28.4,25.7C743.7,637.2,708,686.9,693.1,669.6L693.1,669.6z M945.8,673
	c-3.5,2.4-8.3,0.5-6.5-4.9c4.5-13.8,22.6-41.8,22.6-41.8l50.2-89.1h-34.4c-1.6,2.7-5.1,8.9-5.1,8.9c-1.6-2.7-6.3-8.5-8.3-9.8
	c-8.4-5.3-20.7-2.8-29.2,2c-37,21.6-64,64.3-85.2,97.7c0,0-22.4,37-34.8,39.8c-9.7,0.8-8.7-12.3-8.3-15.3
	c3.8-22,12.5-42.9,21.3-61.9c17.9-12.4,38.2-28.6,56.8-46.4c40.2-38.4,74.1-82,79-91.7c0,0-5.4,1.1-11.7,1.3
	c-30.9,43.1-94.2,105.8-113.4,115.2c8.5-20.4,63.4-118,110.2-164.7l7.4-7.1c11.4-11.1,23.2-22.5,32.3-24.4c1-0.1,2.2,0,3.3,2.3
	c0.4,8.6-2.8,15-6.5,22.3l-5.2,10.6c0,0,7.3-1.4,12.1-3c5.6-10.5,11.8-22.3,9.5-36.4c-0.8-4.5-4-8-8.3-8.7
	c-13.9-2.7-29.1,7.7-41.4,16l-0.5,0.3c-62.8,49.2-115.9,120.2-162.3,217.1c-3.4,2.6-16.4,5.6-18.6,4.1c4.6-9.4,10.4-22.1,13.2-35.9
	c0.5-3.9,1-8,1-11.9c0-8.5-2-16.4-9.6-21.9c-8.9-4.4-19.9-2.4-27.3,1c-33.2,13.8-58,47.8-75.8,75.8c-9.6,17.8-19.2,36.8-21.9,58.7
	c-1.9,17.1,1.9,28.1,11.7,33.6c10,5.1,22.6-0.2,27.5-2.8c33.6-17.7,57.1-53.2,75.6-85.6c0.7-0.1,10.8-0.4,18.5-2.4
	c0.1,0,0.1,0,0.3,0.1c-0.4,1.5-4.4,13.3-4.4,13.3c-11.7,34.4-17.2,57.8-6.1,71.6c15.8,19.6,42-0.7,63.4-27.4
	c-4.6,32,12,37.1,24.7,34.6c14.5-3.9,30.7-19.5,38.3-27.4c-2.4,9.3-1.8,26,11.5,27.7c9.1,1.7,15.8-3.3,23.7-7.5
	c28.2-15.3,61.9-66.4,70.6-81.2H994C981.6,636.7,965.8,661.3,945.8,673L945.8,673z M512.1,482.2h32.2l18.2-29.5h-32.2L512.1,482.2z
	 M1026.8,403.7c-24.6,14-50,23-80.9,19.9c-8.5,9.6-16.9,19.6-24.5,29.8c43.3,11,89.2-13.5,114.7-36.8c27.1-23.5,40.9-53.1,40.9-53.1
	S1056.8,386.7,1026.8,403.7L1026.8,403.7z M755.9,396.3c-5.1,58.8-50.8,93.3-62.1,96c-6.8,1.4-18.5-1.7-8.1-26.3
	c15.4-33.2,41.6-61.4,69.7-75.9C756.1,392.5,756.1,394.1,755.9,396.3L755.9,396.3z M666.8,544.4c-3.3-7.1-11-11.6-19.3-11.1
	c-26.9,2.5-53.2,24.6-67,56.3c-7.2,16.3-11.2,29.8-13.8,51.2c8.4-9.6,25.4-25.4,44.8-34.1c0,0,2.6-20.5,16.1-38.8
	c5.1-7.6,15.3-19.8,26.7-16.5c10,3.3,6.5,31-6.8,57.7c-9.8,19.7-24.8,39.3-40,52.9c-13.4,11.4-33.3,25.2-50.7,14.5
	c-10.9-6.5-16.5-20-15.4-37.5c5.2-49.6,27.8-91.9,60.1-140c33.3-44.7,70.1-90.6,119.6-115.1c10.1-5.1,19.4-6.3,27.5-3.1
	c0,0-46.5,25.6-68.6,72.8c-5.6,12-13.5,28.2-5.6,42.6c4.1,7.5,11.4,8.1,17.3,7.7c27.2-6.3,44.7-31.6,59-54.8
	c8.3-17.6,15.7-35.1,15.7-54.5c0-2.4-0.1-5.5-0.3-7.9c13-6.9,39.6,5.3,39.6,5.3c20.8,6.9,65,40.8,80,47.3c7.3-8.5,19.2-21.2,26-27.6
	l-9.8-6c-15.6-9.5-32.1-18.6-48.4-27.5c-36.9-20.1-66.9-13.1-82.2-7.6c-6,2.2-11.5,4-11.5,4c-11.3-12.4-29.9-11.2-43.7-7.9
	c-49.3,14.2-95.1,48.6-144.1,108.5c-36.1,46.9-58.5,87.4-70.4,127.4c-9.2,26.9-12,66.5,10.5,90c19.1,19.9,44.4,15.6,62.2,8.5
	c38.7-19.1,73.5-60.1,90.8-107.4C669.4,579.4,674.1,559.5,666.8,544.4L666.8,544.4z M237.8,498.8c-0.1,0.2-6.6,15.1-6.6,15.1
	c-0.9,0.8-2.4,0.4-4.1,0l-2.9-0.5c-9.2-2.8-16.1-8.9-18.2-16.2c-2.9-14.2,9.1-25.3,14.5-29.3c5.1-3.5,13.1-5.4,17.7-1.8
	c2.8,3.3,3.9,7.7,3.9,12.4C242,484.9,240,492.1,237.8,498.8L237.8,498.8z M223.8,527.2c0,0-0.3,0.9-0.4,1.2l-14.8,24.1
	c-8.9,11.9-20,26.8-33.9,34c-4.1,1.4-9.8,2.3-12.7-1.4c-6.2-7.4-3-17.6-0.4-25.8l0.9-2.9c7.4-20,19.1-37.7,30.5-54.2
	c0.1-0.1,0.5-0.2,0.6-0.2c0,0.1,0.1,0.1,0.1,0.3c7.2,13.8,20.6,20.1,30.6,23.1c0,0,0.1,0.1,0.1,0.3
	C224.3,525.9,224.2,526.3,223.8,527.2L223.8,527.2z M408.4,511.4c6.6-9.1,25.8-33.6,30.5-37.7c15.8-13.9,22.1-7.8,22.6-3.4
	c-14.7,26.3-32.1,56.5-48.4,83.6c0-0.1-5.1,7.8-5.1,7.8c-7.2,11-14.5,20.4-26.3,27c-1.7,0.5-4.5,0.7-6.3-0.7
	c-2.2-1.5-3.1-3.9-2.9-6.5C373.3,573,381.9,547.1,408.4,511.4L408.4,511.4z M244.8,451.6c-20.4-13.4-61.3,12.2-94.1,56
	c-30,39.3-42.9,85-28.8,106.1c21,24.9,59.9-11.3,76.4-30.7l2.1-2.3c11.3-12.1,19.9-26.6,28.4-40.6c0,0,7.7-12.8,8.1-13.4
	c4.8-0.9,10.5-2.3,17-4.1c-0.1,0.3-24.8,41.9-22.3,62.5c0.8,6.3,0.2,29.3,22.6,36.3c29.9,5,53.8-18.2,74.9-38.8c0,0,3.6-3.4,5.6-5.4
	c-0.5,2.1-1.2,4.8-1.2,4.8c-8.8,30.5,3,36.9,10.4,39.2c22.3,6.5,49-25.9,49.1-25.9c-0.7,10.2-2.7,18.7,8.1,25.4
	c10.2,3.6,20.5-1.9,28.3-7.1c28.2-19.9,50.9-50.9,69.2-77.8h-11.7c-0.1,0-28.8,41.6-47.5,50.7c0,0-3.4,1.7-5.4,0.4
	c-2.4-2.1-1.5-6.4,0-9.4c0.1-0.2,72-124.9,72-124.9h-33.9c0,0-3.7,6-4,6.4c-0.2-0.2-0.8-1.2-1.1-1.7c-21-29.1-68.7,15.7-104.5,67.5
	c-13.8,20-31.4,42.4-49.6,58.6c0,0-27,24.7-38.5,7c-4.2-7.5-2.9-18.4-0.5-25.6c13.4-38.2,36.6-72.9,62.9-93.9
	c7.4-5.8,15.5-7.5,19.5-5c3.8,2.3,4.4,7.9,2,11.7c-6.1-0.2-11,1.7-15,5.8c-7.9,8.3-10.6,16.2-8.1,23.7
	c12.2,17.3,36.4-16.9,35.2-37.7c-0.4-7.5-4.4-14.5-10.4-18c-8.9-5.3-22.4-3.9-31.1,0.3c-11.7,4.4-30.3,19.8-41.1,31.8
	c-13.6,15-37,31.7-44.3,29.9C245.8,507.1,265.5,466.7,244.8,451.6L244.8,451.6z M415.4,670.3c-40-25.8-94.2-30.3-181.7-6
	c-93.3,21.9-124.4,36-165.2,7.8c-15.7-13.9-21.3-36.2-17.1-68.3c9.7-52.4,36.1-102.8,82.8-158.7c26.1-29.1,50.3-54.1,82.3-64.1
	c24.5-6.3,22.2,13,19.2,15.7c-3.1,0-8.4,0.5-12.4,3.1c-3.3,2.6-12.3,10.8-12.8,21.9c-0.7,17,16.9,13.5,24.5,4.1
	c8.2-10.5,20.3-30.7,10.8-49.4c-4-6.7-10.9-11.3-19.4-12.9c-29.3-1.7-56.5,12.3-81.7,27.7c-55,38.2-99,91.2-123.9,149.2
	c-14.4,35-27.3,85.1-7.9,125.9c15.1,28.3,46.3,43.3,83.6,40.2c26.2-2.7,57.8-11.2,79.1-16.3c21.3-5.1,130.2-42.6,166,22.6
	c0,0,11.9-23.1,41.6-23.6c24.5-2.3,59.7,7.1,85.4,25.9C459.9,702.3,435.6,683.3,415.4,670.3L415.4,670.3z"/>
</svg>
