<?xml version="1.0" encoding="utf-8"?>
<!-- Generator: Adobe Illustrator 23.0.1, SVG Export Plug-In . SVG Version: 6.00 Build 0)  -->
<svg version="1.1" id="Layer_1" xmlns="http://www.w3.org/2000/svg" xmlns:xlink="http://www.w3.org/1999/xlink" x="0px" y="0px"
	 viewBox="0 0 150 99" enable-background="new 0 0 150 99" xml:space="preserve">
<g opacity="0.8">
	<path fill="#FFFFFF" d="M122.68,93.72c0-4.62,0-9.24,0-13.96c1.44-0.26,2.69-0.15,4.09-0.13c0,6.59,0,13.08,0,19.71
		c-1.69,0-3.45,0-5.42,0c-2.61-4.53-5.3-9.2-7.99-13.86c-0.11,0.03-0.22,0.06-0.34,0.09c0,4.55,0,9.1,0,13.75
		c-1.41,0.26-2.67,0.15-4.07,0.08c0-6.51,0-13,0-19.65c1.73,0,3.48,0,5.54,0c2.53,4.54,5.19,9.29,7.84,14.04
		C122.45,93.78,122.57,93.75,122.68,93.72z"/>
	<path fill="#FFFFFF" d="M149.48,83.31c-3.09,0-5.89-0.01-8.69,0c-2.97,0.01-4.12,0.87-4.93,3.74c-0.5,1.76-0.47,3.53,0.05,5.29
		c0.88,2.93,1.92,3.72,4.9,3.73c1.46,0.01,2.93,0,4.51,0c0.24-1.68,0.2-3.24,0-4.94c-1.91,0-3.75,0-5.61,0
		c-0.41-1.1-0.24-2.09-0.2-3.2c3.39,0,6.67,0,10.08,0c0,3.8,0,7.54,0,11.56c-3.22,0-6.39,0-9.56,0c-5.6-0.01-8.71-2.96-9.07-8.59
		c-0.19-2.94,0.2-5.73,2.03-8.18c1.29-1.72,2.89-2.98,5.09-3.03c3.7-0.09,7.4-0.02,11.22-0.02
		C149.65,80.83,149.41,81.95,149.48,83.31z"/>
	<path fill="#FFFFFF" d="M75.8,83.19c-2.56,0-4.91-0.05-7.27,0.01c-2.52,0.07-3.97,1.83-3.77,4.61c1.83,0,3.68-0.02,5.52,0.01
		c1.84,0.03,3.68-0.14,5.58,0.13c0.24,1.06,0.14,2.07,0.09,3.31c-3.74,0-7.47,0-11.19,0c-0.2,2.89,1.45,4.74,4.09,4.77
		c2.29,0.02,4.59,0.01,6.92,0.01c0.4,1.11,0.21,2.11,0.16,3.42c-3.69-0.13-7.38,0.54-10.99-0.47c-1.7-0.47-3.02-1.65-3.83-3.28
		c-1.83-3.71-1.95-7.48-0.4-11.3c1.17-2.88,3.37-4.52,6.43-4.71c2.79-0.18,5.6-0.04,8.49-0.04C76.04,80.77,75.85,81.83,75.8,83.19z"
		/>
	<path fill="#FFFFFF" d="M34.6,87.76c0,1.29,0,2.29,0,3.56c-3.73,0-7.45,0-11.17,0c0.06,3.13,1.53,4.68,4.29,4.71
		c2.23,0.02,4.46,0,6.8,0c0.28,1.14,0.15,2.19,0.09,3.35c-3.31,0-6.56,0.21-9.78-0.07c-2.23-0.19-4.07-1.56-5.07-3.67
		c-1.89-3.99-1.93-8.03,0.04-12c1.16-2.34,3.14-3.75,5.76-3.89c2.92-0.15,5.85-0.04,8.92-0.04c0.22,1.07,0.12,2.13,0.04,3.48
		c-2.5,0-4.97-0.07-7.44,0.02c-2.36,0.09-3.77,1.93-3.55,4.55C27.15,87.76,30.77,87.76,34.6,87.76z"/>
	<path fill="#FFFFFF" d="M47.13,94.66c2.01-5.27,3.84-10.09,5.69-14.93c1.52-0.17,2.96-0.23,4.72,0.03
		c-2.79,6.64-5.52,13.14-8.26,19.67c-1.48,0-2.87,0-4.43,0c-2.65-6.47-5.33-12.99-8.09-19.7c1.68,0,3.11,0,4.74,0
		C43.31,84.53,45.15,89.41,47.13,94.66z"/>
	<path fill="#FFFFFF" d="M14.68,96.28c0.06,1.22,0.17,2.1-0.11,3.19c-3.01-0.09-6.05,0.33-9.07-0.31c-3.05-0.65-4.91-2.58-5.01-5.68
		c-0.16-4.52-0.04-9.05-0.04-13.66c1.4-0.4,2.78-0.2,4.1-0.15c0.54,0.61,0.34,1.28,0.34,1.89c0.02,3.45-0.02,6.89,0.02,10.34
		c0.04,3.05,1.28,4.3,4.32,4.37C11.05,96.31,12.87,96.28,14.68,96.28z"/>
	<path fill="#FFFFFF" d="M96.31,79.59c-2.69,3.44-5.14,6.58-7.69,9.83c2.39,3.25,4.78,6.5,7.34,9.97c-1.99,0-3.61,0-5.34,0
		c-2.16-3.27-4.32-6.57-6.59-10.01c2.16-3.05,4.36-6.15,6.56-9.26c0.29-0.41,0.66-0.55,1.15-0.54
		C93.11,79.6,94.49,79.59,96.31,79.59z"/>
	<path fill="#FFFFFF" d="M104.31,79.67c0,6.64,0,13.12,0,19.71c-1.5,0-2.94,0-4.51,0c0-6.53,0-13.06,0-19.66
		C101.3,79.5,102.69,79.61,104.31,79.67z"/>
	<path fill="#FFFFFF" d="M83.79,99.42c-1.28,0-2.41,0-3.66,0c0-6.56,0-13.04,0-19.62c1.18-0.34,2.35-0.2,3.66-0.12
		C83.79,86.26,83.79,92.75,83.79,99.42z"/>
	<path fill="#FFFFFF" d="M95,63.08c-12.31,9.17-31.76,8.93-44.54-3.86c-12.6-12.61-13.07-32.14-3.69-44.87
		c-2.23,6.62-0.04,12.3,2.85,17.76c3.67,6.94,5.49,14.26,5.38,22.16c0.16,0.26,0.49,0.2,0.8,0.19c7.78-0.16,15.04,1.73,21.9,5.38
		c3.22,1.72,6.59,3.06,10.25,3.63C90.34,63.86,92.65,63.63,95,63.08z"/>
	<path fill="#FFFFFF" d="M107.49,21.17C102.1,8.1,89.1-0.6,75.2-0.44c-0.77,0.01-1.48-0.04-2.05,0.71c-1.95,2.55-3.34,5.27-3.22,8.6
		c0.12,3.31,1.64,6.12,2.99,9.01c2.21,4.73,4.76,9.37,4.34,14.93c2.27-0.37,4.34,0.2,6.4,0.89c3.65,1.23,7.06,2.99,10.37,4.91
		c4.84,2.8,9.53,2.78,14.31-0.19c1.25-0.78,1.78-1.61,1.79-3.02C110.16,30.49,109.37,25.73,107.49,21.17z M88.73,26.36
		c-2.97-0.11-5.39-2.78-5.19-5.72c0.21-3.07,2.74-5.35,5.74-5.19c2.85,0.15,5.25,2.78,5.14,5.63C94.31,24.05,91.7,26.47,88.73,26.36
		z"/>
	<path fill="#FFFFFF" d="M107.31,48.42c1.41-3.66,2.46-7.37,2.72-11.71c-0.95,1.98-1.63,3.67-2.75,5.1
		c-3.8,4.82-9.53,6.47-15.47,4.34c-1.91-0.69-3.75-1.63-5.59-2.5c-5.25-2.45-10.59-4.42-16.69-3.45c0.97-6.1-1-11.44-3.45-16.69
		c-0.87-1.85-1.81-3.68-2.5-5.59c-2.13-5.94-0.48-11.68,4.34-15.47c1.43-1.12,3.12-1.8,5.1-2.75C68.68-0.05,64.97,1,61.31,2.41
		c-4.01,1.55-7.47,6.8-6.51,11.82c1.13,5.91,3.56,11.31,6.04,16.7c2.07,4.52,4.4,8.95,3.66,14.3c5.36-0.74,9.78,1.59,14.3,3.66
		c5.39,2.48,10.79,4.91,16.7,6.04C100.51,55.88,105.76,52.43,107.31,48.42z"/>
</g>
</svg>
