<?xml version="1.0" encoding="utf-8"?>
<!-- Generator: Adobe Illustrator 23.0.1, SVG Export Plug-In . SVG Version: 6.00 Build 0)  -->
<svg version="1.1" id="Layer_1" xmlns="http://www.w3.org/2000/svg" xmlns:xlink="http://www.w3.org/1999/xlink" x="0px" y="0px"
	 viewBox="0 0 440 100" enable-background="new 0 0 440 100" xml:space="preserve">
<g opacity="0.8">
	<path fill="#FFFFFF" d="M0.48,69.82c0.96-3.55,1.93-7.1,2.88-10.65C7.24,44.78,11.11,30.39,14.98,16c0.22-0.83,0.53-1.07,1.38-1.07
		c1.62,0,3.23-0.01,4.85,0c1.02,0.01,1.43,0.55,1.16,1.55c-2.58,9.73-5.17,19.45-7.76,29.18c-1.52,5.7-3.05,11.41-4.57,17.11
		c-0.77,2.89,0.29,4.45,3.29,4.88c0.74,0.1,1.48,0.16,2.24,0.16c4.34-0.01,8.69,0,13.03,0c1.31,0,1.68,0.5,1.32,1.77
		c-0.8,2.88-1.6,5.75-2.4,8.63c-0.3,1.09-0.49,1.25-1.61,1.25c-5.5-0.01-11.01,0.15-16.51-0.07c-3.32-0.14-6.13-1.41-7.94-4.39
		c-0.53-0.88-0.75-1.87-1.01-2.84C0.48,71.36,0.48,70.59,0.48,69.82z"/>
	<path fill="#FFFFFF" d="M81.74,0c1.03,0.31,2.11,0.43,3.11,0.86c3.25,1.4,5.07,3.82,5.25,7.38c0.04,0.84-0.11,1.68-0.34,2.5
		c-4.49,16.66-8.98,33.33-13.48,49.99c-0.25,0.93-0.52,1.85-0.75,2.79c-0.17,0.7-0.58,0.98-1.3,0.97c-1.59-0.02-3.19-0.01-4.78-0.01
		c-1.19,0-1.57-0.49-1.27-1.64c0.56-2.14,1.13-4.28,1.7-6.42C73.45,43.11,77,29.79,80.56,16.47c0.74-2.79-0.53-4.41-3.7-4.73
		c-1.37-0.14-2.75-0.12-4.12-0.12c-3.62,0-7.24,0-10.86,0c-1.25,0-1.62-0.48-1.29-1.67C61.41,7,62.24,4.05,63.04,1.1
		c0.13-0.47,0.34-0.83,0.73-1.1C69.77,0,75.75,0,81.74,0z"/>
	<path fill="#FFFFFF" d="M28.49,51.73c-1.62,0.87-3.09,1.66-4.56,2.46c-1.04,0.56-1.04,0.57-1.34-0.57
		c-0.21-0.79-0.39-1.59-0.63-2.37c-0.13-0.43,0-0.64,0.39-0.84c1.87-0.99,3.72-2.01,5.69-3.08c-1.53-0.8-2.95-1.57-4.4-2.29
		c-0.56-0.28-0.7-0.47-0.19-0.98c0.9-0.9,1.75-1.86,2.58-2.84c0.32-0.38,0.54-0.4,0.94-0.13c1.68,1.13,3.39,2.21,5.07,3.34
		c0.43,0.29,0.76,0.33,1.23,0.07c2.45-1.34,4.92-2.64,7.4-3.93c0.43-0.22,0.49-0.34,0.07-0.66c-1.6-1.24-3.19-2.5-4.76-3.78
		c-0.36-0.29-0.62-0.22-0.97-0.05c-2.29,1.13-4.59,2.24-6.87,3.38c-0.39,0.19-0.6,0.21-0.87-0.19c-0.48-0.72-1-1.42-1.55-2.09
		c-0.34-0.42-0.35-0.62,0.17-0.89c1.96-1.03,3.89-2.11,5.95-3.24c-0.65-0.43-1.25-0.84-1.86-1.24c-0.6-0.4-1.19-0.83-1.81-1.2
		c-0.34-0.21-0.34-0.37-0.11-0.66c0.99-1.25,1.97-2.5,3.01-3.7c0.3-0.34,0.45-0.26,0.74-0.03c1.1,0.9,2.22,1.78,3.41,2.73
		c0.21-0.8,0.41-1.53,0.6-2.27c0.33-1.31,0.68-2.61,0.99-3.92c0.1-0.42,0.23-0.59,0.72-0.54c0.86,0.1,1.73,0.11,2.6,0.11
		c0.54,0,0.7,0.18,0.59,0.73c-0.56,2.66-1.09,5.34-1.64,8c-0.07,0.33-0.09,0.57,0.22,0.82c1.64,1.31,3.27,2.63,4.89,3.97
		c0.38,0.31,0.48,0.2,0.59-0.2c0.76-2.74,1.52-5.47,2.3-8.2c0.12-0.42-0.02-0.68-0.29-0.95c-1.47-1.49-2.93-3-4.42-4.49
		c-0.33-0.33-0.41-0.55-0.09-0.95c0.78-0.98,1.51-2,2.23-3.03c0.26-0.37,0.4-0.33,0.7-0.05c1.2,1.18,2.42,2.33,3.71,3.56
		c0.56-1.96,1.09-3.79,1.59-5.65c0.12-0.44,0.28-0.64,0.77-0.63c1.35,0.03,2.7,0.01,4.11,0.01c-0.58,1.87-1.16,3.74-1.79,5.75
		c2.33-1.54,4.54-3,6.88-4.55c-0.15,1.66-0.29,3.17-0.42,4.68c-0.03,0.36-0.33,0.45-0.57,0.59c-2.4,1.52-4.81,3.03-7.21,4.55
		c-0.22,0.14-0.46,0.23-0.54,0.54c-0.81,2.89-1.64,5.78-2.51,8.83c0.64-0.38,1.14-0.67,1.64-0.97c1.95-1.16,3.88-2.33,5.84-3.47
		c0.49-0.28,0.78-0.65,0.98-1.17c0.95-2.52,1.94-5.03,2.88-7.55c0.16-0.42,0.37-0.59,0.8-0.67c1.02-0.18,2.02-0.42,3.18-0.67
		c-0.68,2.19-1.33,4.3-2.05,6.61c1.93-1.16,3.69-2.23,5.52-3.33c0.36,1.33,0.7,2.6,1.06,3.86c0.1,0.36-0.19,0.4-0.38,0.51
		c-1.69,1.02-3.38,2.04-5.18,3.12c1.6,1.09,3.14,2.13,4.73,3.21c-1.15,1.18-2.28,2.32-3.39,3.49c-0.31,0.33-0.51,0.08-0.74-0.06
		c-1.73-1.05-3.46-2.1-5.18-3.17c-0.34-0.22-0.62-0.26-0.99-0.06c-2.55,1.36-5.11,2.69-7.67,4.03c-0.1,0.05-0.19,0.13-0.34,0.23
		c1.92,1.37,3.8,2.72,5.67,4.07c0.32,0.23,0.54,0.05,0.79-0.07c2.41-1.09,4.83-2.17,7.23-3.28c0.44-0.2,0.66-0.16,0.94,0.23
		c0.55,0.76,1.14,1.5,1.74,2.22c0.32,0.38,0.22,0.52-0.2,0.7c-1.99,0.85-3.97,1.73-5.96,2.6c-0.22,0.09-0.42,0.21-0.68,0.33
		c1.09,0.95,2.13,1.88,3.2,2.78c0.31,0.26,0.34,0.43,0.07,0.74c-1.02,1.19-2.03,2.39-3.02,3.61c-0.27,0.33-0.42,0.32-0.73,0.06
		c-1.03-0.87-2.08-1.71-3.21-2.63c-0.34,1.42-0.67,2.77-1,4.12c-0.1,0.4-0.19,0.8-0.28,1.2c-0.34,1.46-0.34,1.46-1.84,1.33
		c-0.58-0.05-1.16-0.12-1.73-0.1c-0.54,0.01-0.71-0.06-0.55-0.67c0.65-2.59,1.22-5.2,1.86-7.8c0.12-0.5,0.03-0.78-0.38-1.09
		c-1.81-1.35-3.6-2.74-5.47-4.16c-0.65,2.3-1.28,4.52-1.9,6.74c-0.21,0.76-0.69,1.62-0.5,2.28c0.19,0.66,1.04,1.14,1.61,1.68
		c1.1,1.04,2.2,2.09,3.34,3.1c0.31,0.28,0.31,0.44,0.08,0.75c-0.82,1.13-1.62,2.28-2.4,3.44c-0.23,0.34-0.37,0.4-0.69,0.08
		c-1.12-1.12-2.27-2.21-3.49-3.38c-0.45,1.7-0.9,3.29-1.29,4.9c-0.14,0.59-0.35,0.89-1.03,0.88c-1.3-0.02-2.6,0.05-3.9,0.12
		c-0.42,0.02-0.43-0.07-0.32-0.43c0.53-1.62,1.03-3.26,1.55-4.89c0.05-0.16,0.14-0.31,0.07-0.53c-2.05,1.29-4.08,2.56-6.19,3.89
		c-0.09-0.93,0.19-1.77,0.15-2.61c-0.07-1.37,0.55-2.21,1.74-2.89c1.92-1.1,3.72-2.41,5.59-3.61c0.43-0.27,0.71-0.59,0.86-1.09
		c0.74-2.44,1.52-4.87,2.28-7.31c0.04-0.13,0.13-0.26,0.03-0.49c-0.63,0.33-1.26,0.66-1.88,0.99c-2.02,1.07-4.04,2.14-6.07,3.19
		c-0.33,0.17-0.5,0.38-0.61,0.73c-0.83,2.66-1.7,5.32-2.52,7.99c-0.16,0.53-0.39,0.8-0.95,0.86c-1.16,0.14-2.32,0.34-3.59,0.53
		C27.08,56.39,27.76,54.15,28.49,51.73z"/>
	<path fill="#FFFFFF" d="M322.02,14.94c4.37,0,8.74-0.03,13.11,0.01c1.74,0.02,3.45,0.35,5.03,1.15c2.44,1.23,3.77,3.69,3.58,6.42
		c-0.15,2.14-0.86,4.14-1.41,6.18c-3.07,11.49-6.16,22.97-9.24,34.46c-0.25,0.93-0.52,1.12-1.49,1.12c-1.38,0-2.75,0-4.13,0
		c-1.42,0-1.79-0.48-1.43-1.83c1.94-7.23,3.87-14.46,5.81-21.7c1.01-3.79,2.03-7.58,3.05-11.37c0.58-2.17-0.2-3.55-2.37-4.17
		c-1.01-0.29-2.04-0.38-3.08-0.38c-5.43-0.01-10.86,0.01-16.29-0.02c-0.61,0-0.82,0.21-0.96,0.76
		c-3.33,12.47-6.67,24.93-10.02,37.39c-0.3,1.13-0.55,1.32-1.72,1.32c-1.38,0-2.75,0-4.13,0c-1.21,0-1.62-0.54-1.31-1.7
		c2.76-10.35,5.53-20.7,8.3-31.04c1.37-5.12,2.73-10.23,4.1-15.35c0.3-1.13,0.49-1.28,1.65-1.28c4.32,0,8.64,0,12.96,0
		C322.02,14.93,322.02,14.94,322.02,14.94z"/>
	<path fill="#FFFFFF" d="M287.99,24.84c-3.77,0-7.53,0-11.3,0c-3.14,0-6.88,1.83-7.84,6.12c-0.31,1.41-0.75,2.79-1.12,4.18
		c-1.28,4.79-2.56,9.58-3.85,14.37c-0.67,2.51,0.16,3.94,2.68,4.55c0.92,0.22,1.86,0.28,2.8,0.28c7.17,0,14.34,0,21.51,0
		c1.47,0,1.83,0.45,1.45,1.86c-0.62,2.33-1.25,4.65-1.87,6.97c-0.23,0.85-0.54,1.11-1.44,1.11c-7.48,0-14.97,0.02-22.45-0.01
		c-1.92-0.01-3.8-0.31-5.53-1.21c-3.48-1.81-5.06-5.48-3.99-9.45c2.57-9.58,5.17-19.15,7.78-28.72c1.26-4.62,6.52-10.1,13.12-10.01
		c7.65,0.11,15.3,0.02,22.95,0.03c0.41,0,0.82,0,1.23,0.03c0.77,0.05,1.21,0.6,1.02,1.33c-0.67,2.56-1.38,5.11-2.06,7.67
		c-0.21,0.78-0.77,0.89-1.45,0.89C295.76,24.83,291.88,24.84,287.99,24.84z"/>
	<path fill="#FFFFFF" d="M385.97,14.94c4.15,0,8.3-0.01,12.45,0.01c1.09,0,1.47,0.54,1.19,1.59c-0.61,2.28-1.22,4.56-1.83,6.84
		c-0.37,1.38-0.49,1.47-1.95,1.47c-7.55,0-15.11-0.01-22.66-0.01c-3.32,0-6.86,2.04-7.74,5.95c-0.18,0.8-0.43,1.58-0.64,2.37
		c-1.45,5.42-2.9,10.84-4.35,16.25c-0.09,0.33-0.16,0.66-0.21,0.99c-0.25,1.45,0.31,2.55,1.63,3.21c1.24,0.62,2.58,0.73,3.94,0.73
		c7.19,0,14.39,0,21.58,0c1.52,0,1.85,0.43,1.46,1.91c-0.6,2.26-1.2,4.51-1.8,6.77c-0.28,1.06-0.55,1.26-1.69,1.26
		c-7.1,0-14.19,0-21.29,0c-1.62,0-3.22-0.09-4.79-0.54c-4.5-1.31-6.92-5.49-5.7-10.04c2.57-9.58,5.14-19.15,7.76-28.72
		c1.37-5.01,6.79-10.28,13.27-10.09c3.79,0.11,7.58,0.02,11.37,0.02C385.97,14.93,385.97,14.94,385.97,14.94z"/>
	<path fill="#FFFFFF" d="M206.38,14.92c4.8,0,9.6,0,14.41,0c1.22,0,1.62,0.52,1.29,1.68c-0.64,2.32-1.29,4.64-1.93,6.95
		c-0.32,1.15-0.49,1.28-1.66,1.28c-3.38,0-6.76,0.01-10.14-0.01c-0.55,0-0.74,0.19-0.87,0.68c-3.37,12.53-6.75,25.05-10.13,37.57
		c-0.27,1.02-0.52,1.21-1.56,1.21c-1.38,0-2.75,0-4.13,0c-1.35,0-1.74-0.5-1.4-1.8c3.29-12.27,6.57-24.55,9.86-36.82
		c0.22-0.83,0.23-0.83-0.65-0.83c-3.14,0-6.27,0-9.41,0c-1.54,0-1.87-0.42-1.46-1.89c0.64-2.3,1.27-4.59,1.91-6.89
		c0.27-0.97,0.5-1.14,1.53-1.14C196.83,14.92,201.6,14.92,206.38,14.92z"/>
	<path fill="#FFFFFF" d="M110.74,64.29c-2.14-0.07-4.76,0.16-7.35-0.13c-3.22-0.35-5.89-1.64-7.41-4.68c-0.95-1.9-1-3.91-0.45-5.93
		c3.37-12.5,6.75-25,10.12-37.5c0.25-0.92,0.53-1.13,1.48-1.13c0.97,0,1.93-0.01,2.9,0c1.1,0.01,1.49,0.55,1.19,1.66
		c-1.06,3.95-2.13,7.9-3.19,11.85c-1.92,7.16-3.86,14.31-5.76,21.48c-0.53,1.98,0.25,3.34,2.2,3.98c1.04,0.35,2.12,0.45,3.21,0.45
		c4.42,0,8.83,0,13.25,0c1.33,0,1.71,0.48,1.37,1.75c-0.62,2.35-1.25,4.7-1.88,7.05c-0.24,0.91-0.53,1.15-1.47,1.15
		C116.37,64.29,113.79,64.29,110.74,64.29z"/>
	<path fill="#FFFFFF" d="M128.4,64.29c-0.7,0-1.4,0-2.1,0c-1.21-0.01-1.63-0.54-1.32-1.69c0.95-3.58,1.9-7.16,2.86-10.74
		c3.17-11.88,6.35-23.76,9.53-35.64c0.3-1.13,0.51-1.29,1.64-1.29c1.42,0,2.85,0,4.27,0c1.22,0,1.62,0.52,1.31,1.67
		c-2.57,9.6-5.15,19.2-7.73,28.8c-1.57,5.86-3.15,11.71-4.72,17.57c-0.31,1.14-0.55,1.32-1.71,1.33
		C129.75,64.29,129.08,64.29,128.4,64.29z"/>
	<path fill="#FFFFFF" d="M341.9,64.29c-0.72,0-1.45,0.01-2.17,0c-1.19-0.01-1.59-0.55-1.28-1.74c0.79-2.95,1.59-5.9,2.38-8.85
		c3.35-12.53,6.69-25.06,10.04-37.6c0.27-1,0.5-1.18,1.5-1.19c1.47,0,2.94,0,4.42,0c1.17,0,1.58,0.53,1.28,1.65
		c-1.41,5.25-2.82,10.5-4.23,15.76c-2.72,10.13-5.45,20.27-8.17,30.4c-0.39,1.47-0.52,1.57-2.03,1.57
		C343.06,64.29,342.48,64.29,341.9,64.29z"/>
	<path fill="#FFFFFF" d="M329.83,81.29c1.63-1.83,3.46-2.66,5.71-2.51c1.66,0.11,2.67,0.86,3.22,2.5c0.36-0.33,0.7-0.66,1.06-0.96
		c1.63-1.39,3.5-1.89,5.59-1.37c1.45,0.36,2.38,1.47,2.58,2.97c0.19,1.45-0.21,2.83-0.48,4.22c-0.47,2.44-0.97,4.87-1.45,7.3
		c-0.09,0.49-0.24,0.76-0.82,0.7c-0.69-0.06-1.4-0.04-2.1-0.01c-0.47,0.02-0.56-0.1-0.46-0.57c0.64-2.96,1.25-5.94,1.87-8.91
		c0.05-0.24,0.09-0.47,0.11-0.71c0.22-2.01-0.87-2.97-2.84-2.45c-1.89,0.5-2.88,1.89-3.31,3.67c-0.63,2.65-1.16,5.32-1.68,7.99
		c-0.14,0.71-0.33,1.12-1.17,0.99c-0.59-0.09-1.21-0.04-1.81-0.01c-0.47,0.03-0.57-0.11-0.47-0.58c0.65-3.01,1.27-6.03,1.89-9.05
		c0.12-0.59,0.21-1.19,0.1-1.79c-0.14-0.78-0.62-1.23-1.41-1.31c-1.21-0.12-2.21,0.31-3.09,1.13c-1.18,1.1-1.72,2.51-2.02,4.06
		c-0.44,2.32-0.97,4.62-1.41,6.94c-0.1,0.5-0.29,0.62-0.75,0.6c-0.7-0.03-1.4-0.04-2.1,0c-0.54,0.04-0.59-0.18-0.49-0.63
		c0.64-3.04,1.27-6.08,1.9-9.12c0.32-1.56,0.66-3.11,0.96-4.67c0.08-0.4,0.22-0.58,0.65-0.56c0.72,0.03,1.45,0.03,2.17,0
		c0.39-0.02,0.44,0.14,0.37,0.47C330.05,80.11,329.96,80.61,329.83,81.29z"/>
	<path fill="#FFFFFF" d="M271.42,81.3c0.38-0.36,0.71-0.67,1.05-0.97c1.54-1.32,3.31-1.86,5.31-1.44c2.03,0.43,3.12,1.99,2.91,4.17
		c-0.2,2.09-0.77,4.12-1.14,6.18c-0.26,1.42-0.57,2.83-0.83,4.25c-0.09,0.48-0.25,0.7-0.79,0.65c-0.72-0.06-1.45-0.03-2.17-0.01
		c-0.45,0.02-0.51-0.11-0.41-0.54c0.65-2.99,1.28-5.98,1.89-8.98c0.11-0.54,0.24-1.08,0.13-1.65c-0.21-1.04-0.77-1.53-1.84-1.57
		c-2-0.07-3.76,1.36-4.31,3.68c-0.65,2.74-1.19,5.51-1.74,8.27c-0.12,0.59-0.32,0.87-0.97,0.8c-0.64-0.07-1.3-0.05-1.95-0.01
		c-0.54,0.03-0.57-0.15-0.47-0.62c0.64-2.99,1.26-5.99,1.87-8.99c0.12-0.59,0.22-1.18,0.1-1.79c-0.15-0.8-0.6-1.24-1.4-1.32
		c-1.33-0.14-2.4,0.39-3.3,1.32c-0.93,0.96-1.47,2.12-1.72,3.44c-0.47,2.46-1.02,4.91-1.51,7.36c-0.09,0.47-0.26,0.64-0.75,0.61
		c-0.72-0.04-1.45-0.03-2.17,0c-0.44,0.02-0.54-0.12-0.45-0.54c0.89-4.22,1.75-8.44,2.64-12.66c0.37-1.77,0.39-1.77,2.19-1.77
		c1.32,0,1.32,0,1.08,1.3c-0.04,0.21-0.09,0.42-0.18,0.82c0.83-0.9,1.63-1.56,2.59-2c1.16-0.53,2.38-0.64,3.61-0.45
		C270.07,79.05,271.05,79.82,271.42,81.3z"/>
	<path fill="#FFFFFF" d="M93.17,94.13c1.21-5.85,2.41-11.62,3.63-17.47c-2.26,0-4.48,0-6.77,0c0.2-1,0.39-1.91,0.56-2.83
		c0.09-0.48,0.44-0.36,0.73-0.36c3.81,0,7.63,0,11.44,0c1.62,0,3.23,0,4.9,0c-0.2,0.97-0.41,1.89-0.58,2.81
		c-0.08,0.44-0.38,0.35-0.66,0.35c-1.76,0-3.53,0.03-5.29-0.01c-0.53-0.01-0.74,0.14-0.85,0.66c-0.91,4.48-1.84,8.96-2.77,13.45
		c-0.2,0.97-0.4,1.93-0.6,2.9c-0.05,0.25-0.07,0.52-0.46,0.52C95.39,94.12,94.31,94.13,93.17,94.13z"/>
	<path fill="#FFFFFF" d="M371.29,81.36c1.12-1.35,2.37-2.21,3.96-2.49c1.03-0.18,2.07-0.17,3.08,0.13c1.56,0.47,2.44,1.75,2.51,3.49
		c0.07,1.69-0.42,3.29-0.74,4.91c-0.4,2.06-0.86,4.1-1.27,6.15c-0.09,0.43-0.24,0.61-0.7,0.58c-0.65-0.04-1.31-0.07-1.95,0
		c-0.76,0.08-0.79-0.23-0.66-0.84c0.64-2.99,1.26-5.98,1.87-8.98c0.46-2.25-0.75-3.43-2.98-2.83c-2.26,0.61-3.35,2.33-3.84,4.46
		c-0.58,2.51-1.08,5.04-1.58,7.56c-0.09,0.48-0.27,0.64-0.75,0.61c-0.67-0.04-1.35-0.04-2.03,0c-0.54,0.03-0.71-0.08-0.58-0.66
		c0.63-2.89,1.22-5.79,1.82-8.69c0.36-1.72,0.73-3.44,1.06-5.16c0.06-0.31,0.16-0.47,0.5-0.46c0.77,0.01,1.54,0.01,2.32-0.01
		c0.33-0.01,0.42,0.09,0.33,0.43C371.53,80.11,371.44,80.65,371.29,81.36z"/>
	<path fill="#FFFFFF" d="M140.36,81.34c1.86-2.18,4.03-2.95,6.61-2.42c1.91,0.39,2.84,1.62,2.92,3.58c0.07,1.84-0.48,3.57-0.82,5.34
		c-0.36,1.89-0.79,3.77-1.17,5.66c-0.09,0.48-0.26,0.69-0.79,0.65c-0.72-0.06-1.45-0.03-2.17-0.01c-0.44,0.02-0.5-0.11-0.41-0.54
		c0.65-3.01,1.27-6.03,1.88-9.05c0.18-0.92,0.44-1.92-0.41-2.64c-0.88-0.75-1.96-0.67-2.95-0.29c-2.1,0.81-3.05,2.55-3.5,4.63
		c-0.52,2.42-1.01,4.86-1.49,7.29c-0.09,0.44-0.25,0.64-0.75,0.61c-0.74-0.05-1.5-0.03-2.24-0.01c-0.41,0.01-0.47-0.1-0.39-0.5
		c0.82-3.91,1.62-7.83,2.43-11.74c0.16-0.75,0.34-1.5,0.47-2.26c0.06-0.35,0.2-0.48,0.56-0.47c0.72,0.02,1.45,0.02,2.17,0
		c0.43-0.02,0.48,0.15,0.39,0.52C140.59,80.16,140.5,80.66,140.36,81.34z"/>
	<path fill="#FFFFFF" d="M415.12,94.51c-1.22-0.03-2.3-0.11-3.33-0.5c-1.82-0.69-2.97-2.38-2.96-4.31c0-0.35,0.12-0.47,0.46-0.45
		c0.43,0.02,0.87,0.04,1.3,0c0.83-0.08,1.51-0.09,1.58,1.06c0.04,0.62,0.63,1.01,1.21,1.23c1.24,0.47,2.51,0.47,3.75-0.01
		c0.75-0.29,1.23-0.84,1.25-1.69c0.02-0.8-0.51-1.19-1.14-1.51c-1.02-0.52-2.15-0.7-3.2-1.11c-0.45-0.17-0.89-0.36-1.33-0.55
		c-3.01-1.37-2.67-5.24-0.46-6.71c0.88-0.59,1.85-0.95,2.88-1.07c1.56-0.19,3.13-0.21,4.65,0.33c1.79,0.63,2.8,2.11,2.77,3.98
		c0,0.3-0.12,0.37-0.38,0.37c-0.8-0.01-1.59-0.02-2.39,0.01c-0.33,0.01-0.39-0.15-0.44-0.42c-0.18-0.87-0.77-1.37-1.6-1.58
		c-0.95-0.25-1.9-0.28-2.83,0.11c-0.64,0.27-0.98,0.75-1.02,1.44c-0.05,0.71,0.41,1.05,0.94,1.31c0.96,0.47,2.01,0.66,3.01,1.01
		c0.64,0.22,1.26,0.47,1.86,0.79c2.83,1.52,2.33,4.93,0.89,6.37c-1.17,1.17-2.64,1.63-4.22,1.84
		C415.91,94.49,415.45,94.49,415.12,94.51z"/>
	<path fill="#FFFFFF" d="M132.07,84.13c-0.17,0-0.34-0.02-0.51,0c-0.72,0.08-1.17,0.02-1.32-0.93c-0.21-1.41-1.91-2.13-3.62-1.73
		c-0.92,0.22-1.7,0.69-2.29,1.42c-1.47,1.8-1.97,3.89-1.69,6.16c0.17,1.37,0.86,2.39,2.31,2.72c1.54,0.35,3.09-0.21,3.98-1.45
		c0.08-0.12,0.19-0.23,0.23-0.37c0.23-0.95,0.87-1.16,1.76-1.04c0.5,0.07,1.01,0.03,1.52,0.01c0.41-0.02,0.49,0.08,0.37,0.49
		c-0.81,2.82-3.19,4.76-6.16,5.02c-1.53,0.13-3.05,0.13-4.44-0.63c-2.08-1.14-2.88-3.03-2.94-5.28c-0.1-3.2,0.8-6.04,3.4-8.07
		c2.43-1.9,5.2-2.19,8.06-1.1c1.8,0.69,2.76,2.1,2.99,4.01c0.07,0.56-0.04,0.88-0.7,0.78C132.7,84.1,132.39,84.13,132.07,84.13z"/>
	<path fill="#FFFFFF" d="M247.08,11.44c-2.77,0-5.55,0-8.32,0c-1.16,0-1.54-0.5-1.22-1.59c0.51-1.74,0.78-1.93,2.59-2.18
		c5.27-0.73,10.53-1.49,15.8-2.24c0.41-0.06,0.81-0.13,1.22-0.17c0.82-0.09,1.36,0.39,1.2,1.19c-0.24,1.28-0.54,2.54-0.89,3.8
		c-0.22,0.79-0.89,1.2-1.77,1.2C252.82,11.44,249.95,11.44,247.08,11.44z"/>
	<path fill="#FFFFFF" d="M389.91,91.61c-0.1,0.44-0.19,0.89-0.29,1.33c-0.26,1.09-0.26,1.1-1.4,1.2c-0.79,0.07-1.57,0.19-2.37,0.04
		c-1.29-0.24-1.99-0.95-2.13-2.26c-0.12-1.1,0.17-2.16,0.39-3.22c0.44-2.15,0.89-4.29,1.36-6.43c0.11-0.5,0.02-0.71-0.54-0.67
		c-0.5,0.04-1.01,0-1.52,0.01c-0.34,0.01-0.43-0.14-0.34-0.44c0.01-0.02,0.01-0.05,0.02-0.07c0.36-1.93,0.36-1.95,2.34-1.93
		c0.54,0,0.75-0.14,0.83-0.7c0.16-1.07,0.46-2.12,0.64-3.18c0.08-0.47,0.24-0.66,0.73-0.63c0.67,0.04,1.35,0.03,2.03,0
		c0.45-0.02,0.65,0.04,0.51,0.59c-0.28,1.1-0.45,2.22-0.7,3.32c-0.1,0.43-0.04,0.62,0.46,0.59c0.67-0.03,1.35,0,2.03-0.01
		c0.29,0,0.41,0.08,0.3,0.38c-0.01,0.02-0.02,0.05-0.02,0.07c-0.36,2.01-0.37,2.05-2.41,1.99c-0.78-0.02-1.06,0.19-1.2,0.97
		c-0.44,2.39-0.99,4.76-1.49,7.14c-0.05,0.24-0.09,0.48-0.1,0.71c-0.05,0.78,0.24,1.13,1.02,1.18
		C388.63,91.64,389.23,91.61,389.91,91.61z"/>
	<path fill="#FFFFFF" d="M169.96,94.13c-0.31,0-0.63-0.04-0.94,0.01c-0.74,0.13-0.74-0.23-0.62-0.8c1.35-6.43,2.69-12.87,4.01-19.3
		c0.09-0.44,0.24-0.61,0.7-0.58c0.72,0.04,1.45,0.05,2.17,0c0.56-0.04,0.56,0.21,0.47,0.63c-0.7,3.35-1.39,6.69-2.09,10.04
		c-0.64,3.09-1.31,6.17-1.91,9.26c-0.12,0.61-0.32,0.84-0.92,0.75C170.54,94.1,170.25,94.13,169.96,94.13z"/>
	<path fill="#FFFFFF" d="M311.57,94.13c-1.67,0-1.66,0-1.31-1.65c1.28-6.15,2.56-12.29,3.81-18.44c0.09-0.44,0.23-0.61,0.7-0.59
		c0.67,0.04,1.35,0.06,2.02,0c0.69-0.07,0.73,0.21,0.61,0.77c-0.59,2.75-1.15,5.51-1.73,8.26c-0.75,3.6-1.52,7.2-2.23,10.81
		c-0.14,0.7-0.39,0.95-1.07,0.84C312.11,94.09,311.84,94.13,311.57,94.13z"/>
	<path fill="#FFFFFF" d="M321.68,79.17c0.45,0.08,1.18-0.26,1.48,0.15c0.26,0.34-0.12,1-0.22,1.52c-0.88,4.27-1.76,8.53-2.62,12.8
		c-0.08,0.38-0.23,0.52-0.62,0.51c-0.7-0.03-1.4-0.05-2.1,0c-0.62,0.05-0.72-0.18-0.6-0.73c0.56-2.61,1.1-5.23,1.64-7.84
		c0.39-1.88,0.8-3.76,1.16-5.66c0.11-0.58,0.29-0.87,0.92-0.76C321,79.21,321.29,79.17,321.68,79.17z"/>
	<path fill="#FFFFFF" d="M211.1,94.13c-1.68,0-1.68,0-1.33-1.69c0.87-4.19,1.75-8.39,2.59-12.59c0.11-0.52,0.28-0.75,0.83-0.7
		c0.65,0.05,1.3,0.04,1.95,0c0.55-0.04,0.7,0.09,0.57,0.68c-0.66,3.08-1.28,6.17-1.92,9.26c-0.3,1.46-0.65,2.91-0.9,4.38
		c-0.1,0.58-0.34,0.71-0.85,0.66C211.73,94.1,211.42,94.13,211.1,94.13z"/>
	<path fill="#FFFFFF" d="M214.73,76.65c-0.53-0.02-1.26,0.15-1.52-0.13c-0.28-0.3,0.11-0.98,0.2-1.49c0.27-1.57,0.28-1.57,1.87-1.57
		c0.02,0,0.05,0,0.07,0c0.54,0.04,1.28-0.24,1.57,0.13c0.22,0.27-0.1,0.99-0.21,1.5C216.41,76.63,216.4,76.63,214.73,76.65z"/>
	<path fill="#FFFFFF" d="M322.08,76.63c-0.43-0.05-1.16,0.23-1.43-0.11c-0.27-0.34,0.12-0.99,0.22-1.51
		c0.29-1.55,0.29-1.55,1.83-1.55c0.38,0,0.77,0.04,1.15-0.01c0.58-0.08,0.61,0.21,0.51,0.65c-0.15,0.65-0.33,1.31-0.41,1.97
		c-0.05,0.49-0.28,0.59-0.7,0.55C322.9,76.6,322.53,76.63,322.08,76.63z"/>
	<path fill="#FFFFFF" d="M439.37,21.49c-0.49-2.18-1.69-3.86-3.59-5.03c-1.82-1.12-3.84-1.52-5.94-1.53c-4.71-0.01-9.41,0-14.12,0
		c-3.52,0-7.05,0-10.57,0c-0.94,0-1.19,0.2-1.43,1.08c-0.65,2.42-1.31,4.83-1.95,7.25c-0.27,1.01,0.13,1.53,1.17,1.58
		c0.24,0.01,0.48,0.01,0.72,0.01c7.87,0,15.74-0.01,23.6,0c1.16,0,2.32,0.12,3.41,0.54c1.7,0.66,2.36,1.9,1.93,3.68
		c-0.39,1.61-0.88,3.2-1.25,4.82c-0.14,0.63-0.42,0.77-1.02,0.77c-8.5-0.02-16.99-0.02-25.49-0.01c-3.82,0-6.73,2.1-7.69,5.57
		c-1.39,5.06-2.78,10.12-4.09,15.2c-0.67,2.6,0.07,4.86,2.09,6.66c1.94,1.71,4.3,2.2,6.78,2.21c5.55,0.02,11.1,0.01,16.65,0
		c0.72,0,1.46-0.02,2.16-0.18c5.57-1.24,9.28-4.65,10.91-10.05c1.69-5.6,3.04-11.3,4.53-16.95c1.11-4.21,2.22-8.42,3.33-12.63
		c0-0.87,0-1.74,0-2.61C439.38,21.78,439.4,21.62,439.37,21.49z M427.05,49.6c-1.03,2.86-3.99,4.73-7.3,4.74
		c-4.25,0.02-8.5,0-12.74,0c-1.01,0-2.03,0.02-3.04,0c-1.89-0.04-3.63-1.51-4.04-3.35c-0.21-0.94,0.06-1.79,0.58-2.53
		c1.72-2.45,3.92-4.03,7.1-4c6.68,0.05,13.37,0.01,20.06,0.01c0.26,0,0.52,0,0.87,0C428.02,46.23,427.64,47.95,427.05,49.6z"/>
	<path fill="#FFFFFF" d="M258.96,17.33c-1.85-1.77-4.15-2.39-6.63-2.4c-5.82-0.02-11.63-0.01-17.45-0.01
		c-0.34,0-0.68,0.02-1.01,0.06c-5.85,0.59-10.52,5.69-11.73,10.26c-2.51,9.49-5.02,18.99-7.51,28.49c-1.12,4.26,0.91,8.16,5,9.77
		c1.55,0.61,3.17,0.79,4.82,0.8c7.92,0.01,15.83,0.01,23.75,0.01c0.24,0,0.48,0,0.72,0c0.66-0.02,1.08-0.34,1.25-0.99
		c0.66-2.49,1.33-4.98,1.98-7.47c0.23-0.86-0.19-1.42-1.07-1.48c-0.19-0.01-0.39,0-0.58,0c-7.89,0-15.78,0-23.68,0
		c-1.26,0-2.51-0.1-3.69-0.58c-1.53-0.62-2.22-1.7-1.9-3.3c0.36-1.79,0.92-3.54,1.34-5.32c0.13-0.53,0.36-0.67,0.88-0.66
		c4.42,0.02,8.83,0.01,13.25,0.01c4.32,0,8.64,0,12.96,0c3.18,0,6.15-2.22,7-5.29c1.42-5.15,2.81-10.31,4.16-15.48
		C261.48,21.25,260.8,19.09,258.96,17.33z M253,31.33c-0.51,0.68-1.12,1.26-1.8,1.77c-1.45,1.08-3.03,1.7-4.89,1.66
		c-3.26-0.06-6.52-0.02-9.77-0.02c-3.5,0-7-0.01-10.5,0.01c-0.51,0-0.67-0.07-0.49-0.63c0.34-1.08,0.64-2.17,0.88-3.28
		c0.93-4.21,4.62-5.96,7.55-5.99c5.29-0.04,10.57-0.03,15.86,0c1.74,0.01,3.02,0.92,3.82,2.44C254.44,28.78,253.93,30.1,253,31.33z"
		/>
	<path fill="#FFFFFF" d="M185.96,21.04c-0.71-3.5-4.01-6.09-7.79-6.11c-3.09-0.02-6.18,0-9.27,0c-2.8,0-5.6,0.05-8.4-0.02
		c-2.33-0.06-4.44,0.57-6.36,1.81c-3.18,2.05-5.83,4.62-6.86,8.37c-2.7,9.74-5.28,19.51-7.9,29.27c-0.52,1.92-0.25,3.75,0.72,5.44
		c1.71,2.96,4.33,4.46,7.74,4.48c5.33,0.04,10.67-0.06,16,0.04c3.19,0.06,5.97-0.88,8.47-2.77c2.39-1.8,4.41-3.92,5.22-6.91
		c2.75-10.15,5.48-20.31,8.22-30.46C186.04,23.14,186.17,22.09,185.96,21.04z M178.9,29.96c-1.69,6.35-3.38,12.7-5.07,19.05
		c-0.8,2.98-3.88,5.33-6.97,5.34c-2.7,0-5.41,0-8.11,0c-2.73,0-5.46-0.01-8.18,0c-1.07,0-2.05-0.26-2.92-0.88
		c-1.26-0.9-1.71-2.18-1.3-3.68c1.8-6.57,3.61-13.14,5.41-19.7c0.78-2.83,3.9-5.32,6.94-5.26c5.33,0.11,10.67,0.03,16,0.03
		c2.18,0,3.89,1.33,4.33,3.33C179.14,28.79,179.05,29.37,178.9,29.96z"/>
	<path fill="#FFFFFF" d="M208.52,79.15c-0.6,0.05-1.21,0.06-1.81,0c-0.58-0.06-0.75,0.21-0.81,0.71c-0.07,0.53-0.1,1.08-0.35,1.66
		c-0.61-1.36-1.55-2.26-2.94-2.56c-2.44-0.52-4.68-0.07-6.49,1.71c-2.45,2.41-3.24,5.45-2.74,8.76c0.49,3.29,3.06,5.06,6.36,4.64
		c1.45-0.18,2.55-0.93,3.57-2.18c-0.28,1.19-0.43,2.16-0.77,3.09c-0.46,1.25-1.24,2.18-2.62,2.43c-1.03,0.19-2.06,0.17-3.06-0.2
		c-0.54-0.2-1.13-0.51-1.2-1.06c-0.14-1.11-0.85-0.98-1.59-0.96c-0.48,0.02-0.97,0.03-1.45-0.01c-0.49-0.04-0.57,0.17-0.52,0.59
		c0.2,1.72,1.15,2.87,2.7,3.56c1.52,0.67,3.12,0.71,4.75,0.64c3.22-0.15,5.07-1.55,6.05-4.63c0.48-1.52,0.74-3.09,1.09-4.64
		c0.8-3.62,1.57-7.25,2.37-10.86C209.18,79.32,209.12,79.1,208.52,79.15z M202.47,90.42c-1.02,1-2.33,1.23-3.7,0.95
		c-1.19-0.25-2.02-1.36-2.16-2.77c-0.03-0.29,0-0.58,0-0.87c0.03-1.94,0.55-3.7,1.92-5.14c0.91-0.95,2.05-1.32,3.35-1.17
		c1.29,0.15,2.3,0.93,2.54,2.22C204.89,86.2,204.39,88.55,202.47,90.42z"/>
	<path fill="#FFFFFF" d="M308.47,93.57c-1.14-6.52-2.27-13.05-3.38-19.58c-0.07-0.41-0.24-0.56-0.67-0.54
		c-0.84,0.04-1.69,0.05-2.53,0c-0.56-0.04-0.86,0.16-1.14,0.64c-1.63,2.78-3.3,5.55-4.96,8.31c-2.23,3.72-4.45,7.44-6.69,11.15
		c-0.27,0.45-0.28,0.61,0.31,0.59c0.92-0.03,1.83-0.03,2.75,0c0.39,0.01,0.6-0.13,0.79-0.47c0.85-1.49,1.74-2.94,2.57-4.44
		c0.25-0.45,0.53-0.59,1.02-0.57c1.11,0.03,2.22,0.01,3.33,0.01c1.16,0,2.32,0.02,3.47-0.01c0.49-0.01,0.72,0.08,0.78,0.64
		c0.18,1.46,0.45,2.9,0.65,4.36c0.05,0.36,0.18,0.49,0.54,0.48c0.89-0.02,1.79-0.03,2.68,0C308.48,94.16,308.55,94.03,308.47,93.57z
		 M303.29,85.9c-1.92-0.01-3.84,0-5.88,0c1.65-2.93,3.25-5.76,4.95-8.77c0.2,1.32,0.38,2.45,0.54,3.59
		c0.23,1.57,0.43,3.15,0.67,4.72C303.6,85.71,303.69,85.9,303.29,85.9z"/>
	<path fill="#FFFFFF" d="M230.59,91.8c-1.02,0.22-1.29-0.08-1.11-1.09c0.02-0.12,0.05-0.23,0.08-0.35c0.48-2.36,1.01-4.71,1.44-7.07
		c0.44-2.4-0.47-3.74-2.85-4.26c-1.71-0.38-3.46-0.38-5.17-0.02c-2.28,0.49-3.82,1.84-4.44,4.15c-0.11,0.42-0.09,0.62,0.43,0.59
		c0.65-0.04,1.3-0.03,1.95,0c0.43,0.02,0.71-0.04,0.84-0.53c0.15-0.55,0.53-0.97,1.04-1.25c1.15-0.64,2.39-0.7,3.64-0.41
		c0.98,0.23,1.38,0.86,1.3,1.87c-0.07,0.93-0.59,1.53-1.52,1.64c-1.05,0.12-2.11,0.19-3.17,0.27c-1.72,0.13-3.41,0.35-4.85,1.44
		c-1.38,1.04-1.83,2.5-1.7,4.15c0.13,1.6,1.05,2.65,2.52,3.23c1.15,0.45,2.35,0.44,3.56,0.24c1.32-0.22,2.48-0.79,3.51-1.67
		c0.39,1.34,1.05,1.85,2.24,1.8c2.17-0.1,2.37-0.23,2.71-1.8c0.03-0.12,0.02-0.25,0.06-0.36C231.35,91.76,231.19,91.67,230.59,91.8z
		 M223.55,91.75c-0.73,0.17-1.48,0.17-2.22-0.03c-0.82-0.22-1.38-0.68-1.51-1.54c-0.12-0.77,0.33-1.6,1.12-2.02
		c0.91-0.49,1.92-0.59,2.93-0.67c1.05-0.08,2.12-0.08,3.14-0.67C226.9,89.39,225.55,91.29,223.55,91.75z"/>
	<path fill="#FFFFFF" d="M364.19,82.19c-0.56-1.38-1.5-2.45-2.92-2.94c-2.56-0.88-5.09-0.74-7.32,0.86
		c-3.12,2.24-4.17,5.47-3.69,9.16c0.36,2.79,2.17,4.54,4.91,5.1c0.93,0.19,1.87,0.17,2.81,0.06c2.78-0.34,4.73-1.76,5.73-4.42
		c0.17-0.45,0.1-0.59-0.4-0.57c-0.75,0.04-1.5,0.02-2.24,0.01c-0.31-0.01-0.5,0.04-0.66,0.39c-0.8,1.69-2.62,2.42-4.59,1.9
		c-1.67-0.44-2.43-1.67-2.35-3.65c0.02-0.51,0.22-0.58,0.65-0.58c1.64,0.02,3.28,0.01,4.92,0.01c1.67,0,3.33-0.01,5,0.01
		c0.44,0.01,0.64-0.09,0.68-0.57C364.87,85.33,364.81,83.73,364.19,82.19z M361.46,85.02c-0.05,0.27-0.17,0.3-0.38,0.3
		c-2.38,0-4.76,0-7.15,0c0.37-2.49,2.53-4.18,4.93-3.9C360.62,81.61,361.8,83.27,361.46,85.02z"/>
	<path fill="#FFFFFF" d="M117.19,82.12c-0.6-1.46-1.63-2.53-3.15-2.97c-2.64-0.77-5.2-0.56-7.4,1.21c-2.9,2.34-3.86,5.51-3.32,9.11
		c0.38,2.5,1.94,4.08,4.35,4.78c1.08,0.31,2.19,0.31,3.3,0.18c2.77-0.33,4.74-1.73,5.74-4.4c0.17-0.45,0.09-0.61-0.41-0.59
		c-0.75,0.03-1.5,0.02-2.24,0c-0.33-0.01-0.5,0.09-0.65,0.41c-0.82,1.69-2.64,2.4-4.67,1.86c-1.58-0.42-2.36-1.71-2.26-3.64
		c0.02-0.43,0.15-0.57,0.6-0.57c1.66,0.03,3.33,0.01,4.99,0.01c1.69,0,3.38-0.01,5.07,0.01c0.39,0,0.54-0.1,0.59-0.5
		C117.93,85.34,117.83,83.7,117.19,82.12z M114.48,85.04c-0.03,0.36-0.27,0.27-0.46,0.27c-1.11,0.01-2.22,0-3.33,0
		c-1.11,0-2.22,0-3.33,0c-0.24,0-0.53,0.05-0.39-0.36c0.68-2.04,2.12-3.7,4.64-3.56C113.44,81.5,114.7,82.79,114.48,85.04z"/>
	<path fill="#FFFFFF" d="M255.69,84.41c-0.26-2.31-1.11-4.33-3.47-5.15c-3.05-1.06-5.92-0.62-8.31,1.68
		c-2.17,2.09-2.97,4.77-2.78,7.7c0.17,2.63,1.48,4.56,4.04,5.46c1.64,0.58,3.32,0.52,4.98,0.08c2.45-0.65,3.93-2.26,4.68-4.74
		c-1.06,0-2.04,0-3.03,0c-0.33,0-0.36,0.25-0.46,0.46c-0.78,1.56-2.54,2.29-4.44,1.85c-1.67-0.38-2.44-1.49-2.49-3.4
		c-0.02-0.71,0.21-0.87,0.89-0.87c3.18,0.04,6.37-0.01,9.56,0.03c0.65,0.01,0.86-0.22,0.85-0.81
		C255.69,85.95,255.77,85.17,255.69,84.41z M252.42,84.97c-0.03,0.35-0.23,0.35-0.48,0.35c-1.13-0.01-2.27,0-3.4,0
		c-1.06,0-2.12-0.03-3.18,0.01c-0.54,0.02-0.52-0.16-0.37-0.57c0.82-2.32,2.51-3.54,4.72-3.35
		C251.66,81.59,252.6,83.08,252.42,84.97z"/>
	<path fill="#FFFFFF" d="M190.95,84.2c-0.18-2.45-1.57-4.36-3.79-5.04c-2.05-0.63-4.1-0.57-6.08,0.28
		c-3.51,1.52-5.67,5.68-5.11,9.67c0.32,2.24,1.28,4.04,3.47,4.84c2.84,1.04,5.63,0.76,8.1-1.06c2.53-1.87,3.38-4.58,3.42-7.61
		C190.95,84.92,190.98,84.56,190.95,84.2z M187.63,85.34c-0.06,2.06-0.58,3.95-2.14,5.42c-1.04,0.98-2.31,1.28-3.69,1.03
		c-1.26-0.23-2.11-1.02-2.37-2.25c-0.56-2.65,0.06-5.03,1.96-7c0.95-0.98,2.19-1.29,3.53-1.1c1.53,0.22,2.54,1.37,2.7,3.04
		C187.65,84.76,187.63,85.05,187.63,85.34z"/>
	<path fill="#FFFFFF" d="M166.56,82.67c-0.43-1.74-1.65-2.93-3.38-3.48c-2.17-0.69-4.33-0.62-6.41,0.36
		c-3.43,1.61-5.49,5.84-4.84,9.76c0.37,2.27,1.47,3.94,3.69,4.76c0.89,0.33,1.83,0.41,2.69,0.44c2.29-0.02,4.3-0.61,5.87-2.21
		C166.83,89.57,167.45,86.26,166.56,82.67z M161.83,90.36c-1.03,1.18-2.34,1.66-3.89,1.47c-1.48-0.18-2.54-1.26-2.71-2.94
		c-0.23-2.22,0.28-4.27,1.75-6c0.99-1.17,2.3-1.64,3.82-1.46c1.54,0.18,2.59,1.35,2.77,3.06c0.03,0.29,0.03,0.58,0.04,0.9
		C163.52,87.2,163.07,88.92,161.83,90.36z"/>
	<path fill="#FFFFFF" d="M407.21,83.06c-0.39-2-1.69-3.34-3.64-3.93c-1.89-0.58-3.82-0.54-5.68,0.17c-3.35,1.28-5.51,4.7-5.51,8.78
		c0.02,0.29,0.02,0.7,0.08,1.1c0.3,2.17,1.26,3.96,3.39,4.74c3.04,1.11,6,0.82,8.5-1.32C407.28,90.09,407.92,86.72,407.21,83.06z
		 M404.15,85.31c-0.11,2.02-0.6,3.91-2.11,5.38c-1.02,1-2.28,1.34-3.66,1.12c-1.42-0.23-2.31-1.13-2.53-2.53
		c-0.41-2.57,0.16-4.9,2.05-6.78c0.99-0.99,2.25-1.28,3.61-1.05c1.59,0.27,2.54,1.53,2.64,3.42
		C404.16,85.02,404.15,85.16,404.15,85.31z"/>
</g>
</svg>
