<?xml version="1.0" encoding="utf-8"?>
<!-- Generator: Adobe Illustrator 19.0.0, SVG Export Plug-In . SVG Version: 6.00 Build 0)  -->
<svg version="1.1" id="Layer_1" xmlns="http://www.w3.org/2000/svg" xmlns:xlink="http://www.w3.org/1999/xlink" x="0px" y="0px"
	 viewBox="0 0 1077.1 1077.1" style="enable-background:new 0 0 1077.1 1077.1;" xml:space="preserve">
<style type="text/css">
	.st0{opacity:0.8;}
	.st1{fill:#FFFFFF;}
</style>
<g id="g52202_1_" class="st0">
	<g id="XMLID_71_">
		<g id="g52208_9_" transform="translate(418.8803,243.8706)">
			<path id="path52210_9_" inkscape:connector-curvature="0" class="st1" d="M-450.1-151.1c50.9,0,191.7,6.8,100.5,272.7
				c-94.6,279-305.6,221.8-305.6,221.8L-500-151.1H-450.1z M-72.5,139.3C46.1-153.3-176.8-233.4-321.3-233.4h-478.8
				c39.7,27.6,33.1,64.2,25.7,86l-279.3,892.9c-11,35.9-53.3,72.1-75.4,78.7h387.9c-21.9-4.3-52.1-34.7-40.7-75.8l101.3-323
				C-680.6,425.3-214.1,488.4-72.5,139.3"/>
		</g>
		<g id="g52212_9_" transform="translate(431.4747,224.1106)">
			<path id="path52214_9_" inkscape:connector-curvature="0" class="st1" d="M71.4,706.6C56.1,716-4.5,746.8-61.2,752
				c-53.2,4.7-140.6-15.4-140.6-120.6c0-91,98.7-155.8,150.9-179.3C-27.2,539.3,19.9,638.6,71.4,706.6 M224.2,137.9
				c-12.9,85.4-122.6,171.4-149.6,182.3c-4.9-47.7-3.2-123.5,36.5-184.8c27.4-40.7,62.2-58.5,90.2-48.6
				C224.2,94.7,227,115.3,224.2,137.9 M224.2,843.9h261.8c-83.6-27.4-207.2-106.4-256.7-162.4c40.2-42.9,89-97.7,98.2-208.7H191.9
				c0,0,26.9,14.3,26.9,46.3c0,29.7-12,70.1-34.9,98.8c-39.4-58.8-82.3-125.9-97.4-224.5c53.1-26.4,128.3-54.9,187-106.4
				c56.8-49.9,69.5-95.5,70.3-126.3v-4c0-31.8-11.8-60.9-35.4-83.9c-38.8-38.9-100.9-54.2-165.7-43C89.8,40.1,46,67.6,24.5,88
				c-80.2,73.7-90.2,196.3-90.2,251.4c0,12.3,0.9,23.4,1.2,29.3c-3.8,1.2-12.9,5-12.9,5c-56.7,20.9-210.4,62-265.4,188.3
				c-6.9,15.6-17,50.8-17,91.4c0,34.2,6.9,72.8,29.2,108.7c39.4,60.3,104.5,97.9,209.9,96.3c114.3-1.4,227.2-79.8,246.7-94
				C146.2,783.2,198.1,831.1,224.2,843.9"/>
		</g>
		<g id="g52216_9_" transform="translate(453.7923,243.8516)">
			<path id="path52218_9_" inkscape:connector-curvature="0" class="st1" d="M995.4-150.2c155.5-37.1,283.6,84.7,295.5,92.2
				l43.5-140.3c-61-18.5-506-169.5-820.5,189.8C320.7,212.6,272.2,664.9,518.2,786c262.7,130.1,553.2-19.8,573.6-29.9l120.7-381.2
				c12.8-46.9,41.6-77,93.6-96H889.7c60.5,25.7,56.4,71.2,51.1,89.9L821.2,750.9c-16.1,2.7-351.3,86.3-163.7-500.1
				C697.3,125.4,811.3-105.3,995.4-150.2"/>
		</g>
	</g>
</g>
</svg>
