<?xml version="1.0" encoding="utf-8"?>
<!-- Generator: Adobe Illustrator 19.0.0, SVG Export Plug-In . SVG Version: 6.00 Build 0)  -->
<svg version="1.1" id="Layer_1" xmlns="http://www.w3.org/2000/svg" xmlns:xlink="http://www.w3.org/1999/xlink" x="0px" y="0px"
	 viewBox="0 0 1077.1 467.1" style="enable-background:new 0 0 1077.1 467.1;" xml:space="preserve">
<style type="text/css">
	.st0{fill:#FFFFFF;}
</style>
<g id="g52202_1_">
	<g id="g52208_2_" transform="translate(418.8803,243.8706)">
		<path id="path52210_2_" inkscape:connector-curvature="0" class="st0" d="M-125.9-203.2c21.9,0,82.6,2.9,43.3,117.5
			C-123.4,34.5-214.3,9.8-214.3,9.8l66.8-213H-125.9z M36.7-78.1c51.1-126-44.9-160.5-107.2-160.5h-206.2
			c17.1,11.9,14.2,27.7,11.1,37L-386,183c-4.7,15.5-23,31.1-32.5,33.9h167.1c-9.4-1.8-22.4-15-17.5-32.6l43.6-139.1
			C-225.2,45.1-24.3,72.3,36.7-78.1"/>
	</g>
	<g id="g52212_2_" transform="translate(431.4747,224.1106)">
		<path id="path52214_2_" inkscape:connector-curvature="0" class="st0" d="M91.5,177.5c-6.6,4.1-32.7,17.3-57.1,19.6
			c-22.9,2-60.6-6.6-60.6-52c0-39.2,42.5-67.1,65-77.2C49,105.4,69.4,148.2,91.5,177.5 M157.4-67.4c-5.6,36.8-52.8,73.8-64.5,78.5
			c-2.1-20.6-1.4-53.2,15.7-79.6c11.8-17.6,26.8-25.2,38.9-20.9C157.4-86.1,158.5-77.2,157.4-67.4 M157.4,236.6h112.8
			c-36-11.8-89.3-45.8-110.6-69.9c17.3-18.5,38.3-42.1,42.3-89.9h-58.4c0,0,11.6,6.2,11.6,20c0,12.8-5.2,30.2-15,42.6
			c-17-25.3-35.5-54.2-42-96.7c22.9-11.4,55.3-23.6,80.5-45.8c24.5-21.5,30-41.2,30.3-54.4v-1.7c0-13.7-5.1-26.2-15.3-36.1
			c-16.7-16.8-43.5-23.4-71.4-18.5c-22.8,4.4-41.6,16.3-50.9,25C36.8-57.2,32.5-4.4,32.5,19.3c0,5.3,0.4,10.1,0.5,12.6
			c-1.6,0.5-5.6,2.2-5.6,2.2C3,43.1-63.2,60.8-86.9,115.2c-3,6.7-7.3,21.9-7.3,39.4c0,14.7,3,31.4,12.6,46.8
			c17,26,45,42.2,90.4,41.5c49.2-0.6,97.9-34.4,106.3-40.5C123.7,210.5,146.1,231.1,157.4,236.6z"/>
	</g>
	<g id="g52216_2_" transform="translate(453.7923,243.8516)">
		<path id="path52218_2_" inkscape:connector-curvature="0" class="st0" d="M476.8-202.8c67-16,122.2,36.5,127.3,39.7l18.8-60.4
			c-26.3-8-217.9-73-353.4,81.8c-83.3,95.2-104.1,290.1,1.8,342.2c113.2,56,238.3-8.5,247.1-12.9l52-164.2
			c5.5-20.2,17.9-33.2,40.3-41.3H431.3c26,11.1,24.3,30.7,22,38.7l-51.5,164.6c-6.9,1.2-151.3,37.2-70.5-215.4
			C348.4-84.1,397.5-183.4,476.8-202.8"/>
	</g>
</g>
</svg>
