<?xml version="1.0" encoding="utf-8"?>
<!-- Generator: Adobe Illustrator 19.0.0, SVG Export Plug-In . SVG Version: 6.00 Build 0)  -->
<svg version="1.1" id="Layer_1" xmlns="http://www.w3.org/2000/svg" xmlns:xlink="http://www.w3.org/1999/xlink" x="0px" y="0px"
	 viewBox="0 0 1077.1 1077.1" style="enable-background:new 0 0 1077.1 1077.1;" xml:space="preserve">
<style type="text/css">
	.st0{opacity:0.8;}
	.st1{fill:#FFFFFF;}
</style>
<g id="XMLID_678_" class="st0">
	<g id="XMLID_303_">
		<g id="XMLID_338_" transform="matrix(5.3483 0 0 -5.3483 221.15 66.479)">
			<path id="XMLID_339_" class="st1" d="M106.5-73.6c16.3,7.2,27,18,27.6,29.9c0,0-4.3,3.3-18.2,8.4c-12.2,4.5-21.6,5.5-21.6,5.5
				l0-26.7c0-4-1.6-8.1-4.6-11.7c-9.2,2.2-19.5,3.5-30.2,3.5h0c-10.7,0-20.9-1.3-30.2-3.5c-3,3.6-4.6,7.7-4.6,11.7l0,26.7
				c0,0-9.3-1-21.6-5.5C-10.7-40.4-15-43.7-15-43.7c0.6-12,11.2-22.8,27.6-30c-16.3-7.2-27-18-27.6-29.9c0,0,4.3-3.3,18.2-8.4
				c12.2-4.5,21.6-5.5,21.6-5.5l0,26.7c0,4,1.6,8.1,4.6,11.7c9.2-2.2,19.5-3.5,30.2-3.5h0c10.7,0,21,1.3,30.2,3.5
				c3-3.6,4.6-7.7,4.6-11.7l0-26.7c0,0,9.3,1,21.6,5.5c13.9,5.1,18.2,8.4,18.2,8.4C133.5-91.6,122.8-80.8,106.5-73.6 M59.5-79.6
				L59.5-79.6l-0.3,0c-9.7,0-17.6,2.4-23.3,6c5.8,3.6,13.7,6,23.4,6l0.3,0h0l0.3,0c9.7,0,17.6-2.4,23.3-6c-5.8-3.6-13.7-6-23.4-6"/>
		</g>
		<g id="XMLID_336_" transform="matrix(5.3483 0 0 -5.3483 8.1081 176.02)">
			<path id="XMLID_337_" class="st1" d="M3.4-126.6c-4.7,0-4.8,3.6-4.8,5v6.5c0,0.4,0,0.9,0.8,0.9h2.4c0.8,0,0.7-0.6,0.7-0.9v-6.5
				c0-0.5,0.1-1.7,1.8-1.7h4.1c1.7,0,1.8,1.2,1.8,1.7v6.5c0,0.4,0,0.9,0.7,0.9h2.4c0.9,0,0.8-0.6,0.8-0.9v-6.5c0-1.4-0.1-5-4.8-5"/>
		</g>
		<g id="XMLID_334_" transform="matrix(5.3483 0 0 -5.3483 41.561 174.85)">
			<path id="XMLID_335_" class="st1" d="M19.6-126.1c-1.7,2.2-4,5-6.4,8v-7.9c0-0.3,0.1-0.9-0.7-0.9h-2.3c-0.8,0-0.7,0.5-0.7,0.9
				v10.6c0,0.4,0,0.9,0.7,0.9h4.4c1.2,0,3-2.5,4.2-4.2c0.9-1.3,2.6-3.2,3.7-4.6v7.8c0,0.4-0.1,0.9,0.8,0.9h2.5
				c0.8,0,0.7-0.6,0.7-0.9v-11.5h-4.5C20.9-126.8,20.5-126.9,19.6-126.1"/>
		</g>
		<g id="XMLID_330_" transform="matrix(5.3483 0 0 -5.3483 69.324 171.17)">
			<path id="XMLID_331_" class="st1" d="M33-124.3c2,0,1.8,1.9,1.8,2.8c0,2.9-0.8,3-2.1,3h-6.2v-5.8H33z M22.7-127.5v12.4h10.9
				c0.7,0,5.1,0.1,5.1-4.6c0-4.8,0.5-7.7-5-7.7h-5.9l-1.3,2.6v-2.6"/>
		</g>
		<g id="XMLID_328_" transform="matrix(5.3483 0 0 -5.3483 84.219 157.73)">
			<path id="XMLID_329_" class="st1" d="M40.2-117.8h10.1c0.9,0,0.7-0.6,0.7-1.6c0-1,0.1-1.5-0.7-1.5h-7.9c-0.2,0-0.9,0.1-0.9-0.6
				s-0.1-1.1,0.7-1.1h7c0,0,1-1.9,1.1-2.3c0.2-0.3,0.1-0.6-0.5-0.6h-7.3l-1.1,2.2v-3.2c0-0.8,0.7-0.6,0.9-0.6h8.3
				c0.8,0,0.8-0.6,0.8-1.5c0-1,0.1-1.6-0.8-1.6H40c-0.9,0-2.6,0.3-2.6,3v6.8C37.5-119.6,37.8-117.8,40.2-117.8"/>
		</g>
		<g id="XMLID_324_" transform="matrix(5.3483 0 0 -5.3483 117.42 162.47)">
			<path id="XMLID_325_" class="st1" d="M56.3-120.1h-4.9c-0.8,0-0.8-0.3-0.8-0.5v-2.2h5c2.4,0,2.4,0.6,2.4,1.2
				C58.1-120.3,58-120.1,56.3-120.1 M47.5-116.8h11c1.5,0,3.6,0,3.6-4c0-2.6-0.6-2.7-1.7-3.5c2-0.3,1.7-2.9,1.7-4.2
				c0-0.7-0.2-0.7-0.4-0.7h-3.2c-0.7,0-0.5,1.1-0.5,1.6c0,1.5-0.9,1.5-1.2,1.5H52c-0.5,0.8-1.3,2.6-1.3,2.6v-5.1
				c0-0.4-0.4-0.5-0.6-0.5h-3.2c0.2,0-0.3,0-0.3,0.4v10.9C46.5-117.1,47.1-116.8,47.5-116.8"/>
		</g>
		<g id="XMLID_320_" transform="matrix(5.3483 0 0 -5.3483 152.46 162.83)">
			<path id="XMLID_321_" class="st1" d="M73.3-120.2l-2-3.7l0.2-0.2h3.8l0.2,0.2c-0.1,0.3-1.8,3.4-1.9,3.7L73.3-120.2 M74.6-116.8
				c0.8,0,1.6-0.4,2.4-2c0.6-1.2,4.6-8.4,5.4-9.9v-0.4h-4.2L77-127H72c0,0-0.9,1.9-1.1,2.5c-0.3-0.5-2-3.7-2.6-4.6h-4.2v0.3
				c0.9,1.6,6.7,12.1,6.7,12.1"/>
		</g>
		<g id="XMLID_316_" transform="matrix(5.3483 0 0 -5.3483 182.38 162.47)">
			<path id="XMLID_317_" class="st1" d="M87.7-120.1h-4.9c-0.8,0-0.8-0.3-0.8-0.5v-2.2h5c2.4,0,2.4,0.6,2.4,1.2
				C89.5-120.3,89.4-120.1,87.7-120.1 M79-116.8h11c1.5,0,3.6,0,3.6-4c0-2.6-0.6-2.7-1.7-3.5c2-0.3,1.7-2.9,1.7-4.2
				c0-0.7-0.2-0.7-0.4-0.7h-3.2c-0.7,0-0.5,1.1-0.5,1.6c0,1.5-0.9,1.5-1.2,1.5h-4.7c-0.5,0.8-1.3,2.6-1.3,2.6v-5.1
				c0-0.4-0.4-0.5-0.6-0.5h-3.2c0.2,0-0.3,0-0.3,0.4v10.9C78-117.1,78.5-116.8,79-116.8"/>
		</g>
		<g id="XMLID_314_" transform="matrix(5.3483 0 0 -5.3483 205.46 176.02)">
			<path id="XMLID_315_" class="st1" d="M98.9-126.6c-0.8,1.5-3.1,5.8-4.6,8.6v-7.7c0-0.3,0-0.9-0.7-0.9h-2.2
				c-0.8,0-0.8,0.5-0.8,0.9v10.6c0,0.4,0,0.9,0.8,0.9h3.8c0.6,0,1.4,0.1,2.3-1.7c0.7-1.5,2.1-4.5,3.1-6.1c1,1.6,2.5,4.7,3.2,6.1
				c0.9,1.8,1.7,1.7,2.3,1.7h3.8c0.8,0,0.7-0.5,0.7-0.9v-10.6c0-0.3,0.1-0.9-0.7-0.9h-2.2c-0.8,0-0.8,0.5-0.8,0.9v7.7
				c-1.6-2.8-3.8-7-4.7-8.6"/>
		</g>
		<g id="XMLID_310_" transform="matrix(5.3483 0 0 -5.3483 241.35 171.33)">
			<path id="XMLID_311_" class="st1" d="M116.3-124.4c1.9,0,1.8,1.9,1.8,3.2c0,1.1,0.3,2.9-2.1,2.9h-4.1c-2.4,0-2.1-1.8-2.1-2.9
				c0-1.3-0.1-3.2,1.7-3.2H116.3z M108.9-127.5c-3.7,0-3.5,3.9-3.5,6.5c0,2.3-0.3,6,4.3,6h8.1c4.6,0,4.3-3.7,4.3-6
				c0-2.5,0.2-6.5-3.5-6.5"/>
		</g>
		<g id="XMLID_308_" transform="matrix(5.3483 0 0 -5.3483 259.22 176.02)">
			<path id="XMLID_309_" class="st1" d="M124.9-126.6c-4.7,0-4.8,3.6-4.8,5v6.5c0,0.4,0,0.9,0.8,0.9h2.4c0.8,0,0.7-0.6,0.7-0.9v-6.5
				c0-0.5,0.1-1.7,1.8-1.7h4.1c1.7,0,1.8,1.2,1.8,1.7v6.5c0,0.4-0.1,0.9,0.7,0.9h2.4c0.9,0,0.8-0.6,0.8-0.9v-6.5c0-1.4-0.1-5-4.8-5"
				/>
		</g>
		<g id="XMLID_304_" transform="matrix(5.3483 0 0 -5.3483 292.25 162.47)">
			<path id="XMLID_305_" class="st1" d="M140.9-120.1H136c-0.8,0-0.8-0.3-0.8-0.5v-2.2h5c2.4,0,2.4,0.6,2.4,1.2
				C142.7-120.3,142.6-120.1,140.9-120.1 M132.1-116.8h11c1.5,0,3.6,0,3.6-4c0-2.6-0.6-2.7-1.7-3.5c2-0.3,1.7-2.9,1.7-4.2
				c0-0.7-0.2-0.7-0.4-0.7h-3.2c-0.7,0-0.5,1.1-0.5,1.6c0,1.5-0.9,1.5-1.2,1.5h-4.8c-0.5,0.8-1.3,2.6-1.3,2.6v-5.1
				c0-0.4-0.4-0.5-0.6-0.5h-3.2c0.2,0-0.3,0-0.3,0.4v10.9C131.1-117.1,131.6-116.8,132.1-116.8"/>
		</g>
	</g>
</g>
</svg>
