<?xml version="1.0" encoding="utf-8"?>
<!-- Generator: Adobe Illustrator 19.0.0, SVG Export Plug-In . SVG Version: 6.00 Build 0)  -->
<svg version="1.1" id="Layer_1" xmlns="http://www.w3.org/2000/svg" xmlns:xlink="http://www.w3.org/1999/xlink" x="0px" y="0px"
	 viewBox="0 0 1077.1 1077.1" style="enable-background:new 0 0 1077.1 1077.1;" xml:space="preserve">
<style type="text/css">
	.st0{opacity:0.8;}
	.st1{fill:#FFFFFF;}
</style>
<g id="XMLID_775_" class="st0">
	<g id="XMLID_744_">
		<path id="XMLID_839_" class="st1" d="M182.7,942.1c-1.6-5-6.2-16.3-7.4-24.6c-2.8-18.4,6.9-30.5,15.7-33.3
			c9.9-2.8,13.8,2.2,17.6,13.8c5,17.6,5.5,40.7,3.8,73.8c-2.2,45.2-24.8,99.7-80.9,98.6c-48.5-1.1-69.9-32.5-72.2-80.4
			c-1.1-22.6,0.6-45.2,9.9-77.1c5-17.1,9.4-23.2,24.8-26.5c12.1-2.2,11,10.4,8.3,25.4c-6,33-8.8,49-6.6,86.4
			c2.2,39.6,20.4,55.1,40.2,55.1c29.7,0.6,42.9-24.2,48.5-60C188.8,964.7,185.5,950.9,182.7,942.1z M816.8,981.2
			c11.6,0,14.9,13.7,12.1,22c-2.8,8.2-12.7,17.6-28.1,20.4C797.5,1015.3,795.9,981.2,816.8,981.2z M601.5,999.9c0-9.3-5-17-11-17
			c-5,0-16.5,5.5-16.5,23.1c0,13.8,4.9,20.4,7.2,23.2C597.1,1024.1,601.5,1010.9,601.5,999.9z M430.2,887.5
			c-0.8-8.8-7.7-14.8-17.1-14.8c-10.4,0-20.3,11-19.2,24.7c0.7,9.1,6,16.6,16.5,16.6C422.5,914,431.3,900.2,430.2,887.5z
			 M519.8,919.9c-1-15.4-4.7-22.3-13-21.8c-11,0.7-16,35.2-13.8,71.4c1.4,23.7,5,27.3,8.2,27.1C507.3,996.3,521.9,954,519.8,919.9z
			 M885.1,977.9c-6.8,28.3-27.5,70-58.4,70c-7.1,0-19.8-2.8-19.8-9.9c0-7.7,48.5-8.8,48.5-45.7c0-13.7-12.7-33-31.4-33
			c-24.8,0-48.9,27-48.9,64.4c0,33.6,20.9,44.6,41.8,44.6c36.4,0,58.4-29.8,69.9-54.5c5.5,16.5,8.8,54.5,22.6,54.5
			c5.5,0,9.4-2.8,16-17.6c16.5-36.9,32.5-79.3,54.5-79.3c8.2,0,3.3,14.9,23.1,14.9c9.3,0,15.9-7.7,15.9-16.6
			c0-12.7-11.5-22.6-29.1-22.6c-51.8,0-62.7,77.6-71,77.6c-13.8,0-9.4-62.2-19.3-62.2C890.6,962.4,886.2,972.9,885.1,977.9z
			 M444.6,1043.9c8.3,0,22.4-2.7,33.6-20.6c-6.4-14.2-10.9-42.9-11.6-53.3c-3.3-53.4,17.3-103.6,39.8-105
			c16.5-1,29.7,14.6,31.2,39.9c4.1,66.5-18.1,94.3-29.2,118.2c1.9,9.3,17.6,25.1,32.5,25.1c5.5,0,12.1-2.8,13.8-5
			c-1.1-3.8-2.2-8.8-2.2-16c0-38.5,24.8-71,46.3-71c17.1,0,27,22.6,27,37.5c0,17.6-14.9,31.9-36.9,45.7c3.9,3.8,11,6.6,17.1,6.6
			c31.4,0,47.8-38,60-72.7c2.2-6.6,6.1-16,13.8-16c13.2,0,18.7,87,40.7,87c9.4,0,17.1-19.3,17.1-34.1c0-11-3.9-12.1-3.9-28.1
			c0-17.6,9.4-32.5,22.1-32.5c7.7,0,10.5,7.7,10.5,17c0,35.3-25.4,100.8-62.8,100.8c-28.1,0-25.9-48.5-35.8-48.5
			c-11.1,0-26.5,49-80.9,49c-8.9,0-18.2-4.4-25.9-13.2c-13.2,8.8-24.2,12.7-36.9,12.7c-20.4,0-29.2-20.9-37.4-20.9
			c-9.9,0-20.9,21.5-54,21.5c-26.4,0-30.8-35.2-40.2-35.2c-8.3,0-20.9,35.2-34.7,35.2c-23.2,0-28.1-61.1-48.5-61.1
			c-16,0-66.4,62.1-80.1,60.6c-5.5-0.6-7.8-4.7-7.2-10.2c0.8-7.6,7.3-28,10-37.7c4.5-16.7,8.5-35.1,10.8-41
			c2.3-5.9,8.4-10.1,13.3-9.7c2.5,0.2,3.2,4.8,4,8.7c2.8,13.6,6.7,27.5,11,27.5c7.7,0,33.3-49,48.1-49c18.2,0,20.4,77.1,45.1,77.1
			c8.3,0,14.4-9.9,19.8-22c0.6-20.4,6.1-49.5,22.6-49.5c11.6,0,17.1,25.9,8.8,48.5C415.4,1037.3,433,1043.9,444.6,1043.9"/>
		<path id="XMLID_835_" class="st1" d="M828.1,180.4c-4.1,0-9.9,0-13.2-6.4c-2.6-5.3-1.7-13.7-6.7-17.5c5,1.5,10.2,1.5,14.3,1.5
			c13.2,0,25.7-9.1,35.4-9.1c6.4,0,8.4,4.1,8.4,8.2C866.4,169.9,840.4,180.4,828.1,180.4z M834.5,213.4c30.4,0,58.2-24.2,58.2-45.6
			c0-9.9-4.7-18.1-16.7-19.6c2,2.6,2.9,4.7,2.9,9.4c0,16.1-24.5,33.9-51.1,33.9c-9.7,0-12.6,6.7-12.6,10.2
			C815.2,209.9,823.1,213.4,834.5,213.4z M832.2,225.7c3.8,27.7,45.9,65.2,57.3,64.3c7.6-0.6,10.5-36.2,10.5-64.3
			c0-16.1,0.9-28.6-7.6-31.6C878.9,221.3,843.6,226.9,832.2,225.7"/>
		<path id="XMLID_834_" class="st1" d="M174.5,409.5c9.9,0,7.9-60.8,23.9-60.8c3.8,0,5,3.8,5,8.5c0,13.7-6.7,33.9-6.7,45
			c0,5.6,1.5,7.3,4.1,7.3c7,0,19.3-66.9,31.3-66.9c3.8,0,5.5,3.8,5.5,7.6c0,14-17.8,54.3-17.8,65.7c0,1.8,0.6,3.2,2,3.2
			c7.3,0,21.9-31.5,26.6-47.3c2.6-8.2,6.1-12.6,9.4-12.6c2.9,0,5.6,3.2,5.6,9.9c0,15.8-14.6,52.9-27.5,77.7
			c-9.9,19.3-25.4,47-25.4,62.5c0,7.9,1.4,16.1,12.8,26c-18.7-1.2-26.3-2.9-33.3-17.5c-31.3,62.2,57.6,56.1,27.2,111.3
			c-5.6-9.9-49.4-20.1-49.4-78c0-50,43.8-79.2,43.8-99.9c0-4.1-1.4-7.6-5.2-10.8c-9.7-8.2-9.9-14.9-17.5-14.9
			c-5.5,0-12.3,12.8-5.3,24.2c2.3,3.8,4.4,6.1,4.4,9.6c0,8.2-12.9,30.1-21.9,30.1c-9.1,0-16.1-22.5-16.1-58.7
			c0-32.2,7.3-64.6,16.4-64.6c2.6,0,3.5,1.7,3.5,4.1c0,3.8-1.2,11.4-1.2,24.2C168.7,408.3,171.9,409.5,174.5,409.5"/>
		<path id="XMLID_833_" class="st1" d="M249,495.1c12.3,0,22.5-9.1,22.5-29.2v-29.8c0-11.4,0.9-24.2,8.5-33.3
			c-0.9,3.8-0.9,7.9-0.9,11.7c0,25.1,14,42.4,14,66.6c0,9-2.6,14-9.6,14c-6.7,0-6.1-6.1-7.6-6.1c-1.2,0-2.9,3.8-2.9,7.9
			c0,6.1,4.4,15.8,16.6,15.8c10.5,0,19-9.6,19-20.4c0-26.3-20.4-55.5-20.4-83.6c0-12.3,3.2-20.4,5.8-26.9
			c0,58.2,49.4,100.5,49.4,124.8c0,5.6-4.1,9.9-10.2,9.9c-6.7,0-9.9-5.3-9.9-9.4c0-2-0.3-2.6-1.2-2.6c-1.7,0-7,5.8-7,13.5
			c0,9.6,7.9,21.3,22.5,21.3c16.6,0,25.7-14,25.7-26.6c0-30.7-59.9-77.1-59.9-126.8c0-8.5,1.4-22.2,7.6-32.7
			c-38.6,24.8-50.5,57.8-50.5,86.8c0,25.1-0.9,37.7-13.7,37.7c-6.7,0-8.5-6.1-10.8-6.1c-1.7,0-2.6,5.3-2.6,6.7
			C233.2,489,241.1,495.1,249,495.1"/>
		<path id="XMLID_830_" class="st1" d="M691.7,166.1c3.7-2.5,20.2,1.5,41.5-9.1c2.6-1.4,5.3-2,7.6-2c10.2,0,7.6,11.7,17,11.7
			c7.3,0,16.7-6.1,22.2-6.1c8.7,0,21.3,27.5,21.3,40.3c0,14.9-22.5,24-49.1,24c-38.8,0-62.2-33.9-62.2-55.8
			C689.9,167.3,690.8,166.7,691.7,166.1z M755.4,203.2c12.9,0,22.5-5.8,22.5-9.4c0-1.2-1.7-2-5.6-2c-3.8,0-11.4-0.3-25.7-2.6
			c-12.3-2-21.6-6.7-25.2-6.7c-1.2,0-1.8,0.6-1.8,1.5C719.7,191.5,733.7,203.2,755.4,203.2"/>
		<path id="XMLID_829_" class="st1" d="M255.2,605.3c-9.6,2.3-25.1,17.5-25.1,41.5c0,28.6,30.7,72.7,81.2,72.7
			c42.6,0,53.2-29.5,53.2-49.4c0-44.1-27.2-75.1-62.5-75.1c-19.3,0-36.5,14-36.5,34.8c0,19.3,14.6,48.2,49.4,48.2
			c16.4,0,26-11.7,26-25.1c0-13.2-12-31.3-29.5-31.3c-5.3,0-9,3.5-9,9c0,7,9.6,14,21.6,14c2.9,0,5.3-0.6,6.4-1.2
			c0.6,0.9,0.9,2.3,0.9,3.5c0,6.7-6.4,10.8-16.4,10.8c-14.9,0-29.2-11.1-29.2-28.7c0-10.5,9.1-18.1,22.2-18.1
			c26,0,41.5,23.1,41.5,46.2c0,20.7-11.4,32.7-34.8,32.7C267.7,690,245,647.9,255.2,605.3"/>
		<path id="XMLID_826_" class="st1" d="M588.7,776.4c14,0,13.3-1.2,17.7-1.2c4.4,0,4.7,2.6,4.7,4.4c0,6.4-14.3,14.3-39.7,14.3
			c-14.9,0-24-7.9-26.6-16.7c-14.6,9.4-36.8,17.8-58.7,17.8c-59.9,0-75.1-26-93.8-34.5c-14.3-6.4-36.2,6.1-66.9-28.1
			c4.1,0.9,9.7,1.2,14,1.2c26.9,0,41.2-13.1,41.2-34.2c0-2.6-0.3-5.5-0.6-8.2c8.2,3.2,26.9,17.2,31.3,42c0.6,2.9,12.5,5.5,20.1,5.5
			c10.5,0,24-4.4,26-21.6c35.1-2.9,58.7-23.7,63.7-50c12.5,4.1,26.9,15.5,30.4,21.3c5-1.7,10.8-2.6,17.5-2.6
			c9.4,0,19.9,1.8,32.4,5.6c0.6-3.8,1.2-8.5,7-8.5c8.8,0,6.4,9.6,9.4,15.2c1.5,2.9,8.8,4.7,8.8,10.5c0,5.6-4.7,7.6-7.6,7.6
			c-1.2,0-2.6-0.3-3.5-0.6c-5.8,2-6.1,44.1-30.7,44.1c-18.1,0-34.8-14.9-42.1-33.6c-2-5.5-6.4-9.1-10.5-9.1c-4.7,0-7.3,0.9-12.8,7
			c-15.8,17.2-42.1,32.1-74.5,32.1c-9.9,0-17.8-0.9-19.9-0.9c-1.2,0-1.2,0.3-1.2,0.6c0,2.1,9.9,9.9,31.6,9.9
			c51.4,0,64-28.9,72.2-28.9c1.2,0,4.7,0,6.7,4.7C546.2,770,572.3,776.4,588.7,776.4z M566,718c0,6.4,5.3,11.7,11.7,11.7
			s11.7-5.3,11.7-11.7c0-6.4-5.3-11.7-11.7-11.7S566,711.6,566,718"/>
		<path id="XMLID_823_" class="st1" d="M797.4,572.2c-4.1,0-8.5,3.2-8.5,11.1c0,8.7,6.7,14.3,10.5,16c2.1,1.2,5.3,2.4,8.5,2.4
			c8.5,0,15.2-2.4,15.2-9.4C823.1,583.4,810,572.2,797.4,572.2z M765.9,590.3c-6.1,0-40.1,45.3-61.9,45.3c-5.3,0-9.6-9.9-9.6-17.5
			c0-4.1,2.6-7,12-9.1c50.2-11.4,39.1-49.1,82-49.1c23.7,0,50,16.1,50,52.3c0,38.6-54.9,86.5-63.1,86.5c-6.7,0-14-9.6-14-16.1
			c0-2,0.9-4.7,6.7-7c28-11.1,44.1-36.8,44.1-50c0-2.9-1.5-5.8-5.3-5.8c-5,0-26.2,48.5-49.9,48.5c-16.4,0-33.1-14.9-33.1-21.9
			c0-11.7,47.4-33.3,47.4-49.7C771.2,590.6,768.2,590.3,765.9,590.3"/>
		<path id="XMLID_811_" class="st1" d="M187.7,207.3c0,0-8.5,6.4-19,6.4c-12.6,0-22.5-9.3-22.5-22.5c0-9.1,4.7-18.4,15.5-23.1
			c-0.3,1.8-0.3,3.2-0.3,5C161.4,189.8,170.7,202.3,187.7,207.3z M250.2,263.4C243.8,271,237,283.9,237,297
			c0,15.8,9.7,28.9,24.6,28.9c14.3,0,21-12.3,21-24.8C282.6,281.5,264.8,267.8,250.2,263.4z M153.2,275.1c-0.6,0.9-0.9,2.1-0.9,3.2
			c0,2.6,2.9,5.5,5.5,5.5c2.3,0,3.8-0.6,5-0.6c7,0,14.9,5,26.3,5c6.7,0,14.6-2.1,24.5-7c21-10.5,29.2-36.5,29.2-40.9
			c0-5.6-4.5-4.8-8.2-9.9c-3.7-5.1-2.3-9.6-4.7-12c-1.3-1.4-5.5-1.5-10.8-2c-1.8-0.2-4.1-0.3-6.4-0.3c-9.6,0-21.1,1.2-33.9,9.4
			C153.6,241.6,157.3,268.4,153.2,275.1z M221.9,238.9c2,2.8,7.6,6.1,7.6,8.2c0,4.1-2.4,9.4-7,9.4c-10.2,0-18.4-15.5-18.4-24.3
			c0-5.5,3.2-6.1,7.6-6.1c2,0,2.9,0.3,4.4,1.2C218.6,228.6,218.6,234.5,221.9,238.9z M195,274.5c-9.6,0-20.2-12-20.2-22.8
			c0-5.8,4.4-13.2,7.6-13.2c1.2,0,1.8,0.9,2,2.9c1.7,14.3,11.1,22.5,19.9,26.6c0.9,0.6,1.5,0.9,1.5,1.5
			C205.8,271.6,200.2,274.5,195,274.5z M219.8,200.9c1.5-4.7,2.6-10.5,2.6-17c0-14-6.4-35.3-26.3-35.3c-11.4,0-19.6,9.1-19.6,19.9
			C176.6,191.5,199.6,200.9,219.8,200.9z M144.1,317.8c0,22.2,6.7,32.7,18.7,32.7c9.4,0,21.9-6.7,36.8-19.6
			c-11.4,2.6-20.2,4.4-28,4.4C161.1,335.3,152.9,331.2,144.1,317.8z M154.4,291.7c-0.3,1.5-0.3,2.9-0.3,4.4
			c0,13.7,7.3,21.3,16.9,21.3c7.3,0,15.8-4.4,23.3-14c-3.2,0.6-7,0.9-10.5,0.9C173.1,304.3,161.4,301.4,154.4,291.7z M226,287.7
			c-6.7,1.7-20.8,9.9-20.8,24.5c0,10.5,8.2,17.2,18.4,17.2c5.3,0,9.1-1.2,11.4-2.9c-8.2-7.9-11.1-16.7-11.1-25.4
			C223.9,295,224.8,291.2,226,287.7z M236.5,207.6c0,6.4,5.3,11.7,11.7,11.7c6.4,0,11.7-5.3,11.7-11.7c0-6.4-5.3-11.7-11.7-11.7
			C241.7,195.9,236.5,201.2,236.5,207.6z M251.7,233.9c0,6.4,5.3,11.7,11.7,11.7c6.4,0,11.7-5.3,11.7-11.7c0-6.4-5.3-11.7-11.7-11.7
			C256.9,222.2,251.7,227.5,251.7,233.9"/>
		<path id="XMLID_798_" class="st1" d="M707.5,377.4c0-5.8,5.3-10.8,11-10.8c6.4,0,11.4,5,11.4,10.8c0,6.7-5,11.4-11.4,11.4
			C712.7,388.8,707.5,384.1,707.5,377.4z M604.9,287.4c0,6.4,5.3,11.7,11.7,11.7c6.5,0,11.7-5.3,11.7-11.7c0-6.4-5.3-11.7-11.7-11.7
			C610.2,275.7,604.9,280.9,604.9,287.4z M595,328.6c0,9.1,7.6,16.6,16.6,16.6c9,0,16.7-7.6,16.7-16.6c0-9-7.6-16.7-16.7-16.7
			C602.5,311.9,595,319.5,595,328.6z M631.8,309.9c0,9.9,7.9,17.8,17.8,17.8c9.9,0,17.9-7.9,17.9-17.8c0-9.9-7.9-17.8-17.9-17.8
			C639.7,292,631.8,299.9,631.8,309.9z M633.3,271.9c0,6.1,5,11.1,11,11.1c6.1,0,11.1-5,11.1-11.1c0-6.1-5-11.1-11.1-11.1
			C638.2,260.8,633.3,265.8,633.3,271.9z M686.1,243.8c0,6.1,5,11.1,11.1,11.1c6.1,0,11.1-5,11.1-11.1c0-6.1-5-11.1-11.1-11.1
			C691.1,232.7,686.1,237.7,686.1,243.8z M664.2,279.8c0,10.2,8.5,18.7,18.7,18.7c10.2,0,18.7-8.5,18.7-18.7
			c0-10.2-8.5-18.7-18.7-18.7C672.7,261.1,664.2,269.5,664.2,279.8z M634.1,348.1c0,6.4,5.3,11.7,11.6,11.7
			c6.4,0,11.7-5.2,11.7-11.7c0-6.4-5.3-11.7-11.7-11.7C639.4,336.5,634.1,341.7,634.1,348.1z M672.4,324.8c0,6.4,5.3,11.7,11.7,11.7
			c6.4,0,11.7-5.3,11.7-11.7c0-6.4-5.3-11.7-11.7-11.7C677.6,313.1,672.4,318.3,672.4,324.8z M661.6,366c0,11.1,9.1,20.2,20.2,20.2
			c11.1,0,20.2-9.1,20.2-20.2c0-11.1-9.1-20.2-20.2-20.2C670.6,345.8,661.6,354.9,661.6,366z M703.7,341.1c0,7.6,6.1,13.7,13.7,13.7
			c7.6,0,13.7-6.1,13.7-13.7c0-7.6-6.1-13.7-13.7-13.7C709.8,327.4,703.7,333.5,703.7,341.1z M702.8,304.3c0,6.7,5.6,12.3,12.2,12.3
			c6.7,0,12.3-5.5,12.3-12.3c0-6.7-5.6-12.3-12.3-12.3C708.4,292,702.8,297.6,702.8,304.3"/>
		<path id="XMLID_794_" class="st1" d="M732.6,687.7c-7.6,5.9-25.4,19-54.9,19c-15.8,0-22.8-5-25.1-5c-2.9,0-6.1,2.9-9.4,6.7
			c-6.9,8.2-16,23.4-16,40c0,11.7,9.1,23.3,26,23.3c54.7,0,95.6-34.2,95.6-61.9C748.6,694.1,739.3,687.7,732.6,687.7z M717.4,684.4
			c2.4-2,2.9-5.3,2.9-8.5v-6.7c0-8.5-12.8-13.4-30.4-13.4c-21.3,0-32.8,9.6-32.8,13.7V683c0,5.6,12.9,11.1,28.7,11.1
			C698.4,694.1,709.8,690.9,717.4,684.4z M715,713.4c1.5,0,3.2,0.9,3.2,6.1c0,6.4-2.9,14.9-13.4,21.6c-7.3,5-17.3,9.1-31.9,9.3
			c2.3-7,4.1-14.3,4.1-21.3c0-2.3-0.3-4.1-0.6-6.7h3.8C703.4,722.4,713.3,713.4,715,713.4"/>
		<path id="XMLID_791_" class="st1" d="M603.4,356.3c3.2,24.8,36.6,12.3,36.6,42.3c0,4.4-1.2,10.8-1.2,16.4c0,6.4,0.6,12,5.5,12
			c5,0,6.1-3.5,6.1-8.2s-1.2-10.5-1.2-13.7c0-10.2,7.3-12.6,11.7-12.6c11.1,0,19.6,11.4,36.3,11.4c-3.8,18.7-42.4,13.7-42.4,34.2
			c0,10.2,10.2,12.6,17,12.6c6.1,0,8.2-0.9,8.2-6.1c0-2.9-0.6-6.1-0.6-8.2c0-1.2,0.9-2.3,2.3-2.3c6.5,0,37.9,24,37.9,31.3
			c0,6.7-33.3,13.4-42.9,13.4c-2.9,0-3.5-2-3.5-3.2c0-2,5-8.2,5-11.7c0-2.6-4.4-4.4-16.1-4.4c-5.6,0-9.7,0.6-9.7,5
			c0,7.9,12.9,17.5,12.9,24.8c0,5.9-3.5,9.4-12.9,9.4c-7.9,0-19.8-6.1-19.8-16.4c0-8.2,8.4-16.3,8.4-21.3c0-1.5-1.1-3.8-4.6-3.8
			c-10.8,0-13.7,28.6-52,31.8c6.1-5.5,11.4-11.7,11.4-24.2c0-6.1-1.4-11.1-1.4-17.8c0-8.8,4.1-13.2,9.9-13.2
			c10.8,0,16.1,15.2,23.1,15.2c3.8,0,7.9-3.5,7.9-8.8c0-22.2-42.7-19-42.7-50.3C592.6,381.4,595.5,370.9,603.4,356.3z M742.8,441.9
			c0,7.3,2.4,15.8,9.7,15.8c6.1,0,11.4-9.3,11.4-19.6c0-11.7-2-20.8-2-25.4c0-2,0.9-2.9,2-2.9c4.4,0.3,8.5,12.3,13.2,12.3
			c5.3,0,13.1-9.7,16.3-9.7c0.9,0,1.2,1.2,1.2,1.5c0,4.4-6.7,14-6.7,17.8c0,3.2,17,3.8,17,6.7c0,4.4-17.8,4.4-26.2,8.2
			c-8.2,3.5-13.2,7.9-13.2,13.7c0,5.8,5.9,7,14,7c19.5,0,33.3-10.5,37.6-10.5c0.9,0,1.5,0.6,1.5,1.5c0,2.9-9.9,12.6-9.9,17
			c0,5,18.1,10.8,17.8,13.7c-0.3,0.9-1.5,1.2-3.5,1.2c-3.2,0-8.2-0.9-12-0.9c-2.3,0-4.4,0.3-5.3,1.5c-2,2.3,0.6,17.8-3.5,17.8
			c-3.8,0-13.7-34.5-36.2-34.5c-3.2,0-5.6,2.6-5.6,7c0,11.7,11.4,25.1,22.2,31.5c4.9,3.2,13.1,6.4,13.1,8.2c0,3.5-18.7,0.3-18.7,6.1
			c0,5.3,2.3,13.2,2.3,17.8c0,1.5-0.3,3.2-2,3.2c-3.5,0-12-16.1-16.1-16.1c-3.5,0-11.1,9.6-14.3,9.6c-0.9,0-1.5-0.9-1.5-1.7
			c0-6.7,10.8-21.9,10.8-36.8c0-7-0.9-22.2-9.4-22.2c-7,0-14.9,11.1-18.4,22.2c-2,6.4-0.6,31.3-5.3,31.3c-4.4,0-3.2-16.6-9.1-16.6
			c-4.3,0-13.7,7.9-16.9,7.9c-0.6,0-1.2-0.3-1.2-0.9c0-3.5,8.5-14.9,8.5-17.2c0-4.4-19.3-5-19.3-8.5c0-2.1,7.6-3.5,14.6-4.7
			c14.9-2.6,36.8-13.4,36.8-28.6c0-16.9-16.4-24.3-27.1-31.3c-5.6-3.5-11.7-6.4-11.7-8.8c0-2.3,7-2.3,9.9-2.3c4.4,0,8.7-0.3,8.7-3.8
			c0-2.6-0.6-7.9-0.6-12c0-2.9,0.3-5.3,1.5-5.3c4.4,0,10.5,14.3,13.5,14.3c4.7,0,11.1-11.7,15.5-11.7c1.4,0,2,0.9,2,3.5
			C748.4,419.1,742.8,431.4,742.8,441.9"/>
		<path id="XMLID_785_" class="st1" d="M611.9,522.8c13.5,1.8,16.7,6.4,16.7,10.2c0,6.4-5.9,8.5-11.4,8.5c-4.1,0-8.8-0.9-13.7-0.9
			c-6.4,0-12.9,1.5-18.1,7.6c3.8,0.6,9.4,3.2,9.4,9.1c0,16.9-47,2.9-47,46.5c0,23.1,24,48.2,60.2,48.2c18.7,0,30.7-6.1,30.7-13.2
			c0-5.5-9.9-1.8-9.9-6.4c0-2,3.5-5.9,3.5-9.1c0-1.4-1.2-4.1-3.5-4.1c-5.3,0-15.2,8.4-35.4,8.4c-15.8,0-31.3-9-31.3-21.3
			c0-2.6,1.2-4.1,2.9-4.1c1.8,0,4.1,1.2,6.1,1.2c1.8,0,2-1.2,2-4.4c0-3.2,0-12.3,5.5-12.3c5.6,0,16.1,20.5,56.4,20.5
			c13.4,0,39.4-2.6,49.1-11.4c-0.3,32.1-25.5,74.5-78,74.5c-54.6,0-83.9-43.8-83.9-84.2c0-44.7,36.5-85.3,86.5-85.3
			c12.8,0,23.7,4.4,23.7,9.9C632.4,518.5,613.4,513.8,611.9,522.8z M701.6,538.4c2,3.2,2.9,6.4,2.9,9.3c0,8.2-5.6,15.8-5.6,24.3
			c0,9.6,7.3,17.5,18.4,17.5c12,0,20.2-9.6,20.2-21C737.5,553,723.5,539.8,701.6,538.4z M604.9,557c2.9,2.9,3.8,5.8,3.8,8.8
			c0,4.4-2,9.1-2,14c0,7,5.3,13.1,12.8,13.1c8.2,0,13.8-6.4,13.8-14C633.3,567.9,621.8,557,604.9,557z M643.7,507.4
			c30.7,5.8,47.4,28.9,47.4,50.6c0,14.9-9.4,28.6-25.7,28.6c-14.9,0-25.7-10.2-25.7-26.6c0-12.3,9.6-25.1,9.6-37.7
			C649.3,517.3,647.8,512.3,643.7,507.4z M658.9,546.2c0,4.1,2.9,7.3,7,7.3c4.7,0,7.6-4.1,7.6-8.8c0-6.1-5.6-14.6-10.8-14.6
			c-2.3,0-1.5,3.5-2,7.3C660.4,540.4,658.9,543.9,658.9,546.2"/>
		<path id="XMLID_779_" class="st1" d="M336.4,245.6c9.9,0,21.3-53.8,21.3-62.8c0-2.3-0.9-4.1-2.9-4.1c-9.1,0-21.6,51.1-21.6,62.5
			C333.2,243.3,333.8,245.6,336.4,245.6z M408,261.7c7.3,0,15.5-28.1,15.5-45.6c0-3.8-0.6-7.9-2.3-7.9c-6.1,0-16.4,28.9-16.4,44.7
			C404.8,259,406.2,261.7,408,261.7z M360.3,235.7c3.2,0,7.3-3.5,14.9-12c0.6-3.8,0.6-7.3,0.6-11.7c0-5.8-2.3-12.3-5.8-12.3
			c-8.8,0-13.2,23.4-13.2,29.5C356.8,232.7,358.6,235.7,360.3,235.7z M400.4,223.7c0-5-1.2-6.1-2.3-6.1c-2.9,0-6.1,3.5-10.8,11.4
			c0.6,10.5,2.3,15.2,5.3,15.2C395.7,244.1,400.4,233.9,400.4,223.7z M422.9,189.2c19.3,0,28,16.7,28,35.4c0,8.2-2.3,20.2-6.1,20.2
			s-3.2-6.7-3.8-12.9c-0.6-7.9-2.1-9.6-4.7-9.6c-5,0-8.2,11.7-8.2,22.5c0,6.7,1.2,14.3,6.4,14.3c2.9,0,5.6-1.5,7.3-3.2
			c-1.2,13.4-11.1,25.1-25.1,25.1c-25.7,0-35.4-30.1-38.3-47.6c-15.5,16.4-29.8,28.3-55.5,28.3c-23.9,0-34.8-17.5-34.8-34.2
			c0-5,1.7-17.8,7.9-17.8c7.3,0,0.9,23.9,15.2,23.9c3.5,0,9.9-2.9,13.4-12.6c2-5.9,3.2-12,3.2-17.2c0-7.9-1.7-12.8-7.6-12.8
			c-5,0-11.1,3.8-13.2,5.8c7-21,24-31.8,42.6-31.8c23.1,0,35.4,20.4,35.4,43.2c0,3.2-0.3,6.7-0.9,9.9
			C394.2,201.8,408,189.2,422.9,189.2"/>
		<path id="XMLID_778_" class="st1" d="M368.2,267.8c-12.6,0-13.1,15.2-13.1,45.9c-9.4-20.2-24.8-41.8-42.9-41.8
			c-12.3,0-16.9,8.2-16.9,22.5c0,2.9,0.3,7.3,0.9,9.9c1.5-5,6.1-7,12-7c12.6,0,27.8,9.6,37.7,22.8c-11.4-2-22.5-4.1-31.8-4.1
			c-5.9,0-11.1,0.6-15.5,2.6c-8.5,3.8-19.9,16.4-19.9,35.4c0,2.9,0.3,6.1,0.9,9.6c10.2-22.8,37.4-33,54.9-33c3.5,0,6.1,0.3,8.2,0.6
			c-9.1,8.2-11.1,22.5-11.7,32.1c-0.3,4.7-2,5-5.3,5c0,9.6,7.6,24,7.6,31.3c0,2.6-1.5,5-2.9,5.6c0,12.9,12.8,22.2,12.8,30.4
			c0,2-0.6,3.8-1.5,4.7c0.9,5.3,15,14.1,16.9,18.5c2.2,5.4,4.8,6.3,6.2,6.3c5,0,12.8-5.9,12.8-11.1c0-1.7-1.5-3.8-2.6-4.7
			c-5.6-4.1-8.5-12.8-10.8-18.7c-2.1,0-4.7-0.9-5.6-4.3c-1.6-6-1.7-17.3-4-24c-3.8-0.9-5.6-2.3-5.6-10.2c0-3.8,2.3-18.7,2.3-24
			c-1.7,0-4.1-1.2-4.1-4.7c0-9.3,9.4-16.6,12-28.6c16.7,12.3,20.7,24.8,20.7,35.9c0,5.8-0.9,11.4-2,16.7
			c12.3-6.1,30.7-15.2,30.7-33.6c0-10.8-5-22.8-38-27.5c10.2-3.8,23.1-5.8,33.9-5.8c18.7,0,29.5,5.8,31.8,19
			c3.8-5.8,6.7-12.6,6.7-18.7c0-14.3-12-23.7-27.2-23.7c-17.8,0-33.6,9.3-50.6,20.7c7.6-15.8,12.8-25.1,22.2-25.1
			c1.5,0,2.9,0.3,4.4,0.6C388.4,280.4,375.3,267.8,368.2,267.8"/>
		<path id="XMLID_777_" class="st1" d="M860.5,478.4c14.6,0,26.3,19,26.3,41.2c0,23.7-11.1,49.4-30.9,66.9
			c-0.3-39.4-48.6-26.9-48.6-55.5c0-12.3,8.8-20.5,19.3-20.5c9.4,0,16.7,2.6,21.9,7.9c-5.3-5-7.9-12-7.9-18.7
			C840.7,488.7,847.7,478.4,860.5,478.4"/>
		<path id="XMLID_773_" class="st1" d="M599.6,200.9c7.6,7.3,14.3,10.5,22.5,10.5c3.2,0,7-0.9,9.1-0.9c2.6,0,4.4,1.2,4.4,3.2
			c0,3.2-2.9,8.5-6.4,11.4c3.5,1.5,7.3,2,11.4,2c16.6,0,35.6-10.5,35.6-36.8c3.5,4.7,5.6,14.3,5.6,18.7c0,31.8-23.4,44.1-45,44.1
			c-14,0-21.1-4.7-22.8-4.7c-5.5,0-5.2,11.1-9,10.8c-6.7-1.2-12.8-16.1-12.8-31.8C592,218.1,594.4,208.2,599.6,200.9z M643.7,179.6
			c-2.3-3.8-11.1-5.8-15.1-5.8c-12.9,0-21.7,9-23.4,17.2c-1.2-2.9-2-6.4-2-9.9c0-12.9,8.8-28.6,30.1-28.6c18.6,0,26,9.9,28.6,9.9
			c2.9,0,5.8-2.9,8.2-2.9c3.2,0,3.2,5,3.2,8.5c0,11.7-5.3,31.8-18.4,39.1c-2.3-5-7-10.5-14.6-14c-2-0.9-2.9-2.6-2.9-4.4
			C637.4,185.4,640.3,181.3,643.7,179.6"/>
		<path id="XMLID_767_" class="st1" d="M396.6,115.9c0,10.2,36.5,60.2,43.5,60.2c5.9,0,10.2-10.2,10.2-19c0-2.3-0.6-4.6-1.7-6.4
			c-5.3-7.3-42.4-36.5-50.6-36.5C397.1,114.1,396.6,115,396.6,115.9z M181.8,85.8c0,5.9-22.2,25.4-30.1,25.4c-2.9,0-3.8-3.5-3.8-6.7
			c0-5.8,2.6-14,5.9-16.7c3.8-3.5,12.6-5.2,19.3-5.2C177.1,82.6,181.8,83.4,181.8,85.8z M448.6,102.7c0-17.5-47.4-49.4-47.9-63.1
			c-0.1-1.3,0.6-2.5,1.7-3.6c8.1-8.6,41.8-14.8,41.8-22.1c0-3.8-7-3.8-10.5-3.8c-27.2,0-66.9,9.9-66.9,19.6
			c0,9.9,35.6,34.2,35.6,46.2c0,3.2-2,4.4-5.3,4.4c-9.9,0-31.5-12-41.8-12c-4.7,0-6.4,3.2-6.4,7.9c0,14,16.7,40.6,16.7,48.5
			c0,0.9-0.3,2.1-1.5,2.1c-5.3,0-30.1-29.2-38.9-29.2c-3.2,0-3.5,4.4-3.5,10.8v9.9c0,6.7-0.3,10.8-3.5,10.8
			c-7.6,0-11.1-21.3-18.4-21.3c-7.6,0-9.1,38-16.4,38c-8.5,0-1.2-41.8-9.4-41.8c-9.1,0-19.3,27.8-25.7,27.8c-2.3,0-2.9-2.3-2.9-4.4
			c0-8.5,5-22.2,5-30.4c0-4.1-1.2-6.4-4.7-6.4c-9.1,0-28.9,14.6-36.5,14.6c-1.2,0-2.6-0.6-2.6-1.8c0-7,31.8-29.2,31.8-39.1
			c0-9.7-43.8-3.2-43.8-14.3c0-9.3,31.3-19,31.3-28.6c0-8.5-37.1-12.3-51.4-12.3c-17.2,0-26.6,2-26.6,7c0,7.6,39.2,9.9,39.2,16.7
			c0,6.4-40.6,23.7-40.6,33.6c0,8.8,57.3,0.6,57.3,9.7c0,9.9-49.9,52.9-49.9,67.2c0,3.2,2.3,4.7,5.5,4.7c15.2,0,54.6-28.9,65.4-28.9
			c3.8,0,4.1,4.7,4.1,8.8c0,7.6-2.6,19.3-2.6,27.8c0,6.7,1.7,11.4,7.6,11.4c10.8,0,20.7-18.4,28.1-18.4c9.3,0,3.8,54,17.8,54
			c12,0,16.9-58.4,24.5-58.4s13.7,16.9,20.8,16.9c8.8,0,4.7-29.5,14-29.5c10.2,0,39.4,35.1,52.6,35.1c4.1,0,5.5-3.2,5.5-7.3
			c0-15.5-21.6-50.5-21.6-61.6c0-2.9,0.9-3.8,4.1-3.8c11.4,0,44.7,15.8,60.5,15.8C445.4,109.4,448.6,106.5,448.6,102.7z M418.2,44.9
			c0,5.3,18.4,16.7,26.9,16.7c5,0,6.4-6.7,6.4-13.7c0-8.8-3.8-9.1-11.4-9.1C430.5,38.7,418.2,41.4,418.2,44.9z M349.5,15.1
			c0-1.8-8.8-3.5-20.7-3.5c-19,0-16.4,15.8-31,15.8c-15.2,0-11.4-16.4-30.7-16.4c-11.7,0-22.5,2.1-22.5,4.7
			c0,3.5,13.7,2.1,13.7,11.7c0,10.2-29.5,13.1-29.5,19.3c0,2,2.3,2.9,5.3,2.9c6.4,0,16.6-2.9,24-2.9c4.1,0,7.9,0.9,7.9,4.7
			c0,7.3-15.8,20.5-15.8,26.3c0,1.8,1.5,2.3,2.9,2.3c5.9,0,15.8-14.9,25.1-14.9c15.5,0,5.3,33,13.7,33c8.8,0,5-32.4,17.5-32.4
			c10.2,0,17.8,22.5,24.8,22.5c1.8,0,3.2-1.5,3.2-3.5c0-6.1-8.8-18.7-8.8-26.9c0-5,3.5-7.3,8.2-7.3c6.7,0,15.8,4.1,20.7,4.1
			c1.7,0,3.5-0.6,3.5-2.6c0-7-26-14.6-26-23.7C335.2,19.2,349.5,19.2,349.5,15.1"/>
		<path id="XMLID_763_" class="st1" d="M867.5,62.4c0,26-18.9,45.9-53.2,51.4c3.8,0.3,7.3,0.3,10.8,0.3c40,0,54.6-18.1,54.6-33.3
			C879.8,72.3,875.1,64.7,867.5,62.4z M818.2,91.9c0-20.7-49.6-26-49.6-30.7c0-3.8,27.7-10.2,42-10.5c-21.9-28-53.1-25.1-53.1-30.1
			c0-2.9,23.4-8.8,45-8.8c18.1,0,35.1,4.1,35.1,17.8c0,7.6-6.1,15.5-6.1,27.2c0,6.4,3.2,12,11.7,12c9.1,0,11.1-9.6,11.1-19.9
			c0-8.5-1.5-14.9-1.5-19c0-12.3,8.4-20.4,20.4-20.4c9.9,0,12.3,4.4,26.9,4.4c-7.9,4.7-10.8,13.2-10.8,17.2
			c0,12.3,7.9,20.8,7.9,45.9c0,46.1-43.2,62.5-96.1,62.5c-14.5,0-30.1-1.2-45.3-3.5c-2.3-0.3-2.9-0.9-2.9-2.3
			c0-3.8,20.8-5.9,20.8-24.5c0-7.3-2.3-14.3-2.3-16.9c0-1.5,1.2-2.3,2.3-2.3c4.4,0,13.2,16.9,29.5,16.9
			C807.3,106.8,818.2,105.3,818.2,91.9z M865.8,27.3c0,4.1,3.2,7.3,7.3,7.3c4.1,0,7.3-3.2,7.3-7.3c0-4.1-3.2-7.3-7.3-7.3
			C869,20,865.8,23.2,865.8,27.3"/>
		<path id="XMLID_760_" class="st1" d="M839.8,297.3c0-6.1-15.5-6.7-17-24c-0.3-2.6-1.2-7.3-4.4-7.3c-5.3,0-1.2,16.1-7,16.1
			c-13.4,0-17.8-26.3-22.8-26.3c-1.2,0-2.6,0.9-2.6,4.4c0,3.2,0.6,5.3,0.6,9c0,3.8-0.9,6.4-4.4,6.4c-7.9,0-14.9-18.4-21.6-18.4
			c-1.5,0-2.9,0.9-2.9,2.3c0,3.5,5.8,9.9,5.8,13.1c0,7-19,3.2-19,9.1c0,2.6,2.6,3.5,6.1,3.5c6.1,0,15.8-2.6,20.8-2.6
			c2.9,0,7.3,0.6,7.3,4.4c0,4.1-10.5,9.4-10.5,13.2c0,1.8,1.7,2.6,3.2,2.6c7.9,0,21.9-13.7,31.8-13.7c1.7,0,6.1,0.9,6.1,3.5
			c0,3.8-9.9,10.5-9.9,16.1c0,1.5,0.9,3.2,2.6,3.2c5.2,0,12.2-13.7,22.2-13.7c3.8,0,9.4,1.5,12.3,1.5
			C838.9,299.6,839.8,298.2,839.8,297.3z M847.4,439c4.7-14.6,10.5-24.8,20.1-40.6c-9.6-5-35-15.5-35-32.7
			c0-20.2,25.1-35.9,30.3-35.9c2.3,0,2.9,2.1,2.9,5.9c0,10.5-5,27.5-5,36.5c0,8.2,5.3,16.1,9.9,16.1c5,0,18.7-17.5,18.7-34.8
			c0-31-27.2-40.3-35.6-40.3c-7.9,0-22.2,12.8-55.8,12.8c-62.8,0-77.1-62.2-77.1-89.4c0-1.2,0.3-1.5,0.6-1.5c1.5,0,7.6,7.6,27.5,7.6
			c10.2,0,19.6-2.6,34.5-2.6c35,0,50.5,24.3,72.2,55.2c13.1,8.2,44.4,21.3,44.4,58.4c0,32.7-34.8,50.8-43.2,85.9
			c13.4-1.5,21.3-25.4,35-25.4c7,0,10.2,5.6,10.2,14.3c0,12.8-7.3,32.1-21.4,44.1c0.3-1.2,0.3-2.6,0.3-4.4c0-8.2-3.2-19.9-12.6-19.9
			c-14.6,0-19.2,15.8-27.4,28.9c-8.5-29.8-19.9-56.7-40.3-73c-20.7-16.6-56.4-7.6-56.4-38c0-8.2,5.3-19.9,5.3-29.2
			c0-3.2-0.6-6.1-2.4-8.5c28.1,10.5,18.1,29.2,35.4,48.5c10.8,12.3,40.6,24,57.8,74.5c0.3-1.5,0.6-5.2,0.6-7.9
			c0-43.2-57.2-85.6-62.2-103.2c33.3,3.8,39.1,12,54.9,55.8C836.9,405.4,847.4,427.9,847.4,439"/>
		<path id="XMLID_756_" class="st1" d="M687.6,129.9c-20.5,0-33.9-10.2-33.9-15.5c0-2.6,1.7-4.4,4.1-4.4c6.4,0,20.5,9.9,25.1,9.9
			c1.2,0,2.1-0.6,2.1-2.3c0-5.3-5-14-5-18.4c0-1.2,0.9-2,2.6-2c7.9,0,19.6,3.2,25.7,3.2c2,0,2.6-1.2,2.6-2.3c0-6.4-19-19-19-22.8
			c0-3.5,23.6-8.8,23.6-14.3c0-5.9-32.1-1.8-32.1-7.3c0-4.1,6.1-11.1,6.1-14.3c0-1.5-1.2-2-3.2-2c-2.6,0-16.7,5.5-22.5,5.5
			c-2.9,0-6.4-0.6-6.4-4.7c0-6.7,11.4-14,29.2-14c28.9,0,46.1,19.9,46.1,53.2C732.9,119.4,703.4,129.9,687.6,129.9z M630.6,74.4
			c0-3.2-11.4-9.4-11.4-12.9c0-0.6,0.6-0.9,1.5-0.9c3.2,0,8.8,1.2,13.2,1.2c3.8,0,4.4-16.4,7.3-16.4c2,0,5.5,15.5,8.8,15.5
			c3.8,0,10.8-4.4,13.7-4.4c0.6,0,1.2,0.3,1.2,0.9c0,2-7.3,9.9-7.3,12.3c0,2.6,16.4,5.9,16.4,8.2c0,2.9-16.7,2.6-16.7,5.3
			c0,2,6.1,10.2,6.1,12.8c0,0.6-0.3,0.9-0.9,0.9c-2.3,0-11.4-4.1-14-4.1c-3.2,0-8.4,12-11.1,12c-0.9,0-1.5-1.2-1.5-2.6l-0.6-11.7
			c0-1.2-0.6-2.3-2-2.3c-3.5,0-10.2-0.3-12.3-0.3c-1.5,0-2-0.3-2-0.9C618.9,84.6,630.6,76.4,630.6,74.4z M622.1,122.3
			c4.7,0,5.6,11.4,6.5,18.1c0.6,3.5,1.2,3.8,2.6,3.8c3.5,0,9.1-13.4,12.8-13.4c5.5,0,20.5,15.5,45.3,15.5
			c35.3,0,68.7-24.8,68.7-68.7c0-42.4-29.8-67.2-71-67.2c-19.6,0-33.9,9.6-41.5,9.6c-4.6,0.3-11.6-11.4-15.1-11.4
			c-1.5,0-2.9,2.9-2.9,7.9c0,3.2,0,13.4-3.5,13.4c-7,0-34.2-20.1-34.2-12.9c0,6.7,18.1,27.2,18.1,32.4S590,59.8,590,63.3
			c0,6.4,19,7.6,19,15.8c0,8.2-19.9,14.6-19.9,20.7c0,5,19.9,1.5,19.9,7.6c0,6.1-14.6,26.6-14.6,32.4c0,1.5,0.3,1.5,1.4,1.5
			C601.4,141.3,618,122.3,622.1,122.3"/>
		<path id="XMLID_755_" class="st1" d="M489.8,635.3c0,2.6-0.9,5.6-3.2,8.5c-3.2-5.8-12.3-8.8-16.4-8.8c-30.1,0-18.7,43.5-50.8,43.5
			c-13.4,0-14.6-1.8-19.6-1.8c-2.1,0-3.2,0.9-3.2,2.6c0,7.6,10.8,26.3,40.9,26.3c30.1,0,59-18.4,59-41.2c0-3.8-0.9-7.9-2.6-12
			c1.2-1.8,4.1-2.9,6.7-2.9c4.7,0,7.3,5.3,11.7,5.3c4.7,0,8.2-3.5,8.2-8.2c0-3.8-2-6.4-5.5-8.2c2.3-1.7,4.1-4.7,4.1-7.9
			c0-5-3.5-9.6-9.4-9.6c-2.6,0-4.4,0.9-6.4,2.9c-0.6-5.2-3.5-10.2-9.1-10.2c-4.4,0-7.6,3.2-7.6,8.2
			C486.6,626.6,489.8,630.4,489.8,635.3"/>
		<path id="XMLID_752_" class="st1" d="M329.7,581c23.4,5.8,35.1,18.4,37.4,33.3c2.3,14.3,5.3,26,10.8,31.8
			c7.3,8.2,21.6,15.5,34.2,15.5c10.5,0,19-3.5,19-13.1c0-10.5-14.3-34.2-35.3-34.2c-2,0-4.7,0.3-7.6,0.3c-2.6,0-6.4-0.6-8.8-2.6
			c-4.7-4.1-6.1-26-14.9-39.2c-9.6-14.6-20.2-18.7-34.5-18.7c-10.2,0-21.6,5.5-21.6,13.7C308.3,572.8,311,576.3,329.7,581z
			 M411.2,646.5c-8.8,0-21.9-9.4-21.9-14.6c0-4.4,4.1-6.7,7.3-6.7c7.3,0,20.4,9.1,20.4,16.7C417,643.8,415.6,646.5,411.2,646.5"/>
		<path id="XMLID_748_" class="st1" d="M384.3,418.8c0-18.7,44.4-28.6,44.4-51.7c0-3.8-1.5-10.5-4.1-15.5
			c15.5,8.5,26.9,22.8,26.9,34.5c0,20.2-21,29.5-21,42.1c0,14.6,22.5,16.9,22.5,35.1c0,14.9-21.3,32.1-21.3,51.4
			c0,14.9,10.5,27.2,26.6,29.2c-5.3,1.2-9.9,2-14.9,2c-29.5,0-59.9-24.2-59.9-53.2c0-14.3,6.1-26.9,15.5-35.9
			c8.2,7,16.4,11.7,21.6,11.7c4.7,0,6.7-2.3,6.7-5.8C427.3,451.9,384.3,441.9,384.3,418.8z M477.5,566.4c-10,4.6-14,3.8-14,14
			c0,3.8-0.9,8.7-0.9,11.4c0,3.5,0.6,5.6,4.7,5.6c10.5,0,27.2-17.8,27.2-33c0-4.1-2.3-5.8-5-5.8
			C487.1,558.5,484.5,563.2,477.5,566.4z M476.3,545.3c0-13.1-27.2-13.4-27.2-33.3c0-5,3.2-13.4,9.6-22.5
			c2.6,15.2,8.8,23.1,21.9,28.1c26,9.6,29.5,24.2,29.5,39.7c0,26.3-18.4,59-65.7,59c-38,0-65.2-33.9-65.2-62.5c0-7.9,2-16.6,7-16.6
			c4.4,0,5.8,3.5,9.4,7c13.2,13.2,27.5,16.7,48.2,16.7C462.6,560.8,476.3,553.2,476.3,545.3"/>
		<path id="XMLID_745_" class="st1" d="M269.4,551.7c0.7,6.1-3.6,11.6-9.7,12.3c-6.1,0.7-11.6-3.7-12.3-9.8
			c-0.7-6.1,3.6-11.6,9.8-12.3C263.2,541.2,268.7,545.6,269.4,551.7z M214.8,563.2c1.2,10,10.5,17.5,21,16.4
			c3.8-0.4,7.3-1.5,9.7-2.9c2.3,9.3,10.2,15.4,20.8,14c10.8-1.4,18.1-9.9,16.9-20.7c-0.3-2.9-0.9-4.7-1.7-6.7c0,0,1.4-0.2,2.5-0.3
			c10.6-2,17.7-10.5,16.8-20.7c-1.2-10.5-10.6-18.3-20.4-17.1c-3.8,0.5-7.3,1.9-9.7,4c-2.6-8.8-10.9-16.4-22.1-14.5
			c-10.2,1.7-16.9,10.3-15.9,21.2c0.2,1.8,0.6,3.8,1.5,5.8c0,0-1.7,0.3-2.9,0.4C222.7,543.2,213.4,551.8,214.8,563.2"/>
	</g>
</g>
</svg>
