<svg xmlns="http://www.w3.org/2000/svg" data-name="Layer 1" viewBox="0 0 98 122.5" x="0px" y="0px"><title>04</title><g data-name="Group"><path data-name="Compound Path" d="M65.5,50a.9.9,0,0,0-1,1A14.9,14.9,0,0,0,79.4,65.9,15.2,15.2,0,0,0,94.4,51a.9.9,0,0,0-1-1h0L81.1,24h6.3a1,1,0,0,0,0-2H57.6a7.7,7.7,0,0,0-15.2,0H12.6a1,1,0,0,0,0,2h6.3L6.6,50h0a.9.9,0,0,0-1,1A14.9,14.9,0,0,0,20.5,65.9,15.2,15.2,0,0,0,35.5,51a.9.9,0,0,0-1-1h-.1L22.1,24H42.4A7.7,7.7,0,0,0,49,30.2V69.4A12.7,12.7,0,0,0,37.2,82.1a.9.9,0,0,0,1,.9H61.8a.9.9,0,0,0,1-.9A12.7,12.7,0,0,0,51,69.4V30.2A7.7,7.7,0,0,0,57.6,24H77.9L65.6,50ZM79.4,63.9A13,13,0,0,1,66.5,52H92.4A13.3,13.3,0,0,1,79.4,63.9Zm-58.9,0A13,13,0,0,1,7.6,52H33.5A13.3,13.3,0,0,1,20.5,63.9ZM8.8,50,20.5,25,32.2,50Zm52,31H39.2c.6-5,5.2-9.8,10.8-9.8S60.2,76,60.8,81ZM50,28.3a5.7,5.7,0,1,1,5.7-5.7A5.8,5.8,0,0,1,50,28.3ZM79.5,25,91.2,50H67.8Z"/></g><text x="0" y="113" fill="#000000" font-size="5px" font-weight="bold" font-family="'Helvetica Neue', Helvetica, Arial-Unicode, Arial, Sans-serif">Created by Kiran Shastry</text><text x="0" y="118" fill="#000000" font-size="5px" font-weight="bold" font-family="'Helvetica Neue', Helvetica, Arial-Unicode, Arial, Sans-serif">from the Noun Project</text></svg>