<?xml version="1.0" encoding="utf-8"?>
<!-- Generator: Adobe Illustrator 19.0.0, SVG Export Plug-In . SVG Version: 6.00 Build 0)  -->
<svg version="1.1" id="Layer_1" xmlns="http://www.w3.org/2000/svg" xmlns:xlink="http://www.w3.org/1999/xlink" x="0px" y="0px"
	 viewBox="0 0 100 100" style="enable-background:new 0 0 100 100;" xml:space="preserve">
<style type="text/css">
	.st0{fill:#009ECC;}
	.st1{opacity:0.25;fill:none;stroke:#009ECC;stroke-width:2;stroke-miterlimit:10;}
</style>
<g id="XMLID_1_">
	<g id="XMLID_480_">
		<path id="XMLID_483_" class="st0" d="M59.5,50.4c-0.3,0-0.6,0.2-0.6,0.5c0,0,0,0.1,0,0.1c0,5.1,4.1,9.2,9.2,9.2l0,0
			c5.1-0.1,9.1-4.1,9.2-9.2c0-0.3-0.2-0.6-0.5-0.6c0,0-0.1,0-0.1,0l0,0l-7.6-16H73c0.3,0,0.6-0.3,0.6-0.6s-0.3-0.6-0.6-0.6H54.7
			c-0.4-2.6-2.9-4.3-5.4-3.9c-2,0.3-3.6,1.9-3.9,3.9H27c-0.3,0-0.6,0.3-0.6,0.6s0.3,0.6,0.6,0.6h3.9l-7.6,16l0,0
			c-0.3,0-0.6,0.2-0.6,0.5c0,0,0,0.1,0,0.1c0,5.1,4.1,9.2,9.2,9.2l0,0c5.1-0.1,9.1-4.1,9.2-9.2c0-0.3-0.2-0.6-0.5-0.6
			c0,0-0.1,0-0.1,0h-0.1l-7.6-16h12.5c0.4,2,2,3.6,4.1,3.8v24.2c-4.1,0.3-7.3,3.7-7.3,7.8c0,0.3,0.2,0.6,0.6,0.6c0,0,0,0,0.1,0h14.5
			c0.3,0,0.6-0.2,0.6-0.5c0,0,0,0,0-0.1c0-4.1-3.2-7.5-7.3-7.8V38.3c2-0.3,3.7-1.8,4.1-3.8h12.5L59.5,50.4L59.5,50.4z M68.1,59
			c-4.1,0-7.6-3.2-7.9-7.3h16C75.7,55.8,72.3,58.9,68.1,59z M31.8,59c-4.1,0-7.6-3.2-7.9-7.3h16C39.4,55.8,36,58.9,31.8,59z
			 M24.6,50.4L31.8,35L39,50.4H24.6z M56.7,69.5H43.3c0.4-3.1,3.2-6,6.7-6S56.3,66.5,56.7,69.5z M50,37.1c-1.9,0-3.5-1.6-3.5-3.5
			c0-1.9,1.6-3.5,3.5-3.5s3.5,1.6,3.5,3.5C53.5,35.5,51.9,37,50,37.1z M68.2,35l7.2,15.4H61L68.2,35z"/>
	</g>
	<circle id="XMLID_479_" class="st1" cx="50" cy="50" r="47.5"/>
</g>
</svg>
