<?xml version="1.0" encoding="utf-8"?>
<!-- Generator: Adobe Illustrator 19.0.0, SVG Export Plug-In . SVG Version: 6.00 Build 0)  -->
<svg version="1.1" id="Layer_1" xmlns="http://www.w3.org/2000/svg" xmlns:xlink="http://www.w3.org/1999/xlink" x="0px" y="0px"
	 viewBox="0 0 100 100" style="enable-background:new 0 0 100 100;" xml:space="preserve">
<style type="text/css">
	.st0{fill:#009ECC;}
	.st1{opacity:0.25;fill:none;stroke:#009ECC;stroke-width:2;stroke-miterlimit:10;}
</style>
<g id="XMLID_1_">
	<g id="XMLID_477_">
		<path id="XMLID_478_" class="st0" d="M56,75.1c-9.2-0.8-19.8-4.2-28.3-9.3l-2.5-1.5c0.4-0.9,0.6-1.8,0.8-2.7
			c0.1-0.3,0.1-0.5,0.2-0.8c0.2-0.8,0.4-2,0.7-3.4c0.4-2.1,0.8-4.6,1.2-5.7l5.5-14.1c0.1-0.3,0.2-0.6,0.3-1c0.3-0.9,0.6-1.8,1.2-2.4
			c0.3-0.3,0.7-0.5,1.2-0.7c0,0,0.1,0,0.1-0.1l10.9-8.4c0.5-0.4,1.3-0.4,1.8,0l5.5,4.4c0.3,0.3,0.6,0.7,0.6,1.1s-0.2,0.9-0.5,1.2
			l-3.5,3.1c-0.6,0.5-1.5,0.5-2-0.1c-0.3-0.3-0.5-0.8-0.4-1.2c0-0.4,0.3-0.8,0.7-1.1l0.3-0.2l-1-1.5L48.3,31
			c-0.8,0.6-1.4,1.4-1.5,2.4c-0.1,1,0.3,2,1,2.7c1.2,1.2,3.2,1.3,4.6,0.2l2.9-2.6l0.9,1.4l-5.5,4.7L44.1,39c0.1-0.5,0.2-0.9,0.3-1.4
			L42.7,37c-0.6,2.1-0.9,4.3-0.9,6.5c0,1.2,0.2,2.4,0.3,3.5c0.1,1.3,0.3,2.6,0.3,3.9c0,3.9-1.5,7.5-4,9.6l1.2,1.4
			c1.8-1.5,3.1-3.6,3.8-6c0.3-0.1,0.6-0.1,1-0.1c1.2,0.1,2.4,0.4,3.5,0.9c-0.4,0.7-0.8,1.5-1.1,2.3l1.7,0.6c0.2-0.7,0.6-1.4,1-2
			c0,0,0,0,0.1,0l0.9-1.3c1.7-1.9,4.3-3.3,7.3-3.7c4.4-0.7,8.6,0.9,10.8,4l1.5-1.1c-0.9-1.3-2.1-2.3-3.5-3.1c2.7-2.2,6.5-3,9.8-1.9
			l0.6-1.7c-4.1-1.4-9.1-0.3-12.2,2.8c-2.2-0.8-4.7-1.1-7.3-0.7C54,51.5,51,53.1,49,55.4c-1.4-0.7-2.9-1.1-4.5-1.3
			c-0.2,0-0.4,0-0.6,0c0.2-1,0.3-2,0.3-3.1c0-1.4-0.1-2.8-0.3-4.1c-0.1-1.1-0.2-2.3-0.3-3.4c0-0.9,0-1.8,0.1-2.8l7.1,0.9
			c0,0,0.1,0,0.1,0c0.2,0,0.4-0.1,0.6-0.2l6.4-5.5c0.4-0.3,0.4-0.8,0.2-1.2l-1.6-2.4c0.3-0.5,0.4-1.1,0.4-1.7c0-1-0.5-1.9-1.3-2.5
			l-5.5-4.4c-1.2-1-2.9-1-4.1,0l-10.4,8l-0.3,0.2c-0.5,0.2-1.1,0.5-1.5,0.9c-1,0.8-1.4,2.1-1.7,3.2c-0.1,0.3-0.2,0.6-0.3,0.9
			l-5.5,14.1c-0.5,1.2-0.9,3.7-1.3,6c-0.2,1.3-0.5,2.6-0.6,3.3c-0.1,0.3-0.1,0.5-0.2,0.8c-0.3,1.1-0.5,2.1-1,3
			c-0.3,0.4-0.1,1,0.3,1.3l3.2,1.9c8.7,5.2,19.5,8.7,29.1,9.5c0.7,0.1,1.7,0.1,2.7,0.1c5.3,0,13.8-0.9,17.9-4.3l-1.2-1.4
			C71.1,74.8,60.6,75.5,56,75.1z"/>
	</g>
	<circle id="XMLID_476_" class="st1" cx="50" cy="50" r="47.5"/>
</g>
</svg>
