<?xml version="1.0" encoding="utf-8"?>
<!-- Generator: Adobe Illustrator 19.0.0, SVG Export Plug-In . SVG Version: 6.00 Build 0)  -->
<svg version="1.1" id="Layer_1" xmlns="http://www.w3.org/2000/svg" xmlns:xlink="http://www.w3.org/1999/xlink" x="0px" y="0px"
	 viewBox="0 0 100 100" style="enable-background:new 0 0 100 100;" xml:space="preserve">
<style type="text/css">
	.st0{fill:#009ECC;}
	.st1{opacity:0.25;fill:none;stroke:#009ECC;stroke-width:2;stroke-miterlimit:10;}
</style>
<g id="XMLID_1_">
	<g id="XMLID_465_">
		<path id="XMLID_473_" class="st0" d="M44.7,69L44.7,69c-0.5,0-0.9-0.2-1.2-0.6s-0.4-0.8-0.3-1.2l2.9-13.9l-5.6-2.8
			c-0.5-0.2-0.7-0.6-0.8-1s0-0.9,0.4-1.3l14.1-16.6c0.6-0.6,1.7-0.6,2.3,0c0.3,0.4,0.4,0.8,0.3,1.2l-2.9,13.9l5.6,2.8
			c0.5,0.2,0.7,0.6,0.8,1c0.1,0.5,0,0.9-0.4,1.3L45.8,68.5C45.6,68.7,45.2,69,44.7,69z M41.8,49l5.4,2.7c0.6,0.3,0.9,1,0.8,1.7
			l-2.7,12.8L58.3,51l-5.4-2.7c-0.6-0.3-0.9-1-0.8-1.7l2.7-12.8L41.8,49z"/>
		<path id="XMLID_472_" class="st0" d="M50,77.4c-5.3,0-10.5-1.6-15.2-4.7C22.4,64.3,19,47.3,27.4,34.8c0.3-0.5,0.8-0.6,1.3-0.3
			c0.5,0.3,0.6,0.8,0.3,1.3c-7.8,11.6-4.7,27.5,7,35.3c8.7,5.8,19.9,5.8,28.5-0.1c0.5-0.3,1-0.2,1.3,0.3c0.3,0.5,0.2,1-0.3,1.3
			C60.8,75.8,55.4,77.4,50,77.4z"/>
		<path id="XMLID_471_" class="st0" d="M72,65.6c-0.2,0-0.4-0.1-0.6-0.2c-0.5-0.3-0.6-0.8-0.3-1.3c7.8-11.6,4.7-27.5-7-35.3
			c-8.5-5.7-19.5-5.8-28.1-0.2c-0.5,0.3-1,0.2-1.3-0.3c-0.3-0.5-0.2-1,0.3-1.3c9.2-6.1,21-6,30.2,0.2c12.5,8.3,15.9,25.4,7.4,37.9
			C72.5,65.5,72.2,65.6,72,65.6z"/>
		<path id="XMLID_470_" class="st0" d="M34.2,30.2c-0.4,0-0.6-0.2-0.9-0.5C33,29.5,33,29,33.1,28.7l1.7-4.4c0.2-0.5,0.7-0.7,1.2-0.6
			c0.5,0.2,0.7,0.7,0.6,1.2l-1.3,3.3l3.6-0.5c0.5-0.1,0.9,0.3,1,0.8c0.1,0.5-0.3,0.9-0.8,1L34.2,30.2C34.3,30.2,34.3,30.2,34.2,30.2
			z"/>
		<path id="XMLID_469_" class="st0" d="M64.9,75.9c-0.1,0-0.2,0-0.4-0.1c-0.5-0.2-0.7-0.7-0.6-1.2l1.3-3.3l-3.6,0.5
			c-0.6,0.1-0.9-0.3-1-0.8c-0.1-0.6,0.3-0.9,0.8-1l4.7-0.6c0.4-0.1,0.8,0.1,1,0.5c0.3,0.3,0.3,0.7,0.2,1.1l-1.7,4.4
			C65.6,75.7,65.3,75.9,64.9,75.9z"/>
	</g>
	<circle id="XMLID_464_" class="st1" cx="50" cy="50" r="47.5"/>
</g>
</svg>
