<svg id="Layer_1" data-name="Layer 1" xmlns="http://www.w3.org/2000/svg" viewBox="0 0 500 500"><defs><style>.cls-1{fill:#009ecc;}</style></defs><title>favicon</title><path class="cls-1" d="M415.31,92.78c.31-.3.6-.62.91-.91s.46-.64,0-1.05q-3.06-3-6.09-6.13c-.33-.34-.61-.36-.94,0s-.6.6-.9.9q-9.1,9.12-18.22,18.22-12.27,12.27-24.55,24.55c-1.15,1.14-.92,1.22-2.21,0-2.92-2.72-5.93-5.36-9.05-7.86a164.65,164.65,0,0,0-95.58-36.64,165.71,165.71,0,0,0-100.56,27.29A165.95,165.95,0,0,0,83.71,258.87a163.08,163.08,0,0,0,3.05,24.24,165.26,165.26,0,0,0,37.06,75.52c1.74,2,3.54,4,5.34,6a6.85,6.85,0,0,1-1.29,1.44L86.69,407.23a9.81,9.81,0,0,1-.79.79c-.65.5-.49.89,0,1.4,1.68,1.63,3.32,3.3,5,5,1.4,1.39,1.4,1.4,2.75,0L135.08,373a5.48,5.48,0,0,1,1.38-1.21l2.58,2.31q43.88,38.65,102.24,42a165.84,165.84,0,0,0,98-25.83,165.44,165.44,0,0,0,62.28-71.87,165.91,165.91,0,0,0,14.54-75.9A165.69,165.69,0,0,0,372.88,138c-1.32-1.47-1.33-1.47.12-2.92Zm-59.17,45Q246.9,247,137.66,356.26c-.15.15-.29.3-.45.45-.85.82-.87.84-1.71-.06A156.11,156.11,0,0,1,96,278.35a149.18,149.18,0,0,1-2.53-32c1.23-38.88,14.72-72.92,40.88-101.74,21.06-23.2,47-38.55,77.34-46.32a151.74,151.74,0,0,1,24.08-4,155.78,155.78,0,0,1,120.32,41.06l1.46,1.38A14.28,14.28,0,0,0,356.14,137.8Z"/></svg>