<?xml version="1.0" encoding="utf-8"?>
<!-- Generator: Adobe Illustrator 19.0.0, SVG Export Plug-In . SVG Version: 6.00 Build 0)  -->
<svg version="1.1" id="Layer_1" xmlns="http://www.w3.org/2000/svg" xmlns:xlink="http://www.w3.org/1999/xlink" x="0px" y="0px"
	 viewBox="0 0 500 500" style="enable-background:new 0 0 500 500;" xml:space="preserve">
<style type="text/css">
	.st0{fill:#009ECC;}
</style>
<g id="XMLID_1293_">
	<path id="XMLID_1615_" class="st0" d="M313.1,311.6c-1.3-0.3-2.4-0.4-3.4-0.3c-31.2-3.8-79.8-12.6-134.4-33.2l0,0l-19.4-7.4
		c3.1-2.8,5.9-6,8.3-9.6c3.1-4.6,5.5-9.5,7-14.7c2.6-8.9,3.2-17.4,1.7-25.3c-1.5-7.9-4.4-15.1-8.6-21.3c-4.2-6.2-9.7-11.4-16.1-15.5
		c-6.5-4.1-13.5-6.8-20.9-8c-7.4-1.2-15-0.8-22.8,1.3c-7.7,2.1-15.1,6.2-21.9,12.3c-6,5.4-10.6,12-13.8,19.5
		c-3.2,7.6-4.5,15.5-4,23.6c0.3,5.3,1.4,10.6,3.2,15.7c1.8,5.2,4.4,10,7.7,14.1c4.8,6.3,10.8,11.4,17.7,15.2
		c7,3.8,14.5,5.9,22.5,6.4c5.8,0.3,11.6-0.3,17.2-1.6c5.3-1.3,10.3-3.5,14.9-6.5l25.4,9.5c2.3,1,58.6,26.7,131.7,38.2
		c0.1,0,0.2,0,0.3,0c0,0,0,0,0,0c1.4,0.4,3,0.5,5,0.3c0,0-0.2-4.8-3.7-7.1C312.4,317.1,313.1,311.6,313.1,311.6z M111.2,276
		l-0.4-0.1c-5-1-9.8-2.8-14.2-5.1c-3.1-1.7-5.9-3.7-8.6-6.2c2.2-0.1,4.3,0,6.2,0.1c2.6,0.1,5.6,0.5,8.8,0.9c0.8,0.2,2.3,0.5,4.4,0.8
		l1.4,0.2c1.6,0.3,3.3,0.6,5.1,0.9c2.2,0.4,4.4,0.8,6.4,1.1c2,0.4,3.3,0.7,4.1,0.8c1.2,0.3,2.8,0.7,4.7,1.2c1.9,0.5,3.8,1.1,5.7,1.6
		l2,0.6c0.2,0,0.3,0.1,0.5,0.1c-3,1.3-5.9,2.1-8.8,2.6c-4.3,0.7-9.1,1-14.2,0.8c-0.3,0-0.8,0-1.7-0.1
		C111.7,276.2,111.3,276.1,111.2,276z M142.4,266.3c-2.2-0.6-4.4-1.2-6.8-1.9c-2.4-0.7-4.7-1.3-6.9-1.9c-2.2-0.6-3.7-1-4.6-1.2
		c-14.1-3.4-28.5-5-42.8-4.5c-3.3-4.7-5.5-9.6-6.8-14.7c-1.2-5.2-1.7-10.8-1.4-16.4c0.2-4.6,1.4-9.3,3.5-14
		c2.2-4.7,4.9-8.9,8.1-12.4c3.9-4.3,8.4-7.7,13.1-10.2c4.8-2.4,9.7-4,14.8-4.8c5-0.7,10.1-0.6,15.3,0.3c5.1,0.9,9.9,2.7,14.4,5.2
		c4.4,2.5,8.5,5.8,12,9.9c3.5,4.1,6.4,8.9,8.5,14.3c1.7,4.5,2.7,9.1,2.9,13.8c0.2,4.7-0.4,9.3-1.5,13.8c-1.2,4.5-3,8.8-5.4,12.8
		c-2.4,4-5.3,7.6-8.9,10.9c-0.2,0.2-0.5,0.4-1.1,0.9c-0.7,0.6-1.3,1-1.7,1.4C146,267.3,144.5,266.8,142.4,266.3z"/>
	<polygon id="XMLID_1614_" class="st0" points="5.9,227.1 30.9,227.1 30.9,218.9 5.9,218.9 5.9,183.5 66.4,183.5 66.4,176 
		-1.9,175.9 -2,283.2 64.6,283.3 64.6,275.4 5.9,275.4 	"/>
	<path id="XMLID_1613_" class="st0" d="M184.3,249.7l0.2,0.9c0,0.1,0.1,0.3,0.1,0.6l0.3,1.6c0.1,0.5,0.2,1,0.3,1.7
		c0.1,0.4,0.2,0.9,0.4,1.3c1,3.6,2.6,7,4.6,10.2c2.1,3.3,4.6,6.3,7.5,8.9c2.8,2.6,6.1,4.8,9.6,6.6c3.5,1.8,7.2,3,11.1,3.6
		c2.4,0.4,4.8,0.6,7.2,0.6c2.6,0,5.1-0.2,7.6-0.7c4.8-0.8,9.4-2.5,13.7-4.9c4.2-2.4,8-5.5,11.2-9.2c3.3-3.7,5.8-8.1,7.5-13
		c0.6-1.7,1.1-3.6,1.7-5.7c0.5-2.1,0.8-4.2,0.8-6.3l0-69.1h-7.8l-0.1,70.6c0,0.3-0.2,1-0.5,2.1c-0.4,1.4-0.7,2.5-0.9,3.3
		c-0.8,2.9-2.1,5.8-3.8,8.7c-2.2,3.5-4.8,6.5-7.8,8.8c-3,2.3-6.2,4.1-9.7,5.3c-3.5,1.2-7.1,1.8-10.7,1.8c-3.6,0-7.3-0.5-10.8-1.6
		c-3.5-1.1-6.8-2.7-10-4.9c-3.1-2.2-5.9-4.9-8.2-8.2c-1.8-2.4-3.2-5.2-4.3-8.4c-1.1-3.2-1.6-6.2-1.6-9.2l0-68.5h-7.8l-0.1,70.5
		c0,0.3,0,0.7,0.2,1.4C184.3,249.3,184.3,249.5,184.3,249.7z"/>
	<path id="XMLID_1610_" class="st0" d="M277.1,283.4l23-45.4l45.2,0l19.2,45.7h7.9l-44.1-107.6l-6.3,0l-54.4,107.3H277.1z
		 M343.5,233.7l-41.1,0l22.5-44.3L343.5,233.7z"/>
	<polygon id="XMLID_1609_" class="st0" points="431.7,275.7 388.2,275.6 388.2,176.2 380.1,176.2 380,283.5 431.7,283.5 	"/>
	<path id="XMLID_1608_" class="st0" d="M447.6,184.9c3.3-2,6.9-3.3,10.7-4c3.8-0.7,7.8-0.7,11.9-0.1c4.1,0.7,7.8,1.9,10.9,3.7
		c3.2,1.8,5.8,4.2,7.9,7.2c2,2.9,3.1,6.4,3.1,10.4l0,2.1h7.6l0.2-2c0.2-2.8-0.2-5.6-1.2-8.4c-1-2.8-2.3-5.1-3.8-7.1
		c-2.8-4-6.3-7.2-10.4-9.5c-4.1-2.2-8.5-3.7-13.1-4.3c-4.6-0.6-9.2-0.5-13.8,0.3c-4.6,0.8-9,2.3-12.9,4.4c-2.4,1.2-4.6,2.8-6.6,4.8
		c-2,1.9-3.7,4.2-5,6.5c-1.8,3-2.9,6.2-3.5,9.5c-0.5,3.3-0.3,6.8,0.6,10.6c1.2,4.2,3.4,8.1,6.5,11.6c3,3.4,6.6,6,10.7,7.8
		c3.2,1.4,6.5,2.4,9.8,2.8c3.3,0.4,6.6,0.8,9.9,1c4,0.3,8.1,1.4,11.9,3.2c3.8,1.8,6.9,4.3,9.1,7.4c0.9,1.3,1.7,2.7,2.6,4.3
		c0.7,1.3,1.1,2.5,1.1,3.9c0.2,2.7,0,5.4-0.5,8c-0.5,2.4-1.6,4.6-3.4,6.5c-2.4,2.8-5.2,5.1-8.4,6.8c-3.3,1.7-6.7,2.8-10.2,3.3
		c-3.5,0.5-7,0.5-10.6-0.2c-3.6-0.7-7.1-1.9-10.3-3.8c-3.3-1.8-5.9-4.3-7.8-7.3c-1.9-3.2-3.1-6.5-3.5-10.3l-0.2-2l-3,0l-0.5,0
		c-0.7,0-1.5,0.1-2.3,0.4l-1.4,0.5l-0.1,1.5c-0.2,4.1,0.6,7.9,2.3,11.3c1.7,3.3,4,6.2,6.8,8.6c2.8,2.4,6,4.4,9.5,5.9
		c3.4,1.5,6.8,2.6,10.2,3.2c2.1,0.4,4.3,0.6,6.6,0.6c2.1,0,4.2-0.2,6.4-0.5c4.4-0.8,8.7-2.2,12.6-4.3c3.9-2.1,7.3-4.9,10.1-8.4
		c2.8-3.5,4.7-7.5,5.5-12.2c0.7-4.7,0.4-9.2-1.1-13.2c-1.5-4.1-3.7-7.7-6.7-10.7c-3-3-6.5-5.4-10.5-7.2c-4-1.8-8.2-2.8-12.4-3.2
		c-2.3-0.2-4.6-0.3-6.8-0.4c-2-0.1-4.1-0.4-6.1-0.9c-3.4-1-6.6-2.5-9.4-4.6c-2.8-2-5-4.4-6.6-7.2c-1.5-2.7-2.4-5.6-2.6-8.9
		c-0.2-3.2,0.7-6.5,2.6-9.8C441.9,189.5,444.4,186.9,447.6,184.9z"/>
	<path id="XMLID_1607_" class="st0" d="M334.9,311.8c-10.4,1.3-11,7.3-11,7.3C335.6,320.6,334.9,311.8,334.9,311.8z"/>
	<path id="XMLID_1606_" class="st0" d="M321.7,320c0,0,0.7,5.9,11.1,7.1C332.8,327.1,333.3,318.2,321.7,320z"/>
	<path id="XMLID_1605_" class="st0" d="M344.9,312.4c-10.4,1.3-11,7.3-11,7.3C345.6,321.2,344.9,312.4,344.9,312.4z"/>
	<path id="XMLID_1604_" class="st0" d="M332,320.6c0,0,0.7,5.9,11.1,7.1C343.1,327.7,343.6,318.9,332,320.6z"/>
	<path id="XMLID_1603_" class="st0" d="M313.4,318.1c10.3,2.6,10.6-6.2,10.6-6.2C314.5,312.3,313.4,318.1,313.4,318.1z"/>
	<path id="XMLID_1602_" class="st0" d="M312,319.6c0,0,0.6,5.9,10,7.1C322,326.7,322.5,317.9,312,319.6z"/>
	<path id="XMLID_1599_" class="st0" d="M345.2,320.1c11.6,1.4,11-6.8,11-6.8C345.8,314.5,345.2,320.1,345.2,320.1z"/>
	<path id="XMLID_1598_" class="st0" d="M343.1,321.5c0,0,0.7,5.6,11.1,6.6C354.2,328.1,354.7,319.8,343.1,321.5z"/>
	<path id="XMLID_1596_" class="st0" d="M356.3,320.4c11.7,1.4,11-6.8,11-6.8C356.9,314.8,356.3,320.4,356.3,320.4z"/>
	<path id="XMLID_1595_" class="st0" d="M354.1,321.8c0,0,0.7,5.6,11.1,6.6C365.3,328.4,365.8,320.2,354.1,321.8z"/>
	<path id="XMLID_1594_" class="st0" d="M366.6,320.3c11.7,1.3,11-6.5,11-6.5C367.2,315,366.6,320.3,366.6,320.3z"/>
	<path id="XMLID_1593_" class="st0" d="M365.4,322.1c0,0,0.7,5.3,11.1,6.3C376.5,328.3,377,320.5,365.4,322.1z"/>
	<path id="XMLID_1592_" class="st0" d="M389.1,313.5c-10.4,1.2-11,6.5-11,6.5C389.7,321.4,389.1,313.5,389.1,313.5z"/>
	<path id="XMLID_1591_" class="st0" d="M375.6,322c0,0,0.7,5.3,11.1,6.2C386.8,328.2,387.3,320.4,375.6,322z"/>
	<path id="XMLID_1590_" class="st0" d="M389.1,319.4c11.7,1.3,11-6.2,11-6.2C389.7,314.3,389.1,319.4,389.1,319.4z"/>
	<path id="XMLID_1589_" class="st0" d="M386.3,321.8c0,0,0.7,5,11.1,6C397.4,327.7,397.9,320.3,386.3,321.8z"/>
	<path id="XMLID_1586_" class="st0" d="M400.2,319.8c11.7-0.1,10.2-7.2,10.2-7.2C400.2,315,400.2,319.8,400.2,319.8z"/>
	<path id="XMLID_1585_" class="st0" d="M397.4,322.3c0,0,1.2,4.7,11.7,4.4C409.1,326.7,408.8,319.5,397.4,322.3z"/>
	<path id="XMLID_1584_" class="st0" d="M411.3,318.3c11.7-0.3,10.3-6.7,10.3-6.7C411.3,313.9,411.3,318.3,411.3,318.3z"/>
	<path id="XMLID_1583_" class="st0" d="M407.8,320.2c0,0,1.2,4.3,11.6,3.9C419.4,324.1,419.2,317.5,407.8,320.2z"/>
	<path id="XMLID_1582_" class="st0" d="M421.7,317.3c11.7-0.3,10.3-6.7,10.3-6.7C421.7,312.8,421.7,317.3,421.7,317.3z"/>
	<path id="XMLID_1581_" class="st0" d="M419.4,318.9c0,0,1.2,4.3,11.6,3.9C431.1,322.8,430.8,316.3,419.4,318.9z"/>
	<path id="XMLID_1580_" class="st0" d="M444.3,309.2c-10.2,2.2-10.3,6.4-10.3,6.4C445.6,315.3,444.3,309.2,444.3,309.2z"/>
	<path id="XMLID_1445_" class="st0" d="M431.1,317.3c0,0,1.2,4.1,11.6,3.7C442.7,321,442.5,314.7,431.1,317.3z"/>
	<path id="XMLID_1411_" class="st0" d="M454.4,307.5c-10.1,2.9-9.9,7-9.9,7C456.1,313.2,454.4,307.5,454.4,307.5z"/>
	<path id="XMLID_1317_" class="st0" d="M442.8,316.1c0,0,1.4,3.8,11.8,2.6C454.6,318.7,454,312.7,442.8,316.1z"/>
	<path id="XMLID_1310_" class="st0" d="M465.5,304.9c-10.1,2.9-9.9,7-9.9,7C467.2,310.6,465.5,304.9,465.5,304.9z"/>
	<path id="XMLID_1309_" class="st0" d="M454.2,313.2c0,0,1.4,3.9,11.8,2.6C466.1,315.8,465.4,309.8,454.2,313.2z"/>
	<path id="XMLID_1305_" class="st0" d="M476.9,301.8c-9.6,4.2-8.9,7.9-8.9,7.9C479.3,306.8,476.9,301.8,476.9,301.8z"/>
	<path id="XMLID_1299_" class="st0" d="M465.7,311c0,0,1.8,3.3,11.9,0.5C477.6,311.6,476.4,306.2,465.7,311z"/>
	<path id="XMLID_1296_" class="st0" d="M487,298.1c-9.6,4.2-8.9,7.9-8.9,7.9C489.3,303.1,487,298.1,487,298.1z"/>
	<path id="XMLID_1295_" class="st0" d="M476.7,307.6c0,0,1.8,3.3,11.9,0.5C488.6,308.1,487.3,302.8,476.7,307.6z"/>
	<path id="XMLID_1294_" class="st0" d="M486.8,304.5c11.6-1.6,9.8-6.8,9.8-6.8C486.6,300.7,486.8,304.5,486.8,304.5z"/>
</g>
</svg>
